G04 #@! TF.FileFunction,Legend,Top*
%FSLAX46Y46*%
G04 Gerber Fmt 4.6, Leading zero omitted, Abs format (unit mm)*
G04 Created by KiCad (PCBNEW 4.0.7) date Tuesday, August 03, 2021 'PMt' 04:14:27 PM*
%MOMM*%
%LPD*%
G01*
G04 APERTURE LIST*
%ADD10C,0.100000*%
%ADD11C,0.150000*%
G04 APERTURE END LIST*
D10*
D11*
X169800000Y-96400000D02*
X169800000Y-103400000D01*
X173050000Y-96400000D02*
X169850000Y-96400000D01*
X173050000Y-103400000D02*
X169850000Y-103400000D01*
X173050000Y-96400000D02*
X173050000Y-93400000D01*
X173050000Y-106400000D02*
X173050000Y-103400000D01*
X188050000Y-93400000D02*
X188050000Y-106400000D01*
X173050000Y-106400000D02*
X188050000Y-106400000D01*
X173050000Y-93400000D02*
X188050000Y-93400000D01*
X204000000Y-90600000D02*
X203000000Y-90600000D01*
X204000000Y-94600000D02*
X203000000Y-94600000D01*
X203000000Y-90600000D02*
G75*
G03X203000000Y-94600000I0J-2000000D01*
G01*
X204000000Y-94600000D02*
X204000000Y-90600000D01*
X196900000Y-86000000D02*
X196900000Y-87000000D01*
X200900000Y-86000000D02*
X200900000Y-87000000D01*
X196900000Y-87000000D02*
G75*
G03X200900000Y-87000000I2000000J0D01*
G01*
X200900000Y-86000000D02*
X196900000Y-86000000D01*
X191900000Y-91400000D02*
X192900000Y-91400000D01*
X191900000Y-87400000D02*
X192900000Y-87400000D01*
X192900000Y-91400000D02*
G75*
G03X192900000Y-87400000I0J2000000D01*
G01*
X191900000Y-87400000D02*
X191900000Y-91400000D01*
X209400000Y-88200000D02*
X209400000Y-87200000D01*
X205400000Y-88200000D02*
X205400000Y-87200000D01*
X209400000Y-87200000D02*
G75*
G03X205400000Y-87200000I-2000000J0D01*
G01*
X205400000Y-88200000D02*
X209400000Y-88200000D01*
X210400000Y-91700000D02*
X210400000Y-90700000D01*
X206400000Y-91700000D02*
X206400000Y-90700000D01*
X210400000Y-90700000D02*
G75*
G03X206400000Y-90700000I-2000000J0D01*
G01*
X206400000Y-91700000D02*
X210400000Y-91700000D01*
X216700000Y-89400000D02*
X216700000Y-88400000D01*
X212700000Y-89400000D02*
X212700000Y-88400000D01*
X216700000Y-88400000D02*
G75*
G03X212700000Y-88400000I-2000000J0D01*
G01*
X212700000Y-89400000D02*
X216700000Y-89400000D01*
X224806000Y-91535000D02*
X225806000Y-91535000D01*
X224806000Y-87535000D02*
X225806000Y-87535000D01*
X225806000Y-91535000D02*
G75*
G03X225806000Y-87535000I0J2000000D01*
G01*
X224806000Y-87535000D02*
X224806000Y-91535000D01*
X200000000Y-109500000D02*
X199000000Y-109500000D01*
X200000000Y-113500000D02*
X199000000Y-113500000D01*
X199000000Y-109500000D02*
G75*
G03X199000000Y-113500000I0J-2000000D01*
G01*
X200000000Y-113500000D02*
X200000000Y-109500000D01*
X196600000Y-109700000D02*
X195600000Y-109700000D01*
X196600000Y-113700000D02*
X195600000Y-113700000D01*
X195600000Y-109700000D02*
G75*
G03X195600000Y-113700000I0J-2000000D01*
G01*
X196600000Y-113700000D02*
X196600000Y-109700000D01*
X193300000Y-107300000D02*
X192300000Y-107300000D01*
X193300000Y-111300000D02*
X192300000Y-111300000D01*
X192300000Y-107300000D02*
G75*
G03X192300000Y-111300000I0J-2000000D01*
G01*
X193300000Y-111300000D02*
X193300000Y-107300000D01*
X212600000Y-109700000D02*
X211600000Y-109700000D01*
X212600000Y-113700000D02*
X211600000Y-113700000D01*
X211600000Y-109700000D02*
G75*
G03X211600000Y-113700000I0J-2000000D01*
G01*
X212600000Y-113700000D02*
X212600000Y-109700000D01*
X209100000Y-109600000D02*
X208100000Y-109600000D01*
X209100000Y-113600000D02*
X208100000Y-113600000D01*
X208100000Y-109600000D02*
G75*
G03X208100000Y-113600000I0J-2000000D01*
G01*
X209100000Y-113600000D02*
X209100000Y-109600000D01*
X218600000Y-111100000D02*
X218600000Y-112100000D01*
X222600000Y-111100000D02*
X222600000Y-112100000D01*
X218600000Y-112100000D02*
G75*
G03X222600000Y-112100000I2000000J0D01*
G01*
X222600000Y-111100000D02*
X218600000Y-111100000D01*
X226900000Y-111100000D02*
X225900000Y-111100000D01*
X226900000Y-115100000D02*
X225900000Y-115100000D01*
X225900000Y-111100000D02*
G75*
G03X225900000Y-115100000I0J-2000000D01*
G01*
X226900000Y-115100000D02*
X226900000Y-111100000D01*
X179150000Y-133000000D02*
X179150000Y-134000000D01*
X183150000Y-133000000D02*
X183150000Y-134000000D01*
X179150000Y-134000000D02*
G75*
G03X183150000Y-134000000I2000000J0D01*
G01*
X183150000Y-133000000D02*
X179150000Y-133000000D01*
X185600000Y-123300000D02*
X186600000Y-123300000D01*
X185600000Y-119300000D02*
X186600000Y-119300000D01*
X186600000Y-123300000D02*
G75*
G03X186600000Y-119300000I0J2000000D01*
G01*
X185600000Y-119300000D02*
X185600000Y-123300000D01*
X190450000Y-131700000D02*
X190450000Y-132700000D01*
X194450000Y-131700000D02*
X194450000Y-132700000D01*
X190450000Y-132700000D02*
G75*
G03X194450000Y-132700000I2000000J0D01*
G01*
X194450000Y-131700000D02*
X190450000Y-131700000D01*
X189050000Y-123400000D02*
X190050000Y-123400000D01*
X189050000Y-119400000D02*
X190050000Y-119400000D01*
X190050000Y-123400000D02*
G75*
G03X190050000Y-119400000I0J2000000D01*
G01*
X189050000Y-119400000D02*
X189050000Y-123400000D01*
X188800000Y-128650000D02*
X188800000Y-127650000D01*
X184800000Y-128650000D02*
X184800000Y-127650000D01*
X188800000Y-127650000D02*
G75*
G03X184800000Y-127650000I-2000000J0D01*
G01*
X184800000Y-128650000D02*
X188800000Y-128650000D01*
X197100000Y-122650000D02*
X196100000Y-122650000D01*
X197100000Y-126650000D02*
X196100000Y-126650000D01*
X196100000Y-122650000D02*
G75*
G03X196100000Y-126650000I0J-2000000D01*
G01*
X197100000Y-126650000D02*
X197100000Y-122650000D01*
X197500000Y-135400000D02*
X198500000Y-135400000D01*
X197500000Y-131400000D02*
X198500000Y-131400000D01*
X198500000Y-135400000D02*
G75*
G03X198500000Y-131400000I0J2000000D01*
G01*
X197500000Y-131400000D02*
X197500000Y-135400000D01*
X205550000Y-125750000D02*
X204550000Y-125750000D01*
X205550000Y-129750000D02*
X204550000Y-129750000D01*
X204550000Y-125750000D02*
G75*
G03X204550000Y-129750000I0J-2000000D01*
G01*
X205550000Y-129750000D02*
X205550000Y-125750000D01*
X208550000Y-124850000D02*
X209550000Y-124850000D01*
X208550000Y-120850000D02*
X209550000Y-120850000D01*
X209550000Y-124850000D02*
G75*
G03X209550000Y-120850000I0J2000000D01*
G01*
X208550000Y-120850000D02*
X208550000Y-124850000D01*
X206900000Y-133150000D02*
X207900000Y-133150000D01*
X206900000Y-129150000D02*
X207900000Y-129150000D01*
X207900000Y-133150000D02*
G75*
G03X207900000Y-129150000I0J2000000D01*
G01*
X206900000Y-129150000D02*
X206900000Y-133150000D01*
X216650000Y-126550000D02*
X217650000Y-126550000D01*
X216650000Y-122550000D02*
X217650000Y-122550000D01*
X217650000Y-126550000D02*
G75*
G03X217650000Y-122550000I0J2000000D01*
G01*
X216650000Y-122550000D02*
X216650000Y-126550000D01*
X221550000Y-138400000D02*
X220550000Y-138400000D01*
X221550000Y-142400000D02*
X220550000Y-142400000D01*
X220550000Y-138400000D02*
G75*
G03X220550000Y-142400000I0J-2000000D01*
G01*
X221550000Y-142400000D02*
X221550000Y-138400000D01*
X224400000Y-120850000D02*
X223400000Y-120850000D01*
X224400000Y-124850000D02*
X223400000Y-124850000D01*
X223400000Y-120850000D02*
G75*
G03X223400000Y-124850000I0J-2000000D01*
G01*
X224400000Y-124850000D02*
X224400000Y-120850000D01*
X218050000Y-138500000D02*
X217050000Y-138500000D01*
X218050000Y-142500000D02*
X217050000Y-142500000D01*
X217050000Y-138500000D02*
G75*
G03X217050000Y-142500000I0J-2000000D01*
G01*
X218050000Y-142500000D02*
X218050000Y-138500000D01*
X222950000Y-133850000D02*
X223950000Y-133850000D01*
X222950000Y-129850000D02*
X223950000Y-129850000D01*
X223950000Y-133850000D02*
G75*
G03X223950000Y-129850000I0J2000000D01*
G01*
X222950000Y-129850000D02*
X222950000Y-133850000D01*
X228300000Y-120850000D02*
X227300000Y-120850000D01*
X228300000Y-124850000D02*
X227300000Y-124850000D01*
X227300000Y-120850000D02*
G75*
G03X227300000Y-124850000I0J-2000000D01*
G01*
X228300000Y-124850000D02*
X228300000Y-120850000D01*
X233100000Y-138400000D02*
X233100000Y-148400000D01*
X234000000Y-138400000D02*
X230000000Y-138400000D01*
X234000000Y-148400000D02*
X230000000Y-148400000D01*
X229900000Y-138400000D02*
X229900000Y-148400000D01*
X234100000Y-138400000D02*
X234100000Y-148400000D01*
X233100000Y-126000000D02*
X233100000Y-136000000D01*
X234000000Y-126000000D02*
X230000000Y-126000000D01*
X234000000Y-136000000D02*
X230000000Y-136000000D01*
X229900000Y-126000000D02*
X229900000Y-136000000D01*
X234100000Y-126000000D02*
X234100000Y-136000000D01*
X176450000Y-90000000D02*
X176450000Y-80000000D01*
X175550000Y-90000000D02*
X179550000Y-90000000D01*
X175550000Y-80000000D02*
X179550000Y-80000000D01*
X179650000Y-90000000D02*
X179650000Y-80000000D01*
X175450000Y-90000000D02*
X175450000Y-80000000D01*
X178500000Y-70400000D02*
X179500000Y-70400000D01*
X178500000Y-66400000D02*
X179500000Y-66400000D01*
X179500000Y-70400000D02*
G75*
G03X179500000Y-66400000I0J2000000D01*
G01*
X178500000Y-66400000D02*
X178500000Y-70400000D01*
X188250000Y-76350000D02*
X187250000Y-76350000D01*
X188250000Y-80350000D02*
X187250000Y-80350000D01*
X187250000Y-76350000D02*
G75*
G03X187250000Y-80350000I0J-2000000D01*
G01*
X188250000Y-80350000D02*
X188250000Y-76350000D01*
X185900000Y-64850000D02*
X185900000Y-65850000D01*
X189900000Y-64850000D02*
X189900000Y-65850000D01*
X185900000Y-65850000D02*
G75*
G03X189900000Y-65850000I2000000J0D01*
G01*
X189900000Y-64850000D02*
X185900000Y-64850000D01*
X192050000Y-76350000D02*
X191050000Y-76350000D01*
X192050000Y-80350000D02*
X191050000Y-80350000D01*
X191050000Y-76350000D02*
G75*
G03X191050000Y-80350000I0J-2000000D01*
G01*
X192050000Y-80350000D02*
X192050000Y-76350000D01*
X182250000Y-72450000D02*
X183250000Y-72450000D01*
X182250000Y-68450000D02*
X183250000Y-68450000D01*
X183250000Y-72450000D02*
G75*
G03X183250000Y-68450000I0J2000000D01*
G01*
X182250000Y-68450000D02*
X182250000Y-72450000D01*
X193200000Y-80350000D02*
X194200000Y-80350000D01*
X193200000Y-76350000D02*
X194200000Y-76350000D01*
X194200000Y-80350000D02*
G75*
G03X194200000Y-76350000I0J2000000D01*
G01*
X193200000Y-76350000D02*
X193200000Y-80350000D01*
X199000000Y-74300000D02*
X198000000Y-74300000D01*
X199000000Y-78300000D02*
X198000000Y-78300000D01*
X198000000Y-74300000D02*
G75*
G03X198000000Y-78300000I0J-2000000D01*
G01*
X199000000Y-78300000D02*
X199000000Y-74300000D01*
X200400000Y-73950000D02*
X201400000Y-73950000D01*
X200400000Y-69950000D02*
X201400000Y-69950000D01*
X201400000Y-73950000D02*
G75*
G03X201400000Y-69950000I0J2000000D01*
G01*
X200400000Y-69950000D02*
X200400000Y-73950000D01*
X205100000Y-76900000D02*
X204100000Y-76900000D01*
X205100000Y-80900000D02*
X204100000Y-80900000D01*
X204100000Y-76900000D02*
G75*
G03X204100000Y-80900000I0J-2000000D01*
G01*
X205100000Y-80900000D02*
X205100000Y-76900000D01*
X205900000Y-66000000D02*
X204900000Y-66000000D01*
X205900000Y-70000000D02*
X204900000Y-70000000D01*
X204900000Y-66000000D02*
G75*
G03X204900000Y-70000000I0J-2000000D01*
G01*
X205900000Y-70000000D02*
X205900000Y-66000000D01*
X208100000Y-76300000D02*
X208100000Y-77300000D01*
X212100000Y-76300000D02*
X212100000Y-77300000D01*
X208100000Y-77300000D02*
G75*
G03X212100000Y-77300000I2000000J0D01*
G01*
X212100000Y-76300000D02*
X208100000Y-76300000D01*
X217700000Y-60700000D02*
X218700000Y-60700000D01*
X217700000Y-56700000D02*
X218700000Y-56700000D01*
X218700000Y-60700000D02*
G75*
G03X218700000Y-56700000I0J2000000D01*
G01*
X217700000Y-56700000D02*
X217700000Y-60700000D01*
X230500000Y-81800000D02*
X231500000Y-81800000D01*
X230500000Y-77800000D02*
X231500000Y-77800000D01*
X231500000Y-81800000D02*
G75*
G03X231500000Y-77800000I0J2000000D01*
G01*
X230500000Y-77800000D02*
X230500000Y-81800000D01*
X214300000Y-63000000D02*
X215300000Y-63000000D01*
X214300000Y-59000000D02*
X215300000Y-59000000D01*
X215300000Y-63000000D02*
G75*
G03X215300000Y-59000000I0J2000000D01*
G01*
X214300000Y-59000000D02*
X214300000Y-63000000D01*
X221000000Y-66100000D02*
X220000000Y-66100000D01*
X221000000Y-70100000D02*
X220000000Y-70100000D01*
X220000000Y-66100000D02*
G75*
G03X220000000Y-70100000I0J-2000000D01*
G01*
X221000000Y-70100000D02*
X221000000Y-66100000D01*
X226700000Y-81700000D02*
X227700000Y-81700000D01*
X226700000Y-77700000D02*
X227700000Y-77700000D01*
X227700000Y-81700000D02*
G75*
G03X227700000Y-77700000I0J2000000D01*
G01*
X226700000Y-77700000D02*
X226700000Y-81700000D01*
X233256000Y-51896000D02*
X233256000Y-61896000D01*
X234156000Y-51896000D02*
X230156000Y-51896000D01*
X234156000Y-61896000D02*
X230156000Y-61896000D01*
X230056000Y-51896000D02*
X230056000Y-61896000D01*
X234256000Y-51896000D02*
X234256000Y-61896000D01*
X233256000Y-63072000D02*
X233256000Y-73072000D01*
X234156000Y-63072000D02*
X230156000Y-63072000D01*
X234156000Y-73072000D02*
X230156000Y-73072000D01*
X230056000Y-63072000D02*
X230056000Y-73072000D01*
X234256000Y-63072000D02*
X234256000Y-73072000D01*
X233764000Y-85424000D02*
X233764000Y-95424000D01*
X234664000Y-85424000D02*
X230664000Y-85424000D01*
X234664000Y-95424000D02*
X230664000Y-95424000D01*
X230564000Y-85424000D02*
X230564000Y-95424000D01*
X234764000Y-85424000D02*
X234764000Y-95424000D01*
X233300000Y-105400000D02*
X233300000Y-115400000D01*
X234200000Y-105400000D02*
X230200000Y-105400000D01*
X234200000Y-115400000D02*
X230200000Y-115400000D01*
X230100000Y-105400000D02*
X230100000Y-115400000D01*
X234300000Y-105400000D02*
X234300000Y-115400000D01*
X191200000Y-142700000D02*
G75*
G03X191200000Y-142700000I-6000000J0D01*
G01*
X211200000Y-142700000D02*
G75*
G03X211200000Y-142700000I-6000000J0D01*
G01*
X190200000Y-57300000D02*
G75*
G03X190200000Y-57300000I-6000000J0D01*
G01*
X210200000Y-57300000D02*
G75*
G03X210200000Y-57300000I-6000000J0D01*
G01*
X234350000Y-152150000D02*
X239350000Y-152150000D01*
X234350000Y-48150000D02*
X239350000Y-48150000D01*
X239350000Y-48150000D02*
X239350000Y-152150000D01*
X234350000Y-48150000D02*
X234350000Y-152150000D01*
X178600000Y-53200000D02*
G75*
G03X178600000Y-53200000I-2500000J0D01*
G01*
X178200000Y-147100000D02*
G75*
G03X178200000Y-147100000I-2500000J0D01*
G01*
X229200000Y-146800000D02*
G75*
G03X229200000Y-146800000I-2500000J0D01*
G01*
X229100000Y-52900000D02*
G75*
G03X229100000Y-52900000I-2500000J0D01*
G01*
X211757143Y-104766666D02*
X211804762Y-104814285D01*
X211852381Y-104957142D01*
X211852381Y-105052380D01*
X211804762Y-105195238D01*
X211709524Y-105290476D01*
X211614286Y-105338095D01*
X211423810Y-105385714D01*
X211280952Y-105385714D01*
X211090476Y-105338095D01*
X210995238Y-105290476D01*
X210900000Y-105195238D01*
X210852381Y-105052380D01*
X210852381Y-104957142D01*
X210900000Y-104814285D01*
X210947619Y-104766666D01*
X210852381Y-103909523D02*
X210852381Y-104100000D01*
X210900000Y-104195238D01*
X210947619Y-104242857D01*
X211090476Y-104338095D01*
X211280952Y-104385714D01*
X211661905Y-104385714D01*
X211757143Y-104338095D01*
X211804762Y-104290476D01*
X211852381Y-104195238D01*
X211852381Y-104004761D01*
X211804762Y-103909523D01*
X211757143Y-103861904D01*
X211661905Y-103814285D01*
X211423810Y-103814285D01*
X211328571Y-103861904D01*
X211280952Y-103909523D01*
X211233333Y-104004761D01*
X211233333Y-104195238D01*
X211280952Y-104290476D01*
X211328571Y-104338095D01*
X211423810Y-104385714D01*
X196302381Y-95588095D02*
X195302381Y-95588095D01*
X195302381Y-95350000D01*
X195350000Y-95207142D01*
X195445238Y-95111904D01*
X195540476Y-95064285D01*
X195730952Y-95016666D01*
X195873810Y-95016666D01*
X196064286Y-95064285D01*
X196159524Y-95111904D01*
X196254762Y-95207142D01*
X196302381Y-95350000D01*
X196302381Y-95588095D01*
X195302381Y-94683333D02*
X195302381Y-94016666D01*
X196302381Y-94445238D01*
X196861905Y-91352381D02*
X196861905Y-90352381D01*
X197100000Y-90352381D01*
X197242858Y-90400000D01*
X197338096Y-90495238D01*
X197385715Y-90590476D01*
X197433334Y-90780952D01*
X197433334Y-90923810D01*
X197385715Y-91114286D01*
X197338096Y-91209524D01*
X197242858Y-91304762D01*
X197100000Y-91352381D01*
X196861905Y-91352381D01*
X198004762Y-90780952D02*
X197909524Y-90733333D01*
X197861905Y-90685714D01*
X197814286Y-90590476D01*
X197814286Y-90542857D01*
X197861905Y-90447619D01*
X197909524Y-90400000D01*
X198004762Y-90352381D01*
X198195239Y-90352381D01*
X198290477Y-90400000D01*
X198338096Y-90447619D01*
X198385715Y-90542857D01*
X198385715Y-90590476D01*
X198338096Y-90685714D01*
X198290477Y-90733333D01*
X198195239Y-90780952D01*
X198004762Y-90780952D01*
X197909524Y-90828571D01*
X197861905Y-90876190D01*
X197814286Y-90971429D01*
X197814286Y-91161905D01*
X197861905Y-91257143D01*
X197909524Y-91304762D01*
X198004762Y-91352381D01*
X198195239Y-91352381D01*
X198290477Y-91304762D01*
X198338096Y-91257143D01*
X198385715Y-91161905D01*
X198385715Y-90971429D01*
X198338096Y-90876190D01*
X198290477Y-90828571D01*
X198195239Y-90780952D01*
X199052381Y-106038095D02*
X198052381Y-106038095D01*
X198052381Y-105800000D01*
X198100000Y-105657142D01*
X198195238Y-105561904D01*
X198290476Y-105514285D01*
X198480952Y-105466666D01*
X198623810Y-105466666D01*
X198814286Y-105514285D01*
X198909524Y-105561904D01*
X199004762Y-105657142D01*
X199052381Y-105800000D01*
X199052381Y-106038095D01*
X199052381Y-104990476D02*
X199052381Y-104800000D01*
X199004762Y-104704761D01*
X198957143Y-104657142D01*
X198814286Y-104561904D01*
X198623810Y-104514285D01*
X198242857Y-104514285D01*
X198147619Y-104561904D01*
X198100000Y-104609523D01*
X198052381Y-104704761D01*
X198052381Y-104895238D01*
X198100000Y-104990476D01*
X198147619Y-105038095D01*
X198242857Y-105085714D01*
X198480952Y-105085714D01*
X198576190Y-105038095D01*
X198623810Y-104990476D01*
X198671429Y-104895238D01*
X198671429Y-104704761D01*
X198623810Y-104609523D01*
X198576190Y-104561904D01*
X198480952Y-104514285D01*
X202852381Y-111314286D02*
X201852381Y-111314286D01*
X201852381Y-111076191D01*
X201900000Y-110933333D01*
X201995238Y-110838095D01*
X202090476Y-110790476D01*
X202280952Y-110742857D01*
X202423810Y-110742857D01*
X202614286Y-110790476D01*
X202709524Y-110838095D01*
X202804762Y-110933333D01*
X202852381Y-111076191D01*
X202852381Y-111314286D01*
X202852381Y-109790476D02*
X202852381Y-110361905D01*
X202852381Y-110076191D02*
X201852381Y-110076191D01*
X201995238Y-110171429D01*
X202090476Y-110266667D01*
X202138095Y-110361905D01*
X201852381Y-109171429D02*
X201852381Y-109076190D01*
X201900000Y-108980952D01*
X201947619Y-108933333D01*
X202042857Y-108885714D01*
X202233333Y-108838095D01*
X202471429Y-108838095D01*
X202661905Y-108885714D01*
X202757143Y-108933333D01*
X202804762Y-108980952D01*
X202852381Y-109076190D01*
X202852381Y-109171429D01*
X202804762Y-109266667D01*
X202757143Y-109314286D01*
X202661905Y-109361905D01*
X202471429Y-109409524D01*
X202233333Y-109409524D01*
X202042857Y-109361905D01*
X201947619Y-109314286D01*
X201900000Y-109266667D01*
X201852381Y-109171429D01*
X202752381Y-136240476D02*
X201752381Y-136240476D01*
X201752381Y-136002381D01*
X201800000Y-135859523D01*
X201895238Y-135764285D01*
X201990476Y-135716666D01*
X202180952Y-135669047D01*
X202323810Y-135669047D01*
X202514286Y-135716666D01*
X202609524Y-135764285D01*
X202704762Y-135859523D01*
X202752381Y-136002381D01*
X202752381Y-136240476D01*
X202752381Y-134716666D02*
X202752381Y-135288095D01*
X202752381Y-135002381D02*
X201752381Y-135002381D01*
X201895238Y-135097619D01*
X201990476Y-135192857D01*
X202038095Y-135288095D01*
X201752381Y-134097619D02*
X201752381Y-134002380D01*
X201800000Y-133907142D01*
X201847619Y-133859523D01*
X201942857Y-133811904D01*
X202133333Y-133764285D01*
X202371429Y-133764285D01*
X202561905Y-133811904D01*
X202657143Y-133859523D01*
X202704762Y-133907142D01*
X202752381Y-134002380D01*
X202752381Y-134097619D01*
X202704762Y-134192857D01*
X202657143Y-134240476D01*
X202561905Y-134288095D01*
X202371429Y-134335714D01*
X202133333Y-134335714D01*
X201942857Y-134288095D01*
X201847619Y-134240476D01*
X201800000Y-134192857D01*
X201752381Y-134097619D01*
X202752381Y-132811904D02*
X202752381Y-133383333D01*
X202752381Y-133097619D02*
X201752381Y-133097619D01*
X201895238Y-133192857D01*
X201990476Y-133288095D01*
X202038095Y-133383333D01*
X201752381Y-131290476D02*
X200752381Y-131290476D01*
X200752381Y-131052381D01*
X200800000Y-130909523D01*
X200895238Y-130814285D01*
X200990476Y-130766666D01*
X201180952Y-130719047D01*
X201323810Y-130719047D01*
X201514286Y-130766666D01*
X201609524Y-130814285D01*
X201704762Y-130909523D01*
X201752381Y-131052381D01*
X201752381Y-131290476D01*
X201752381Y-129766666D02*
X201752381Y-130338095D01*
X201752381Y-130052381D02*
X200752381Y-130052381D01*
X200895238Y-130147619D01*
X200990476Y-130242857D01*
X201038095Y-130338095D01*
X200752381Y-129147619D02*
X200752381Y-129052380D01*
X200800000Y-128957142D01*
X200847619Y-128909523D01*
X200942857Y-128861904D01*
X201133333Y-128814285D01*
X201371429Y-128814285D01*
X201561905Y-128861904D01*
X201657143Y-128909523D01*
X201704762Y-128957142D01*
X201752381Y-129052380D01*
X201752381Y-129147619D01*
X201704762Y-129242857D01*
X201657143Y-129290476D01*
X201561905Y-129338095D01*
X201371429Y-129385714D01*
X201133333Y-129385714D01*
X200942857Y-129338095D01*
X200847619Y-129290476D01*
X200800000Y-129242857D01*
X200752381Y-129147619D01*
X200847619Y-128433333D02*
X200800000Y-128385714D01*
X200752381Y-128290476D01*
X200752381Y-128052380D01*
X200800000Y-127957142D01*
X200847619Y-127909523D01*
X200942857Y-127861904D01*
X201038095Y-127861904D01*
X201180952Y-127909523D01*
X201752381Y-128480952D01*
X201752381Y-127861904D01*
X217352381Y-124390476D02*
X216352381Y-124390476D01*
X216352381Y-124152381D01*
X216400000Y-124009523D01*
X216495238Y-123914285D01*
X216590476Y-123866666D01*
X216780952Y-123819047D01*
X216923810Y-123819047D01*
X217114286Y-123866666D01*
X217209524Y-123914285D01*
X217304762Y-124009523D01*
X217352381Y-124152381D01*
X217352381Y-124390476D01*
X217352381Y-122866666D02*
X217352381Y-123438095D01*
X217352381Y-123152381D02*
X216352381Y-123152381D01*
X216495238Y-123247619D01*
X216590476Y-123342857D01*
X216638095Y-123438095D01*
X216352381Y-122247619D02*
X216352381Y-122152380D01*
X216400000Y-122057142D01*
X216447619Y-122009523D01*
X216542857Y-121961904D01*
X216733333Y-121914285D01*
X216971429Y-121914285D01*
X217161905Y-121961904D01*
X217257143Y-122009523D01*
X217304762Y-122057142D01*
X217352381Y-122152380D01*
X217352381Y-122247619D01*
X217304762Y-122342857D01*
X217257143Y-122390476D01*
X217161905Y-122438095D01*
X216971429Y-122485714D01*
X216733333Y-122485714D01*
X216542857Y-122438095D01*
X216447619Y-122390476D01*
X216400000Y-122342857D01*
X216352381Y-122247619D01*
X216352381Y-121580952D02*
X216352381Y-120961904D01*
X216733333Y-121295238D01*
X216733333Y-121152380D01*
X216780952Y-121057142D01*
X216828571Y-121009523D01*
X216923810Y-120961904D01*
X217161905Y-120961904D01*
X217257143Y-121009523D01*
X217304762Y-121057142D01*
X217352381Y-121152380D01*
X217352381Y-121438095D01*
X217304762Y-121533333D01*
X217257143Y-121580952D01*
X214952381Y-123540476D02*
X213952381Y-123540476D01*
X213952381Y-123302381D01*
X214000000Y-123159523D01*
X214095238Y-123064285D01*
X214190476Y-123016666D01*
X214380952Y-122969047D01*
X214523810Y-122969047D01*
X214714286Y-123016666D01*
X214809524Y-123064285D01*
X214904762Y-123159523D01*
X214952381Y-123302381D01*
X214952381Y-123540476D01*
X214952381Y-122016666D02*
X214952381Y-122588095D01*
X214952381Y-122302381D02*
X213952381Y-122302381D01*
X214095238Y-122397619D01*
X214190476Y-122492857D01*
X214238095Y-122588095D01*
X213952381Y-121397619D02*
X213952381Y-121302380D01*
X214000000Y-121207142D01*
X214047619Y-121159523D01*
X214142857Y-121111904D01*
X214333333Y-121064285D01*
X214571429Y-121064285D01*
X214761905Y-121111904D01*
X214857143Y-121159523D01*
X214904762Y-121207142D01*
X214952381Y-121302380D01*
X214952381Y-121397619D01*
X214904762Y-121492857D01*
X214857143Y-121540476D01*
X214761905Y-121588095D01*
X214571429Y-121635714D01*
X214333333Y-121635714D01*
X214142857Y-121588095D01*
X214047619Y-121540476D01*
X214000000Y-121492857D01*
X213952381Y-121397619D01*
X214285714Y-120207142D02*
X214952381Y-120207142D01*
X213904762Y-120445238D02*
X214619048Y-120683333D01*
X214619048Y-120064285D01*
X213402381Y-139040476D02*
X212402381Y-139040476D01*
X212402381Y-138802381D01*
X212450000Y-138659523D01*
X212545238Y-138564285D01*
X212640476Y-138516666D01*
X212830952Y-138469047D01*
X212973810Y-138469047D01*
X213164286Y-138516666D01*
X213259524Y-138564285D01*
X213354762Y-138659523D01*
X213402381Y-138802381D01*
X213402381Y-139040476D01*
X213402381Y-137516666D02*
X213402381Y-138088095D01*
X213402381Y-137802381D02*
X212402381Y-137802381D01*
X212545238Y-137897619D01*
X212640476Y-137992857D01*
X212688095Y-138088095D01*
X212402381Y-136897619D02*
X212402381Y-136802380D01*
X212450000Y-136707142D01*
X212497619Y-136659523D01*
X212592857Y-136611904D01*
X212783333Y-136564285D01*
X213021429Y-136564285D01*
X213211905Y-136611904D01*
X213307143Y-136659523D01*
X213354762Y-136707142D01*
X213402381Y-136802380D01*
X213402381Y-136897619D01*
X213354762Y-136992857D01*
X213307143Y-137040476D01*
X213211905Y-137088095D01*
X213021429Y-137135714D01*
X212783333Y-137135714D01*
X212592857Y-137088095D01*
X212497619Y-137040476D01*
X212450000Y-136992857D01*
X212402381Y-136897619D01*
X212402381Y-135659523D02*
X212402381Y-136135714D01*
X212878571Y-136183333D01*
X212830952Y-136135714D01*
X212783333Y-136040476D01*
X212783333Y-135802380D01*
X212830952Y-135707142D01*
X212878571Y-135659523D01*
X212973810Y-135611904D01*
X213211905Y-135611904D01*
X213307143Y-135659523D01*
X213354762Y-135707142D01*
X213402381Y-135802380D01*
X213402381Y-136040476D01*
X213354762Y-136135714D01*
X213307143Y-136183333D01*
X211002381Y-136490476D02*
X210002381Y-136490476D01*
X210002381Y-136252381D01*
X210050000Y-136109523D01*
X210145238Y-136014285D01*
X210240476Y-135966666D01*
X210430952Y-135919047D01*
X210573810Y-135919047D01*
X210764286Y-135966666D01*
X210859524Y-136014285D01*
X210954762Y-136109523D01*
X211002381Y-136252381D01*
X211002381Y-136490476D01*
X211002381Y-134966666D02*
X211002381Y-135538095D01*
X211002381Y-135252381D02*
X210002381Y-135252381D01*
X210145238Y-135347619D01*
X210240476Y-135442857D01*
X210288095Y-135538095D01*
X210002381Y-134347619D02*
X210002381Y-134252380D01*
X210050000Y-134157142D01*
X210097619Y-134109523D01*
X210192857Y-134061904D01*
X210383333Y-134014285D01*
X210621429Y-134014285D01*
X210811905Y-134061904D01*
X210907143Y-134109523D01*
X210954762Y-134157142D01*
X211002381Y-134252380D01*
X211002381Y-134347619D01*
X210954762Y-134442857D01*
X210907143Y-134490476D01*
X210811905Y-134538095D01*
X210621429Y-134585714D01*
X210383333Y-134585714D01*
X210192857Y-134538095D01*
X210097619Y-134490476D01*
X210050000Y-134442857D01*
X210002381Y-134347619D01*
X210002381Y-133157142D02*
X210002381Y-133347619D01*
X210050000Y-133442857D01*
X210097619Y-133490476D01*
X210240476Y-133585714D01*
X210430952Y-133633333D01*
X210811905Y-133633333D01*
X210907143Y-133585714D01*
X210954762Y-133538095D01*
X211002381Y-133442857D01*
X211002381Y-133252380D01*
X210954762Y-133157142D01*
X210907143Y-133109523D01*
X210811905Y-133061904D01*
X210573810Y-133061904D01*
X210478571Y-133109523D01*
X210430952Y-133157142D01*
X210383333Y-133252380D01*
X210383333Y-133442857D01*
X210430952Y-133538095D01*
X210478571Y-133585714D01*
X210573810Y-133633333D01*
X172514286Y-99602381D02*
X172514286Y-100316667D01*
X172466666Y-100459524D01*
X172371428Y-100554762D01*
X172228571Y-100602381D01*
X172133333Y-100602381D01*
X173514286Y-100602381D02*
X172942857Y-100602381D01*
X173228571Y-100602381D02*
X173228571Y-99602381D01*
X173133333Y-99745238D01*
X173038095Y-99840476D01*
X172942857Y-99888095D01*
X174133333Y-99602381D02*
X174228572Y-99602381D01*
X174323810Y-99650000D01*
X174371429Y-99697619D01*
X174419048Y-99792857D01*
X174466667Y-99983333D01*
X174466667Y-100221429D01*
X174419048Y-100411905D01*
X174371429Y-100507143D01*
X174323810Y-100554762D01*
X174228572Y-100602381D01*
X174133333Y-100602381D01*
X174038095Y-100554762D01*
X173990476Y-100507143D01*
X173942857Y-100411905D01*
X173895238Y-100221429D01*
X173895238Y-99983333D01*
X173942857Y-99792857D01*
X173990476Y-99697619D01*
X174038095Y-99650000D01*
X174133333Y-99602381D01*
X174847619Y-99697619D02*
X174895238Y-99650000D01*
X174990476Y-99602381D01*
X175228572Y-99602381D01*
X175323810Y-99650000D01*
X175371429Y-99697619D01*
X175419048Y-99792857D01*
X175419048Y-99888095D01*
X175371429Y-100030952D01*
X174800000Y-100602381D01*
X175419048Y-100602381D01*
X203447619Y-93071428D02*
X203400000Y-93166666D01*
X203304762Y-93261904D01*
X203161905Y-93404761D01*
X203114286Y-93500000D01*
X203114286Y-93595238D01*
X203352381Y-93547619D02*
X203304762Y-93642857D01*
X203209524Y-93738095D01*
X203019048Y-93785714D01*
X202685714Y-93785714D01*
X202495238Y-93738095D01*
X202400000Y-93642857D01*
X202352381Y-93547619D01*
X202352381Y-93357142D01*
X202400000Y-93261904D01*
X202495238Y-93166666D01*
X202685714Y-93119047D01*
X203019048Y-93119047D01*
X203209524Y-93166666D01*
X203304762Y-93261904D01*
X203352381Y-93357142D01*
X203352381Y-93547619D01*
X202447619Y-92738095D02*
X202400000Y-92690476D01*
X202352381Y-92595238D01*
X202352381Y-92357142D01*
X202400000Y-92261904D01*
X202447619Y-92214285D01*
X202542857Y-92166666D01*
X202638095Y-92166666D01*
X202780952Y-92214285D01*
X203352381Y-92785714D01*
X203352381Y-92166666D01*
X202447619Y-91785714D02*
X202400000Y-91738095D01*
X202352381Y-91642857D01*
X202352381Y-91404761D01*
X202400000Y-91309523D01*
X202447619Y-91261904D01*
X202542857Y-91214285D01*
X202638095Y-91214285D01*
X202780952Y-91261904D01*
X203352381Y-91833333D01*
X203352381Y-91214285D01*
X198578572Y-89047619D02*
X198483334Y-89000000D01*
X198388096Y-88904762D01*
X198245239Y-88761905D01*
X198150000Y-88714286D01*
X198054762Y-88714286D01*
X198102381Y-88952381D02*
X198007143Y-88904762D01*
X197911905Y-88809524D01*
X197864286Y-88619048D01*
X197864286Y-88285714D01*
X197911905Y-88095238D01*
X198007143Y-88000000D01*
X198102381Y-87952381D01*
X198292858Y-87952381D01*
X198388096Y-88000000D01*
X198483334Y-88095238D01*
X198530953Y-88285714D01*
X198530953Y-88619048D01*
X198483334Y-88809524D01*
X198388096Y-88904762D01*
X198292858Y-88952381D01*
X198102381Y-88952381D01*
X198911905Y-88047619D02*
X198959524Y-88000000D01*
X199054762Y-87952381D01*
X199292858Y-87952381D01*
X199388096Y-88000000D01*
X199435715Y-88047619D01*
X199483334Y-88142857D01*
X199483334Y-88238095D01*
X199435715Y-88380952D01*
X198864286Y-88952381D01*
X199483334Y-88952381D01*
X199816667Y-87952381D02*
X200435715Y-87952381D01*
X200102381Y-88333333D01*
X200245239Y-88333333D01*
X200340477Y-88380952D01*
X200388096Y-88428571D01*
X200435715Y-88523810D01*
X200435715Y-88761905D01*
X200388096Y-88857143D01*
X200340477Y-88904762D01*
X200245239Y-88952381D01*
X199959524Y-88952381D01*
X199864286Y-88904762D01*
X199816667Y-88857143D01*
X193797619Y-90221428D02*
X193750000Y-90316666D01*
X193654762Y-90411904D01*
X193511905Y-90554761D01*
X193464286Y-90650000D01*
X193464286Y-90745238D01*
X193702381Y-90697619D02*
X193654762Y-90792857D01*
X193559524Y-90888095D01*
X193369048Y-90935714D01*
X193035714Y-90935714D01*
X192845238Y-90888095D01*
X192750000Y-90792857D01*
X192702381Y-90697619D01*
X192702381Y-90507142D01*
X192750000Y-90411904D01*
X192845238Y-90316666D01*
X193035714Y-90269047D01*
X193369048Y-90269047D01*
X193559524Y-90316666D01*
X193654762Y-90411904D01*
X193702381Y-90507142D01*
X193702381Y-90697619D01*
X192797619Y-89888095D02*
X192750000Y-89840476D01*
X192702381Y-89745238D01*
X192702381Y-89507142D01*
X192750000Y-89411904D01*
X192797619Y-89364285D01*
X192892857Y-89316666D01*
X192988095Y-89316666D01*
X193130952Y-89364285D01*
X193702381Y-89935714D01*
X193702381Y-89316666D01*
X192702381Y-88411904D02*
X192702381Y-88888095D01*
X193178571Y-88935714D01*
X193130952Y-88888095D01*
X193083333Y-88792857D01*
X193083333Y-88554761D01*
X193130952Y-88459523D01*
X193178571Y-88411904D01*
X193273810Y-88364285D01*
X193511905Y-88364285D01*
X193607143Y-88411904D01*
X193654762Y-88459523D01*
X193702381Y-88554761D01*
X193702381Y-88792857D01*
X193654762Y-88888095D01*
X193607143Y-88935714D01*
X206578572Y-86247619D02*
X206483334Y-86200000D01*
X206388096Y-86104762D01*
X206245239Y-85961905D01*
X206150000Y-85914286D01*
X206054762Y-85914286D01*
X206102381Y-86152381D02*
X206007143Y-86104762D01*
X205911905Y-86009524D01*
X205864286Y-85819048D01*
X205864286Y-85485714D01*
X205911905Y-85295238D01*
X206007143Y-85200000D01*
X206102381Y-85152381D01*
X206292858Y-85152381D01*
X206388096Y-85200000D01*
X206483334Y-85295238D01*
X206530953Y-85485714D01*
X206530953Y-85819048D01*
X206483334Y-86009524D01*
X206388096Y-86104762D01*
X206292858Y-86152381D01*
X206102381Y-86152381D01*
X206911905Y-85247619D02*
X206959524Y-85200000D01*
X207054762Y-85152381D01*
X207292858Y-85152381D01*
X207388096Y-85200000D01*
X207435715Y-85247619D01*
X207483334Y-85342857D01*
X207483334Y-85438095D01*
X207435715Y-85580952D01*
X206864286Y-86152381D01*
X207483334Y-86152381D01*
X208340477Y-85152381D02*
X208150000Y-85152381D01*
X208054762Y-85200000D01*
X208007143Y-85247619D01*
X207911905Y-85390476D01*
X207864286Y-85580952D01*
X207864286Y-85961905D01*
X207911905Y-86057143D01*
X207959524Y-86104762D01*
X208054762Y-86152381D01*
X208245239Y-86152381D01*
X208340477Y-86104762D01*
X208388096Y-86057143D01*
X208435715Y-85961905D01*
X208435715Y-85723810D01*
X208388096Y-85628571D01*
X208340477Y-85580952D01*
X208245239Y-85533333D01*
X208054762Y-85533333D01*
X207959524Y-85580952D01*
X207911905Y-85628571D01*
X207864286Y-85723810D01*
X207578572Y-89747619D02*
X207483334Y-89700000D01*
X207388096Y-89604762D01*
X207245239Y-89461905D01*
X207150000Y-89414286D01*
X207054762Y-89414286D01*
X207102381Y-89652381D02*
X207007143Y-89604762D01*
X206911905Y-89509524D01*
X206864286Y-89319048D01*
X206864286Y-88985714D01*
X206911905Y-88795238D01*
X207007143Y-88700000D01*
X207102381Y-88652381D01*
X207292858Y-88652381D01*
X207388096Y-88700000D01*
X207483334Y-88795238D01*
X207530953Y-88985714D01*
X207530953Y-89319048D01*
X207483334Y-89509524D01*
X207388096Y-89604762D01*
X207292858Y-89652381D01*
X207102381Y-89652381D01*
X207911905Y-88747619D02*
X207959524Y-88700000D01*
X208054762Y-88652381D01*
X208292858Y-88652381D01*
X208388096Y-88700000D01*
X208435715Y-88747619D01*
X208483334Y-88842857D01*
X208483334Y-88938095D01*
X208435715Y-89080952D01*
X207864286Y-89652381D01*
X208483334Y-89652381D01*
X208816667Y-88652381D02*
X209483334Y-88652381D01*
X209054762Y-89652381D01*
X213878572Y-87447619D02*
X213783334Y-87400000D01*
X213688096Y-87304762D01*
X213545239Y-87161905D01*
X213450000Y-87114286D01*
X213354762Y-87114286D01*
X213402381Y-87352381D02*
X213307143Y-87304762D01*
X213211905Y-87209524D01*
X213164286Y-87019048D01*
X213164286Y-86685714D01*
X213211905Y-86495238D01*
X213307143Y-86400000D01*
X213402381Y-86352381D01*
X213592858Y-86352381D01*
X213688096Y-86400000D01*
X213783334Y-86495238D01*
X213830953Y-86685714D01*
X213830953Y-87019048D01*
X213783334Y-87209524D01*
X213688096Y-87304762D01*
X213592858Y-87352381D01*
X213402381Y-87352381D01*
X214211905Y-86447619D02*
X214259524Y-86400000D01*
X214354762Y-86352381D01*
X214592858Y-86352381D01*
X214688096Y-86400000D01*
X214735715Y-86447619D01*
X214783334Y-86542857D01*
X214783334Y-86638095D01*
X214735715Y-86780952D01*
X214164286Y-87352381D01*
X214783334Y-87352381D01*
X215354762Y-86780952D02*
X215259524Y-86733333D01*
X215211905Y-86685714D01*
X215164286Y-86590476D01*
X215164286Y-86542857D01*
X215211905Y-86447619D01*
X215259524Y-86400000D01*
X215354762Y-86352381D01*
X215545239Y-86352381D01*
X215640477Y-86400000D01*
X215688096Y-86447619D01*
X215735715Y-86542857D01*
X215735715Y-86590476D01*
X215688096Y-86685714D01*
X215640477Y-86733333D01*
X215545239Y-86780952D01*
X215354762Y-86780952D01*
X215259524Y-86828571D01*
X215211905Y-86876190D01*
X215164286Y-86971429D01*
X215164286Y-87161905D01*
X215211905Y-87257143D01*
X215259524Y-87304762D01*
X215354762Y-87352381D01*
X215545239Y-87352381D01*
X215640477Y-87304762D01*
X215688096Y-87257143D01*
X215735715Y-87161905D01*
X215735715Y-86971429D01*
X215688096Y-86876190D01*
X215640477Y-86828571D01*
X215545239Y-86780952D01*
X226547619Y-90071428D02*
X226500000Y-90166666D01*
X226404762Y-90261904D01*
X226261905Y-90404761D01*
X226214286Y-90500000D01*
X226214286Y-90595238D01*
X226452381Y-90547619D02*
X226404762Y-90642857D01*
X226309524Y-90738095D01*
X226119048Y-90785714D01*
X225785714Y-90785714D01*
X225595238Y-90738095D01*
X225500000Y-90642857D01*
X225452381Y-90547619D01*
X225452381Y-90357142D01*
X225500000Y-90261904D01*
X225595238Y-90166666D01*
X225785714Y-90119047D01*
X226119048Y-90119047D01*
X226309524Y-90166666D01*
X226404762Y-90261904D01*
X226452381Y-90357142D01*
X226452381Y-90547619D01*
X225547619Y-89738095D02*
X225500000Y-89690476D01*
X225452381Y-89595238D01*
X225452381Y-89357142D01*
X225500000Y-89261904D01*
X225547619Y-89214285D01*
X225642857Y-89166666D01*
X225738095Y-89166666D01*
X225880952Y-89214285D01*
X226452381Y-89785714D01*
X226452381Y-89166666D01*
X226452381Y-88690476D02*
X226452381Y-88500000D01*
X226404762Y-88404761D01*
X226357143Y-88357142D01*
X226214286Y-88261904D01*
X226023810Y-88214285D01*
X225642857Y-88214285D01*
X225547619Y-88261904D01*
X225500000Y-88309523D01*
X225452381Y-88404761D01*
X225452381Y-88595238D01*
X225500000Y-88690476D01*
X225547619Y-88738095D01*
X225642857Y-88785714D01*
X225880952Y-88785714D01*
X225976190Y-88738095D01*
X226023810Y-88690476D01*
X226071429Y-88595238D01*
X226071429Y-88404761D01*
X226023810Y-88309523D01*
X225976190Y-88261904D01*
X225880952Y-88214285D01*
X199347619Y-112371428D02*
X199300000Y-112466666D01*
X199204762Y-112561904D01*
X199061905Y-112704761D01*
X199014286Y-112800000D01*
X199014286Y-112895238D01*
X199252381Y-112847619D02*
X199204762Y-112942857D01*
X199109524Y-113038095D01*
X198919048Y-113085714D01*
X198585714Y-113085714D01*
X198395238Y-113038095D01*
X198300000Y-112942857D01*
X198252381Y-112847619D01*
X198252381Y-112657142D01*
X198300000Y-112561904D01*
X198395238Y-112466666D01*
X198585714Y-112419047D01*
X198919048Y-112419047D01*
X199109524Y-112466666D01*
X199204762Y-112561904D01*
X199252381Y-112657142D01*
X199252381Y-112847619D01*
X198252381Y-112085714D02*
X198252381Y-111466666D01*
X198633333Y-111800000D01*
X198633333Y-111657142D01*
X198680952Y-111561904D01*
X198728571Y-111514285D01*
X198823810Y-111466666D01*
X199061905Y-111466666D01*
X199157143Y-111514285D01*
X199204762Y-111561904D01*
X199252381Y-111657142D01*
X199252381Y-111942857D01*
X199204762Y-112038095D01*
X199157143Y-112085714D01*
X199252381Y-110514285D02*
X199252381Y-111085714D01*
X199252381Y-110800000D02*
X198252381Y-110800000D01*
X198395238Y-110895238D01*
X198490476Y-110990476D01*
X198538095Y-111085714D01*
X196147619Y-112471428D02*
X196100000Y-112566666D01*
X196004762Y-112661904D01*
X195861905Y-112804761D01*
X195814286Y-112900000D01*
X195814286Y-112995238D01*
X196052381Y-112947619D02*
X196004762Y-113042857D01*
X195909524Y-113138095D01*
X195719048Y-113185714D01*
X195385714Y-113185714D01*
X195195238Y-113138095D01*
X195100000Y-113042857D01*
X195052381Y-112947619D01*
X195052381Y-112757142D01*
X195100000Y-112661904D01*
X195195238Y-112566666D01*
X195385714Y-112519047D01*
X195719048Y-112519047D01*
X195909524Y-112566666D01*
X196004762Y-112661904D01*
X196052381Y-112757142D01*
X196052381Y-112947619D01*
X195052381Y-112185714D02*
X195052381Y-111566666D01*
X195433333Y-111900000D01*
X195433333Y-111757142D01*
X195480952Y-111661904D01*
X195528571Y-111614285D01*
X195623810Y-111566666D01*
X195861905Y-111566666D01*
X195957143Y-111614285D01*
X196004762Y-111661904D01*
X196052381Y-111757142D01*
X196052381Y-112042857D01*
X196004762Y-112138095D01*
X195957143Y-112185714D01*
X195147619Y-111185714D02*
X195100000Y-111138095D01*
X195052381Y-111042857D01*
X195052381Y-110804761D01*
X195100000Y-110709523D01*
X195147619Y-110661904D01*
X195242857Y-110614285D01*
X195338095Y-110614285D01*
X195480952Y-110661904D01*
X196052381Y-111233333D01*
X196052381Y-110614285D01*
X192647619Y-109971428D02*
X192600000Y-110066666D01*
X192504762Y-110161904D01*
X192361905Y-110304761D01*
X192314286Y-110400000D01*
X192314286Y-110495238D01*
X192552381Y-110447619D02*
X192504762Y-110542857D01*
X192409524Y-110638095D01*
X192219048Y-110685714D01*
X191885714Y-110685714D01*
X191695238Y-110638095D01*
X191600000Y-110542857D01*
X191552381Y-110447619D01*
X191552381Y-110257142D01*
X191600000Y-110161904D01*
X191695238Y-110066666D01*
X191885714Y-110019047D01*
X192219048Y-110019047D01*
X192409524Y-110066666D01*
X192504762Y-110161904D01*
X192552381Y-110257142D01*
X192552381Y-110447619D01*
X191552381Y-109685714D02*
X191552381Y-109066666D01*
X191933333Y-109400000D01*
X191933333Y-109257142D01*
X191980952Y-109161904D01*
X192028571Y-109114285D01*
X192123810Y-109066666D01*
X192361905Y-109066666D01*
X192457143Y-109114285D01*
X192504762Y-109161904D01*
X192552381Y-109257142D01*
X192552381Y-109542857D01*
X192504762Y-109638095D01*
X192457143Y-109685714D01*
X191552381Y-108733333D02*
X191552381Y-108114285D01*
X191933333Y-108447619D01*
X191933333Y-108304761D01*
X191980952Y-108209523D01*
X192028571Y-108161904D01*
X192123810Y-108114285D01*
X192361905Y-108114285D01*
X192457143Y-108161904D01*
X192504762Y-108209523D01*
X192552381Y-108304761D01*
X192552381Y-108590476D01*
X192504762Y-108685714D01*
X192457143Y-108733333D01*
X211847619Y-112421428D02*
X211800000Y-112516666D01*
X211704762Y-112611904D01*
X211561905Y-112754761D01*
X211514286Y-112850000D01*
X211514286Y-112945238D01*
X211752381Y-112897619D02*
X211704762Y-112992857D01*
X211609524Y-113088095D01*
X211419048Y-113135714D01*
X211085714Y-113135714D01*
X210895238Y-113088095D01*
X210800000Y-112992857D01*
X210752381Y-112897619D01*
X210752381Y-112707142D01*
X210800000Y-112611904D01*
X210895238Y-112516666D01*
X211085714Y-112469047D01*
X211419048Y-112469047D01*
X211609524Y-112516666D01*
X211704762Y-112611904D01*
X211752381Y-112707142D01*
X211752381Y-112897619D01*
X210752381Y-112135714D02*
X210752381Y-111516666D01*
X211133333Y-111850000D01*
X211133333Y-111707142D01*
X211180952Y-111611904D01*
X211228571Y-111564285D01*
X211323810Y-111516666D01*
X211561905Y-111516666D01*
X211657143Y-111564285D01*
X211704762Y-111611904D01*
X211752381Y-111707142D01*
X211752381Y-111992857D01*
X211704762Y-112088095D01*
X211657143Y-112135714D01*
X211085714Y-110659523D02*
X211752381Y-110659523D01*
X210704762Y-110897619D02*
X211419048Y-111135714D01*
X211419048Y-110516666D01*
X208347619Y-112621428D02*
X208300000Y-112716666D01*
X208204762Y-112811904D01*
X208061905Y-112954761D01*
X208014286Y-113050000D01*
X208014286Y-113145238D01*
X208252381Y-113097619D02*
X208204762Y-113192857D01*
X208109524Y-113288095D01*
X207919048Y-113335714D01*
X207585714Y-113335714D01*
X207395238Y-113288095D01*
X207300000Y-113192857D01*
X207252381Y-113097619D01*
X207252381Y-112907142D01*
X207300000Y-112811904D01*
X207395238Y-112716666D01*
X207585714Y-112669047D01*
X207919048Y-112669047D01*
X208109524Y-112716666D01*
X208204762Y-112811904D01*
X208252381Y-112907142D01*
X208252381Y-113097619D01*
X207252381Y-112335714D02*
X207252381Y-111716666D01*
X207633333Y-112050000D01*
X207633333Y-111907142D01*
X207680952Y-111811904D01*
X207728571Y-111764285D01*
X207823810Y-111716666D01*
X208061905Y-111716666D01*
X208157143Y-111764285D01*
X208204762Y-111811904D01*
X208252381Y-111907142D01*
X208252381Y-112192857D01*
X208204762Y-112288095D01*
X208157143Y-112335714D01*
X207252381Y-110811904D02*
X207252381Y-111288095D01*
X207728571Y-111335714D01*
X207680952Y-111288095D01*
X207633333Y-111192857D01*
X207633333Y-110954761D01*
X207680952Y-110859523D01*
X207728571Y-110811904D01*
X207823810Y-110764285D01*
X208061905Y-110764285D01*
X208157143Y-110811904D01*
X208204762Y-110859523D01*
X208252381Y-110954761D01*
X208252381Y-111192857D01*
X208204762Y-111288095D01*
X208157143Y-111335714D01*
X220278572Y-114147619D02*
X220183334Y-114100000D01*
X220088096Y-114004762D01*
X219945239Y-113861905D01*
X219850000Y-113814286D01*
X219754762Y-113814286D01*
X219802381Y-114052381D02*
X219707143Y-114004762D01*
X219611905Y-113909524D01*
X219564286Y-113719048D01*
X219564286Y-113385714D01*
X219611905Y-113195238D01*
X219707143Y-113100000D01*
X219802381Y-113052381D01*
X219992858Y-113052381D01*
X220088096Y-113100000D01*
X220183334Y-113195238D01*
X220230953Y-113385714D01*
X220230953Y-113719048D01*
X220183334Y-113909524D01*
X220088096Y-114004762D01*
X219992858Y-114052381D01*
X219802381Y-114052381D01*
X220564286Y-113052381D02*
X221183334Y-113052381D01*
X220850000Y-113433333D01*
X220992858Y-113433333D01*
X221088096Y-113480952D01*
X221135715Y-113528571D01*
X221183334Y-113623810D01*
X221183334Y-113861905D01*
X221135715Y-113957143D01*
X221088096Y-114004762D01*
X220992858Y-114052381D01*
X220707143Y-114052381D01*
X220611905Y-114004762D01*
X220564286Y-113957143D01*
X222040477Y-113052381D02*
X221850000Y-113052381D01*
X221754762Y-113100000D01*
X221707143Y-113147619D01*
X221611905Y-113290476D01*
X221564286Y-113480952D01*
X221564286Y-113861905D01*
X221611905Y-113957143D01*
X221659524Y-114004762D01*
X221754762Y-114052381D01*
X221945239Y-114052381D01*
X222040477Y-114004762D01*
X222088096Y-113957143D01*
X222135715Y-113861905D01*
X222135715Y-113623810D01*
X222088096Y-113528571D01*
X222040477Y-113480952D01*
X221945239Y-113433333D01*
X221754762Y-113433333D01*
X221659524Y-113480952D01*
X221611905Y-113528571D01*
X221564286Y-113623810D01*
X226747619Y-113921428D02*
X226700000Y-114016666D01*
X226604762Y-114111904D01*
X226461905Y-114254761D01*
X226414286Y-114350000D01*
X226414286Y-114445238D01*
X226652381Y-114397619D02*
X226604762Y-114492857D01*
X226509524Y-114588095D01*
X226319048Y-114635714D01*
X225985714Y-114635714D01*
X225795238Y-114588095D01*
X225700000Y-114492857D01*
X225652381Y-114397619D01*
X225652381Y-114207142D01*
X225700000Y-114111904D01*
X225795238Y-114016666D01*
X225985714Y-113969047D01*
X226319048Y-113969047D01*
X226509524Y-114016666D01*
X226604762Y-114111904D01*
X226652381Y-114207142D01*
X226652381Y-114397619D01*
X225652381Y-113635714D02*
X225652381Y-113016666D01*
X226033333Y-113350000D01*
X226033333Y-113207142D01*
X226080952Y-113111904D01*
X226128571Y-113064285D01*
X226223810Y-113016666D01*
X226461905Y-113016666D01*
X226557143Y-113064285D01*
X226604762Y-113111904D01*
X226652381Y-113207142D01*
X226652381Y-113492857D01*
X226604762Y-113588095D01*
X226557143Y-113635714D01*
X225652381Y-112683333D02*
X225652381Y-112016666D01*
X226652381Y-112445238D01*
X180352381Y-136047619D02*
X180257143Y-136000000D01*
X180161905Y-135904762D01*
X180019048Y-135761905D01*
X179923809Y-135714286D01*
X179828571Y-135714286D01*
X179876190Y-135952381D02*
X179780952Y-135904762D01*
X179685714Y-135809524D01*
X179638095Y-135619048D01*
X179638095Y-135285714D01*
X179685714Y-135095238D01*
X179780952Y-135000000D01*
X179876190Y-134952381D01*
X180066667Y-134952381D01*
X180161905Y-135000000D01*
X180257143Y-135095238D01*
X180304762Y-135285714D01*
X180304762Y-135619048D01*
X180257143Y-135809524D01*
X180161905Y-135904762D01*
X180066667Y-135952381D01*
X179876190Y-135952381D01*
X181257143Y-135952381D02*
X180685714Y-135952381D01*
X180971428Y-135952381D02*
X180971428Y-134952381D01*
X180876190Y-135095238D01*
X180780952Y-135190476D01*
X180685714Y-135238095D01*
X181876190Y-134952381D02*
X181971429Y-134952381D01*
X182066667Y-135000000D01*
X182114286Y-135047619D01*
X182161905Y-135142857D01*
X182209524Y-135333333D01*
X182209524Y-135571429D01*
X182161905Y-135761905D01*
X182114286Y-135857143D01*
X182066667Y-135904762D01*
X181971429Y-135952381D01*
X181876190Y-135952381D01*
X181780952Y-135904762D01*
X181733333Y-135857143D01*
X181685714Y-135761905D01*
X181638095Y-135571429D01*
X181638095Y-135333333D01*
X181685714Y-135142857D01*
X181733333Y-135047619D01*
X181780952Y-135000000D01*
X181876190Y-134952381D01*
X183161905Y-135952381D02*
X182590476Y-135952381D01*
X182876190Y-135952381D02*
X182876190Y-134952381D01*
X182780952Y-135095238D01*
X182685714Y-135190476D01*
X182590476Y-135238095D01*
X188647619Y-122097619D02*
X188600000Y-122192857D01*
X188504762Y-122288095D01*
X188361905Y-122430952D01*
X188314286Y-122526191D01*
X188314286Y-122621429D01*
X188552381Y-122573810D02*
X188504762Y-122669048D01*
X188409524Y-122764286D01*
X188219048Y-122811905D01*
X187885714Y-122811905D01*
X187695238Y-122764286D01*
X187600000Y-122669048D01*
X187552381Y-122573810D01*
X187552381Y-122383333D01*
X187600000Y-122288095D01*
X187695238Y-122192857D01*
X187885714Y-122145238D01*
X188219048Y-122145238D01*
X188409524Y-122192857D01*
X188504762Y-122288095D01*
X188552381Y-122383333D01*
X188552381Y-122573810D01*
X188552381Y-121192857D02*
X188552381Y-121764286D01*
X188552381Y-121478572D02*
X187552381Y-121478572D01*
X187695238Y-121573810D01*
X187790476Y-121669048D01*
X187838095Y-121764286D01*
X187552381Y-120573810D02*
X187552381Y-120478571D01*
X187600000Y-120383333D01*
X187647619Y-120335714D01*
X187742857Y-120288095D01*
X187933333Y-120240476D01*
X188171429Y-120240476D01*
X188361905Y-120288095D01*
X188457143Y-120335714D01*
X188504762Y-120383333D01*
X188552381Y-120478571D01*
X188552381Y-120573810D01*
X188504762Y-120669048D01*
X188457143Y-120716667D01*
X188361905Y-120764286D01*
X188171429Y-120811905D01*
X187933333Y-120811905D01*
X187742857Y-120764286D01*
X187647619Y-120716667D01*
X187600000Y-120669048D01*
X187552381Y-120573810D01*
X187647619Y-119859524D02*
X187600000Y-119811905D01*
X187552381Y-119716667D01*
X187552381Y-119478571D01*
X187600000Y-119383333D01*
X187647619Y-119335714D01*
X187742857Y-119288095D01*
X187838095Y-119288095D01*
X187980952Y-119335714D01*
X188552381Y-119907143D01*
X188552381Y-119288095D01*
X191652381Y-134747619D02*
X191557143Y-134700000D01*
X191461905Y-134604762D01*
X191319048Y-134461905D01*
X191223809Y-134414286D01*
X191128571Y-134414286D01*
X191176190Y-134652381D02*
X191080952Y-134604762D01*
X190985714Y-134509524D01*
X190938095Y-134319048D01*
X190938095Y-133985714D01*
X190985714Y-133795238D01*
X191080952Y-133700000D01*
X191176190Y-133652381D01*
X191366667Y-133652381D01*
X191461905Y-133700000D01*
X191557143Y-133795238D01*
X191604762Y-133985714D01*
X191604762Y-134319048D01*
X191557143Y-134509524D01*
X191461905Y-134604762D01*
X191366667Y-134652381D01*
X191176190Y-134652381D01*
X192557143Y-134652381D02*
X191985714Y-134652381D01*
X192271428Y-134652381D02*
X192271428Y-133652381D01*
X192176190Y-133795238D01*
X192080952Y-133890476D01*
X191985714Y-133938095D01*
X193176190Y-133652381D02*
X193271429Y-133652381D01*
X193366667Y-133700000D01*
X193414286Y-133747619D01*
X193461905Y-133842857D01*
X193509524Y-134033333D01*
X193509524Y-134271429D01*
X193461905Y-134461905D01*
X193414286Y-134557143D01*
X193366667Y-134604762D01*
X193271429Y-134652381D01*
X193176190Y-134652381D01*
X193080952Y-134604762D01*
X193033333Y-134557143D01*
X192985714Y-134461905D01*
X192938095Y-134271429D01*
X192938095Y-134033333D01*
X192985714Y-133842857D01*
X193033333Y-133747619D01*
X193080952Y-133700000D01*
X193176190Y-133652381D01*
X193842857Y-133652381D02*
X194461905Y-133652381D01*
X194128571Y-134033333D01*
X194271429Y-134033333D01*
X194366667Y-134080952D01*
X194414286Y-134128571D01*
X194461905Y-134223810D01*
X194461905Y-134461905D01*
X194414286Y-134557143D01*
X194366667Y-134604762D01*
X194271429Y-134652381D01*
X193985714Y-134652381D01*
X193890476Y-134604762D01*
X193842857Y-134557143D01*
X192097619Y-122197619D02*
X192050000Y-122292857D01*
X191954762Y-122388095D01*
X191811905Y-122530952D01*
X191764286Y-122626191D01*
X191764286Y-122721429D01*
X192002381Y-122673810D02*
X191954762Y-122769048D01*
X191859524Y-122864286D01*
X191669048Y-122911905D01*
X191335714Y-122911905D01*
X191145238Y-122864286D01*
X191050000Y-122769048D01*
X191002381Y-122673810D01*
X191002381Y-122483333D01*
X191050000Y-122388095D01*
X191145238Y-122292857D01*
X191335714Y-122245238D01*
X191669048Y-122245238D01*
X191859524Y-122292857D01*
X191954762Y-122388095D01*
X192002381Y-122483333D01*
X192002381Y-122673810D01*
X192002381Y-121292857D02*
X192002381Y-121864286D01*
X192002381Y-121578572D02*
X191002381Y-121578572D01*
X191145238Y-121673810D01*
X191240476Y-121769048D01*
X191288095Y-121864286D01*
X191002381Y-120673810D02*
X191002381Y-120578571D01*
X191050000Y-120483333D01*
X191097619Y-120435714D01*
X191192857Y-120388095D01*
X191383333Y-120340476D01*
X191621429Y-120340476D01*
X191811905Y-120388095D01*
X191907143Y-120435714D01*
X191954762Y-120483333D01*
X192002381Y-120578571D01*
X192002381Y-120673810D01*
X191954762Y-120769048D01*
X191907143Y-120816667D01*
X191811905Y-120864286D01*
X191621429Y-120911905D01*
X191383333Y-120911905D01*
X191192857Y-120864286D01*
X191097619Y-120816667D01*
X191050000Y-120769048D01*
X191002381Y-120673810D01*
X191335714Y-119483333D02*
X192002381Y-119483333D01*
X190954762Y-119721429D02*
X191669048Y-119959524D01*
X191669048Y-119340476D01*
X185502381Y-126697619D02*
X185407143Y-126650000D01*
X185311905Y-126554762D01*
X185169048Y-126411905D01*
X185073809Y-126364286D01*
X184978571Y-126364286D01*
X185026190Y-126602381D02*
X184930952Y-126554762D01*
X184835714Y-126459524D01*
X184788095Y-126269048D01*
X184788095Y-125935714D01*
X184835714Y-125745238D01*
X184930952Y-125650000D01*
X185026190Y-125602381D01*
X185216667Y-125602381D01*
X185311905Y-125650000D01*
X185407143Y-125745238D01*
X185454762Y-125935714D01*
X185454762Y-126269048D01*
X185407143Y-126459524D01*
X185311905Y-126554762D01*
X185216667Y-126602381D01*
X185026190Y-126602381D01*
X186407143Y-126602381D02*
X185835714Y-126602381D01*
X186121428Y-126602381D02*
X186121428Y-125602381D01*
X186026190Y-125745238D01*
X185930952Y-125840476D01*
X185835714Y-125888095D01*
X187026190Y-125602381D02*
X187121429Y-125602381D01*
X187216667Y-125650000D01*
X187264286Y-125697619D01*
X187311905Y-125792857D01*
X187359524Y-125983333D01*
X187359524Y-126221429D01*
X187311905Y-126411905D01*
X187264286Y-126507143D01*
X187216667Y-126554762D01*
X187121429Y-126602381D01*
X187026190Y-126602381D01*
X186930952Y-126554762D01*
X186883333Y-126507143D01*
X186835714Y-126411905D01*
X186788095Y-126221429D01*
X186788095Y-125983333D01*
X186835714Y-125792857D01*
X186883333Y-125697619D01*
X186930952Y-125650000D01*
X187026190Y-125602381D01*
X188264286Y-125602381D02*
X187788095Y-125602381D01*
X187740476Y-126078571D01*
X187788095Y-126030952D01*
X187883333Y-125983333D01*
X188121429Y-125983333D01*
X188216667Y-126030952D01*
X188264286Y-126078571D01*
X188311905Y-126173810D01*
X188311905Y-126411905D01*
X188264286Y-126507143D01*
X188216667Y-126554762D01*
X188121429Y-126602381D01*
X187883333Y-126602381D01*
X187788095Y-126554762D01*
X187740476Y-126507143D01*
X195147619Y-125947619D02*
X195100000Y-126042857D01*
X195004762Y-126138095D01*
X194861905Y-126280952D01*
X194814286Y-126376191D01*
X194814286Y-126471429D01*
X195052381Y-126423810D02*
X195004762Y-126519048D01*
X194909524Y-126614286D01*
X194719048Y-126661905D01*
X194385714Y-126661905D01*
X194195238Y-126614286D01*
X194100000Y-126519048D01*
X194052381Y-126423810D01*
X194052381Y-126233333D01*
X194100000Y-126138095D01*
X194195238Y-126042857D01*
X194385714Y-125995238D01*
X194719048Y-125995238D01*
X194909524Y-126042857D01*
X195004762Y-126138095D01*
X195052381Y-126233333D01*
X195052381Y-126423810D01*
X195052381Y-125042857D02*
X195052381Y-125614286D01*
X195052381Y-125328572D02*
X194052381Y-125328572D01*
X194195238Y-125423810D01*
X194290476Y-125519048D01*
X194338095Y-125614286D01*
X194052381Y-124423810D02*
X194052381Y-124328571D01*
X194100000Y-124233333D01*
X194147619Y-124185714D01*
X194242857Y-124138095D01*
X194433333Y-124090476D01*
X194671429Y-124090476D01*
X194861905Y-124138095D01*
X194957143Y-124185714D01*
X195004762Y-124233333D01*
X195052381Y-124328571D01*
X195052381Y-124423810D01*
X195004762Y-124519048D01*
X194957143Y-124566667D01*
X194861905Y-124614286D01*
X194671429Y-124661905D01*
X194433333Y-124661905D01*
X194242857Y-124614286D01*
X194147619Y-124566667D01*
X194100000Y-124519048D01*
X194052381Y-124423810D01*
X194052381Y-123233333D02*
X194052381Y-123423810D01*
X194100000Y-123519048D01*
X194147619Y-123566667D01*
X194290476Y-123661905D01*
X194480952Y-123709524D01*
X194861905Y-123709524D01*
X194957143Y-123661905D01*
X195004762Y-123614286D01*
X195052381Y-123519048D01*
X195052381Y-123328571D01*
X195004762Y-123233333D01*
X194957143Y-123185714D01*
X194861905Y-123138095D01*
X194623810Y-123138095D01*
X194528571Y-123185714D01*
X194480952Y-123233333D01*
X194433333Y-123328571D01*
X194433333Y-123519048D01*
X194480952Y-123614286D01*
X194528571Y-123661905D01*
X194623810Y-123709524D01*
X200547619Y-134197619D02*
X200500000Y-134292857D01*
X200404762Y-134388095D01*
X200261905Y-134530952D01*
X200214286Y-134626191D01*
X200214286Y-134721429D01*
X200452381Y-134673810D02*
X200404762Y-134769048D01*
X200309524Y-134864286D01*
X200119048Y-134911905D01*
X199785714Y-134911905D01*
X199595238Y-134864286D01*
X199500000Y-134769048D01*
X199452381Y-134673810D01*
X199452381Y-134483333D01*
X199500000Y-134388095D01*
X199595238Y-134292857D01*
X199785714Y-134245238D01*
X200119048Y-134245238D01*
X200309524Y-134292857D01*
X200404762Y-134388095D01*
X200452381Y-134483333D01*
X200452381Y-134673810D01*
X200452381Y-133292857D02*
X200452381Y-133864286D01*
X200452381Y-133578572D02*
X199452381Y-133578572D01*
X199595238Y-133673810D01*
X199690476Y-133769048D01*
X199738095Y-133864286D01*
X199452381Y-132673810D02*
X199452381Y-132578571D01*
X199500000Y-132483333D01*
X199547619Y-132435714D01*
X199642857Y-132388095D01*
X199833333Y-132340476D01*
X200071429Y-132340476D01*
X200261905Y-132388095D01*
X200357143Y-132435714D01*
X200404762Y-132483333D01*
X200452381Y-132578571D01*
X200452381Y-132673810D01*
X200404762Y-132769048D01*
X200357143Y-132816667D01*
X200261905Y-132864286D01*
X200071429Y-132911905D01*
X199833333Y-132911905D01*
X199642857Y-132864286D01*
X199547619Y-132816667D01*
X199500000Y-132769048D01*
X199452381Y-132673810D01*
X199452381Y-132007143D02*
X199452381Y-131340476D01*
X200452381Y-131769048D01*
X205097619Y-129247619D02*
X205050000Y-129342857D01*
X204954762Y-129438095D01*
X204811905Y-129580952D01*
X204764286Y-129676191D01*
X204764286Y-129771429D01*
X205002381Y-129723810D02*
X204954762Y-129819048D01*
X204859524Y-129914286D01*
X204669048Y-129961905D01*
X204335714Y-129961905D01*
X204145238Y-129914286D01*
X204050000Y-129819048D01*
X204002381Y-129723810D01*
X204002381Y-129533333D01*
X204050000Y-129438095D01*
X204145238Y-129342857D01*
X204335714Y-129295238D01*
X204669048Y-129295238D01*
X204859524Y-129342857D01*
X204954762Y-129438095D01*
X205002381Y-129533333D01*
X205002381Y-129723810D01*
X205002381Y-128342857D02*
X205002381Y-128914286D01*
X205002381Y-128628572D02*
X204002381Y-128628572D01*
X204145238Y-128723810D01*
X204240476Y-128819048D01*
X204288095Y-128914286D01*
X204002381Y-127723810D02*
X204002381Y-127628571D01*
X204050000Y-127533333D01*
X204097619Y-127485714D01*
X204192857Y-127438095D01*
X204383333Y-127390476D01*
X204621429Y-127390476D01*
X204811905Y-127438095D01*
X204907143Y-127485714D01*
X204954762Y-127533333D01*
X205002381Y-127628571D01*
X205002381Y-127723810D01*
X204954762Y-127819048D01*
X204907143Y-127866667D01*
X204811905Y-127914286D01*
X204621429Y-127961905D01*
X204383333Y-127961905D01*
X204192857Y-127914286D01*
X204097619Y-127866667D01*
X204050000Y-127819048D01*
X204002381Y-127723810D01*
X204430952Y-126819048D02*
X204383333Y-126914286D01*
X204335714Y-126961905D01*
X204240476Y-127009524D01*
X204192857Y-127009524D01*
X204097619Y-126961905D01*
X204050000Y-126914286D01*
X204002381Y-126819048D01*
X204002381Y-126628571D01*
X204050000Y-126533333D01*
X204097619Y-126485714D01*
X204192857Y-126438095D01*
X204240476Y-126438095D01*
X204335714Y-126485714D01*
X204383333Y-126533333D01*
X204430952Y-126628571D01*
X204430952Y-126819048D01*
X204478571Y-126914286D01*
X204526190Y-126961905D01*
X204621429Y-127009524D01*
X204811905Y-127009524D01*
X204907143Y-126961905D01*
X204954762Y-126914286D01*
X205002381Y-126819048D01*
X205002381Y-126628571D01*
X204954762Y-126533333D01*
X204907143Y-126485714D01*
X204811905Y-126438095D01*
X204621429Y-126438095D01*
X204526190Y-126485714D01*
X204478571Y-126533333D01*
X204430952Y-126628571D01*
X211597619Y-123647619D02*
X211550000Y-123742857D01*
X211454762Y-123838095D01*
X211311905Y-123980952D01*
X211264286Y-124076191D01*
X211264286Y-124171429D01*
X211502381Y-124123810D02*
X211454762Y-124219048D01*
X211359524Y-124314286D01*
X211169048Y-124361905D01*
X210835714Y-124361905D01*
X210645238Y-124314286D01*
X210550000Y-124219048D01*
X210502381Y-124123810D01*
X210502381Y-123933333D01*
X210550000Y-123838095D01*
X210645238Y-123742857D01*
X210835714Y-123695238D01*
X211169048Y-123695238D01*
X211359524Y-123742857D01*
X211454762Y-123838095D01*
X211502381Y-123933333D01*
X211502381Y-124123810D01*
X211502381Y-122742857D02*
X211502381Y-123314286D01*
X211502381Y-123028572D02*
X210502381Y-123028572D01*
X210645238Y-123123810D01*
X210740476Y-123219048D01*
X210788095Y-123314286D01*
X210502381Y-122123810D02*
X210502381Y-122028571D01*
X210550000Y-121933333D01*
X210597619Y-121885714D01*
X210692857Y-121838095D01*
X210883333Y-121790476D01*
X211121429Y-121790476D01*
X211311905Y-121838095D01*
X211407143Y-121885714D01*
X211454762Y-121933333D01*
X211502381Y-122028571D01*
X211502381Y-122123810D01*
X211454762Y-122219048D01*
X211407143Y-122266667D01*
X211311905Y-122314286D01*
X211121429Y-122361905D01*
X210883333Y-122361905D01*
X210692857Y-122314286D01*
X210597619Y-122266667D01*
X210550000Y-122219048D01*
X210502381Y-122123810D01*
X211502381Y-121314286D02*
X211502381Y-121123810D01*
X211454762Y-121028571D01*
X211407143Y-120980952D01*
X211264286Y-120885714D01*
X211073810Y-120838095D01*
X210692857Y-120838095D01*
X210597619Y-120885714D01*
X210550000Y-120933333D01*
X210502381Y-121028571D01*
X210502381Y-121219048D01*
X210550000Y-121314286D01*
X210597619Y-121361905D01*
X210692857Y-121409524D01*
X210930952Y-121409524D01*
X211026190Y-121361905D01*
X211073810Y-121314286D01*
X211121429Y-121219048D01*
X211121429Y-121028571D01*
X211073810Y-120933333D01*
X211026190Y-120885714D01*
X210930952Y-120838095D01*
X209947619Y-131947619D02*
X209900000Y-132042857D01*
X209804762Y-132138095D01*
X209661905Y-132280952D01*
X209614286Y-132376191D01*
X209614286Y-132471429D01*
X209852381Y-132423810D02*
X209804762Y-132519048D01*
X209709524Y-132614286D01*
X209519048Y-132661905D01*
X209185714Y-132661905D01*
X208995238Y-132614286D01*
X208900000Y-132519048D01*
X208852381Y-132423810D01*
X208852381Y-132233333D01*
X208900000Y-132138095D01*
X208995238Y-132042857D01*
X209185714Y-131995238D01*
X209519048Y-131995238D01*
X209709524Y-132042857D01*
X209804762Y-132138095D01*
X209852381Y-132233333D01*
X209852381Y-132423810D01*
X209852381Y-131042857D02*
X209852381Y-131614286D01*
X209852381Y-131328572D02*
X208852381Y-131328572D01*
X208995238Y-131423810D01*
X209090476Y-131519048D01*
X209138095Y-131614286D01*
X209852381Y-130090476D02*
X209852381Y-130661905D01*
X209852381Y-130376191D02*
X208852381Y-130376191D01*
X208995238Y-130471429D01*
X209090476Y-130566667D01*
X209138095Y-130661905D01*
X208852381Y-129471429D02*
X208852381Y-129376190D01*
X208900000Y-129280952D01*
X208947619Y-129233333D01*
X209042857Y-129185714D01*
X209233333Y-129138095D01*
X209471429Y-129138095D01*
X209661905Y-129185714D01*
X209757143Y-129233333D01*
X209804762Y-129280952D01*
X209852381Y-129376190D01*
X209852381Y-129471429D01*
X209804762Y-129566667D01*
X209757143Y-129614286D01*
X209661905Y-129661905D01*
X209471429Y-129709524D01*
X209233333Y-129709524D01*
X209042857Y-129661905D01*
X208947619Y-129614286D01*
X208900000Y-129566667D01*
X208852381Y-129471429D01*
X219697619Y-125347619D02*
X219650000Y-125442857D01*
X219554762Y-125538095D01*
X219411905Y-125680952D01*
X219364286Y-125776191D01*
X219364286Y-125871429D01*
X219602381Y-125823810D02*
X219554762Y-125919048D01*
X219459524Y-126014286D01*
X219269048Y-126061905D01*
X218935714Y-126061905D01*
X218745238Y-126014286D01*
X218650000Y-125919048D01*
X218602381Y-125823810D01*
X218602381Y-125633333D01*
X218650000Y-125538095D01*
X218745238Y-125442857D01*
X218935714Y-125395238D01*
X219269048Y-125395238D01*
X219459524Y-125442857D01*
X219554762Y-125538095D01*
X219602381Y-125633333D01*
X219602381Y-125823810D01*
X219602381Y-124442857D02*
X219602381Y-125014286D01*
X219602381Y-124728572D02*
X218602381Y-124728572D01*
X218745238Y-124823810D01*
X218840476Y-124919048D01*
X218888095Y-125014286D01*
X219602381Y-123490476D02*
X219602381Y-124061905D01*
X219602381Y-123776191D02*
X218602381Y-123776191D01*
X218745238Y-123871429D01*
X218840476Y-123966667D01*
X218888095Y-124061905D01*
X219602381Y-122538095D02*
X219602381Y-123109524D01*
X219602381Y-122823810D02*
X218602381Y-122823810D01*
X218745238Y-122919048D01*
X218840476Y-123014286D01*
X218888095Y-123109524D01*
X219597619Y-141697619D02*
X219550000Y-141792857D01*
X219454762Y-141888095D01*
X219311905Y-142030952D01*
X219264286Y-142126191D01*
X219264286Y-142221429D01*
X219502381Y-142173810D02*
X219454762Y-142269048D01*
X219359524Y-142364286D01*
X219169048Y-142411905D01*
X218835714Y-142411905D01*
X218645238Y-142364286D01*
X218550000Y-142269048D01*
X218502381Y-142173810D01*
X218502381Y-141983333D01*
X218550000Y-141888095D01*
X218645238Y-141792857D01*
X218835714Y-141745238D01*
X219169048Y-141745238D01*
X219359524Y-141792857D01*
X219454762Y-141888095D01*
X219502381Y-141983333D01*
X219502381Y-142173810D01*
X219502381Y-140792857D02*
X219502381Y-141364286D01*
X219502381Y-141078572D02*
X218502381Y-141078572D01*
X218645238Y-141173810D01*
X218740476Y-141269048D01*
X218788095Y-141364286D01*
X219502381Y-139840476D02*
X219502381Y-140411905D01*
X219502381Y-140126191D02*
X218502381Y-140126191D01*
X218645238Y-140221429D01*
X218740476Y-140316667D01*
X218788095Y-140411905D01*
X218597619Y-139459524D02*
X218550000Y-139411905D01*
X218502381Y-139316667D01*
X218502381Y-139078571D01*
X218550000Y-138983333D01*
X218597619Y-138935714D01*
X218692857Y-138888095D01*
X218788095Y-138888095D01*
X218930952Y-138935714D01*
X219502381Y-139507143D01*
X219502381Y-138888095D01*
X222447619Y-124147619D02*
X222400000Y-124242857D01*
X222304762Y-124338095D01*
X222161905Y-124480952D01*
X222114286Y-124576191D01*
X222114286Y-124671429D01*
X222352381Y-124623810D02*
X222304762Y-124719048D01*
X222209524Y-124814286D01*
X222019048Y-124861905D01*
X221685714Y-124861905D01*
X221495238Y-124814286D01*
X221400000Y-124719048D01*
X221352381Y-124623810D01*
X221352381Y-124433333D01*
X221400000Y-124338095D01*
X221495238Y-124242857D01*
X221685714Y-124195238D01*
X222019048Y-124195238D01*
X222209524Y-124242857D01*
X222304762Y-124338095D01*
X222352381Y-124433333D01*
X222352381Y-124623810D01*
X222352381Y-123242857D02*
X222352381Y-123814286D01*
X222352381Y-123528572D02*
X221352381Y-123528572D01*
X221495238Y-123623810D01*
X221590476Y-123719048D01*
X221638095Y-123814286D01*
X222352381Y-122290476D02*
X222352381Y-122861905D01*
X222352381Y-122576191D02*
X221352381Y-122576191D01*
X221495238Y-122671429D01*
X221590476Y-122766667D01*
X221638095Y-122861905D01*
X221352381Y-121957143D02*
X221352381Y-121338095D01*
X221733333Y-121671429D01*
X221733333Y-121528571D01*
X221780952Y-121433333D01*
X221828571Y-121385714D01*
X221923810Y-121338095D01*
X222161905Y-121338095D01*
X222257143Y-121385714D01*
X222304762Y-121433333D01*
X222352381Y-121528571D01*
X222352381Y-121814286D01*
X222304762Y-121909524D01*
X222257143Y-121957143D01*
X216097619Y-141797619D02*
X216050000Y-141892857D01*
X215954762Y-141988095D01*
X215811905Y-142130952D01*
X215764286Y-142226191D01*
X215764286Y-142321429D01*
X216002381Y-142273810D02*
X215954762Y-142369048D01*
X215859524Y-142464286D01*
X215669048Y-142511905D01*
X215335714Y-142511905D01*
X215145238Y-142464286D01*
X215050000Y-142369048D01*
X215002381Y-142273810D01*
X215002381Y-142083333D01*
X215050000Y-141988095D01*
X215145238Y-141892857D01*
X215335714Y-141845238D01*
X215669048Y-141845238D01*
X215859524Y-141892857D01*
X215954762Y-141988095D01*
X216002381Y-142083333D01*
X216002381Y-142273810D01*
X216002381Y-140892857D02*
X216002381Y-141464286D01*
X216002381Y-141178572D02*
X215002381Y-141178572D01*
X215145238Y-141273810D01*
X215240476Y-141369048D01*
X215288095Y-141464286D01*
X216002381Y-139940476D02*
X216002381Y-140511905D01*
X216002381Y-140226191D02*
X215002381Y-140226191D01*
X215145238Y-140321429D01*
X215240476Y-140416667D01*
X215288095Y-140511905D01*
X215335714Y-139083333D02*
X216002381Y-139083333D01*
X214954762Y-139321429D02*
X215669048Y-139559524D01*
X215669048Y-138940476D01*
X225997619Y-132647619D02*
X225950000Y-132742857D01*
X225854762Y-132838095D01*
X225711905Y-132980952D01*
X225664286Y-133076191D01*
X225664286Y-133171429D01*
X225902381Y-133123810D02*
X225854762Y-133219048D01*
X225759524Y-133314286D01*
X225569048Y-133361905D01*
X225235714Y-133361905D01*
X225045238Y-133314286D01*
X224950000Y-133219048D01*
X224902381Y-133123810D01*
X224902381Y-132933333D01*
X224950000Y-132838095D01*
X225045238Y-132742857D01*
X225235714Y-132695238D01*
X225569048Y-132695238D01*
X225759524Y-132742857D01*
X225854762Y-132838095D01*
X225902381Y-132933333D01*
X225902381Y-133123810D01*
X225902381Y-131742857D02*
X225902381Y-132314286D01*
X225902381Y-132028572D02*
X224902381Y-132028572D01*
X225045238Y-132123810D01*
X225140476Y-132219048D01*
X225188095Y-132314286D01*
X225902381Y-130790476D02*
X225902381Y-131361905D01*
X225902381Y-131076191D02*
X224902381Y-131076191D01*
X225045238Y-131171429D01*
X225140476Y-131266667D01*
X225188095Y-131361905D01*
X224902381Y-129885714D02*
X224902381Y-130361905D01*
X225378571Y-130409524D01*
X225330952Y-130361905D01*
X225283333Y-130266667D01*
X225283333Y-130028571D01*
X225330952Y-129933333D01*
X225378571Y-129885714D01*
X225473810Y-129838095D01*
X225711905Y-129838095D01*
X225807143Y-129885714D01*
X225854762Y-129933333D01*
X225902381Y-130028571D01*
X225902381Y-130266667D01*
X225854762Y-130361905D01*
X225807143Y-130409524D01*
X226347619Y-124147619D02*
X226300000Y-124242857D01*
X226204762Y-124338095D01*
X226061905Y-124480952D01*
X226014286Y-124576191D01*
X226014286Y-124671429D01*
X226252381Y-124623810D02*
X226204762Y-124719048D01*
X226109524Y-124814286D01*
X225919048Y-124861905D01*
X225585714Y-124861905D01*
X225395238Y-124814286D01*
X225300000Y-124719048D01*
X225252381Y-124623810D01*
X225252381Y-124433333D01*
X225300000Y-124338095D01*
X225395238Y-124242857D01*
X225585714Y-124195238D01*
X225919048Y-124195238D01*
X226109524Y-124242857D01*
X226204762Y-124338095D01*
X226252381Y-124433333D01*
X226252381Y-124623810D01*
X226252381Y-123242857D02*
X226252381Y-123814286D01*
X226252381Y-123528572D02*
X225252381Y-123528572D01*
X225395238Y-123623810D01*
X225490476Y-123719048D01*
X225538095Y-123814286D01*
X226252381Y-122290476D02*
X226252381Y-122861905D01*
X226252381Y-122576191D02*
X225252381Y-122576191D01*
X225395238Y-122671429D01*
X225490476Y-122766667D01*
X225538095Y-122861905D01*
X225252381Y-121433333D02*
X225252381Y-121623810D01*
X225300000Y-121719048D01*
X225347619Y-121766667D01*
X225490476Y-121861905D01*
X225680952Y-121909524D01*
X226061905Y-121909524D01*
X226157143Y-121861905D01*
X226204762Y-121814286D01*
X226252381Y-121719048D01*
X226252381Y-121528571D01*
X226204762Y-121433333D01*
X226157143Y-121385714D01*
X226061905Y-121338095D01*
X225823810Y-121338095D01*
X225728571Y-121385714D01*
X225680952Y-121433333D01*
X225633333Y-121528571D01*
X225633333Y-121719048D01*
X225680952Y-121814286D01*
X225728571Y-121861905D01*
X225823810Y-121909524D01*
X235087619Y-148257619D02*
X235040000Y-148352857D01*
X234944762Y-148448095D01*
X234801905Y-148590952D01*
X234754286Y-148686191D01*
X234754286Y-148781429D01*
X234992381Y-148733810D02*
X234944762Y-148829048D01*
X234849524Y-148924286D01*
X234659048Y-148971905D01*
X234325714Y-148971905D01*
X234135238Y-148924286D01*
X234040000Y-148829048D01*
X233992381Y-148733810D01*
X233992381Y-148543333D01*
X234040000Y-148448095D01*
X234135238Y-148352857D01*
X234325714Y-148305238D01*
X234659048Y-148305238D01*
X234849524Y-148352857D01*
X234944762Y-148448095D01*
X234992381Y-148543333D01*
X234992381Y-148733810D01*
X234992381Y-147352857D02*
X234992381Y-147924286D01*
X234992381Y-147638572D02*
X233992381Y-147638572D01*
X234135238Y-147733810D01*
X234230476Y-147829048D01*
X234278095Y-147924286D01*
X234992381Y-146400476D02*
X234992381Y-146971905D01*
X234992381Y-146686191D02*
X233992381Y-146686191D01*
X234135238Y-146781429D01*
X234230476Y-146876667D01*
X234278095Y-146971905D01*
X233992381Y-146067143D02*
X233992381Y-145400476D01*
X234992381Y-145829048D01*
X235087619Y-135857619D02*
X235040000Y-135952857D01*
X234944762Y-136048095D01*
X234801905Y-136190952D01*
X234754286Y-136286191D01*
X234754286Y-136381429D01*
X234992381Y-136333810D02*
X234944762Y-136429048D01*
X234849524Y-136524286D01*
X234659048Y-136571905D01*
X234325714Y-136571905D01*
X234135238Y-136524286D01*
X234040000Y-136429048D01*
X233992381Y-136333810D01*
X233992381Y-136143333D01*
X234040000Y-136048095D01*
X234135238Y-135952857D01*
X234325714Y-135905238D01*
X234659048Y-135905238D01*
X234849524Y-135952857D01*
X234944762Y-136048095D01*
X234992381Y-136143333D01*
X234992381Y-136333810D01*
X234992381Y-134952857D02*
X234992381Y-135524286D01*
X234992381Y-135238572D02*
X233992381Y-135238572D01*
X234135238Y-135333810D01*
X234230476Y-135429048D01*
X234278095Y-135524286D01*
X234992381Y-134000476D02*
X234992381Y-134571905D01*
X234992381Y-134286191D02*
X233992381Y-134286191D01*
X234135238Y-134381429D01*
X234230476Y-134476667D01*
X234278095Y-134571905D01*
X234420952Y-133429048D02*
X234373333Y-133524286D01*
X234325714Y-133571905D01*
X234230476Y-133619524D01*
X234182857Y-133619524D01*
X234087619Y-133571905D01*
X234040000Y-133524286D01*
X233992381Y-133429048D01*
X233992381Y-133238571D01*
X234040000Y-133143333D01*
X234087619Y-133095714D01*
X234182857Y-133048095D01*
X234230476Y-133048095D01*
X234325714Y-133095714D01*
X234373333Y-133143333D01*
X234420952Y-133238571D01*
X234420952Y-133429048D01*
X234468571Y-133524286D01*
X234516190Y-133571905D01*
X234611429Y-133619524D01*
X234801905Y-133619524D01*
X234897143Y-133571905D01*
X234944762Y-133524286D01*
X234992381Y-133429048D01*
X234992381Y-133238571D01*
X234944762Y-133143333D01*
X234897143Y-133095714D01*
X234801905Y-133048095D01*
X234611429Y-133048095D01*
X234516190Y-133095714D01*
X234468571Y-133143333D01*
X234420952Y-133238571D01*
X206452381Y-95342857D02*
X205976190Y-95676191D01*
X206452381Y-95914286D02*
X205452381Y-95914286D01*
X205452381Y-95533333D01*
X205500000Y-95438095D01*
X205547619Y-95390476D01*
X205642857Y-95342857D01*
X205785714Y-95342857D01*
X205880952Y-95390476D01*
X205928571Y-95438095D01*
X205976190Y-95533333D01*
X205976190Y-95914286D01*
X206452381Y-94390476D02*
X206452381Y-94961905D01*
X206452381Y-94676191D02*
X205452381Y-94676191D01*
X205595238Y-94771429D01*
X205690476Y-94866667D01*
X205738095Y-94961905D01*
X205547619Y-94009524D02*
X205500000Y-93961905D01*
X205452381Y-93866667D01*
X205452381Y-93628571D01*
X205500000Y-93533333D01*
X205547619Y-93485714D01*
X205642857Y-93438095D01*
X205738095Y-93438095D01*
X205880952Y-93485714D01*
X206452381Y-94057143D01*
X206452381Y-93438095D01*
X214711143Y-91547381D02*
X214377809Y-91071190D01*
X214139714Y-91547381D02*
X214139714Y-90547381D01*
X214520667Y-90547381D01*
X214615905Y-90595000D01*
X214663524Y-90642619D01*
X214711143Y-90737857D01*
X214711143Y-90880714D01*
X214663524Y-90975952D01*
X214615905Y-91023571D01*
X214520667Y-91071190D01*
X214139714Y-91071190D01*
X215663524Y-91547381D02*
X215092095Y-91547381D01*
X215377809Y-91547381D02*
X215377809Y-90547381D01*
X215282571Y-90690238D01*
X215187333Y-90785476D01*
X215092095Y-90833095D01*
X215996857Y-90547381D02*
X216615905Y-90547381D01*
X216282571Y-90928333D01*
X216425429Y-90928333D01*
X216520667Y-90975952D01*
X216568286Y-91023571D01*
X216615905Y-91118810D01*
X216615905Y-91356905D01*
X216568286Y-91452143D01*
X216520667Y-91499762D01*
X216425429Y-91547381D01*
X216139714Y-91547381D01*
X216044476Y-91499762D01*
X215996857Y-91452143D01*
X229602381Y-89242857D02*
X229126190Y-89576191D01*
X229602381Y-89814286D02*
X228602381Y-89814286D01*
X228602381Y-89433333D01*
X228650000Y-89338095D01*
X228697619Y-89290476D01*
X228792857Y-89242857D01*
X228935714Y-89242857D01*
X229030952Y-89290476D01*
X229078571Y-89338095D01*
X229126190Y-89433333D01*
X229126190Y-89814286D01*
X229602381Y-88290476D02*
X229602381Y-88861905D01*
X229602381Y-88576191D02*
X228602381Y-88576191D01*
X228745238Y-88671429D01*
X228840476Y-88766667D01*
X228888095Y-88861905D01*
X228935714Y-87433333D02*
X229602381Y-87433333D01*
X228554762Y-87671429D02*
X229269048Y-87909524D01*
X229269048Y-87290476D01*
X217952381Y-95742857D02*
X217476190Y-96076191D01*
X217952381Y-96314286D02*
X216952381Y-96314286D01*
X216952381Y-95933333D01*
X217000000Y-95838095D01*
X217047619Y-95790476D01*
X217142857Y-95742857D01*
X217285714Y-95742857D01*
X217380952Y-95790476D01*
X217428571Y-95838095D01*
X217476190Y-95933333D01*
X217476190Y-96314286D01*
X217952381Y-94790476D02*
X217952381Y-95361905D01*
X217952381Y-95076191D02*
X216952381Y-95076191D01*
X217095238Y-95171429D01*
X217190476Y-95266667D01*
X217238095Y-95361905D01*
X216952381Y-93885714D02*
X216952381Y-94361905D01*
X217428571Y-94409524D01*
X217380952Y-94361905D01*
X217333333Y-94266667D01*
X217333333Y-94028571D01*
X217380952Y-93933333D01*
X217428571Y-93885714D01*
X217523810Y-93838095D01*
X217761905Y-93838095D01*
X217857143Y-93885714D01*
X217904762Y-93933333D01*
X217952381Y-94028571D01*
X217952381Y-94266667D01*
X217904762Y-94361905D01*
X217857143Y-94409524D01*
X220152381Y-91142857D02*
X219676190Y-91476191D01*
X220152381Y-91714286D02*
X219152381Y-91714286D01*
X219152381Y-91333333D01*
X219200000Y-91238095D01*
X219247619Y-91190476D01*
X219342857Y-91142857D01*
X219485714Y-91142857D01*
X219580952Y-91190476D01*
X219628571Y-91238095D01*
X219676190Y-91333333D01*
X219676190Y-91714286D01*
X220152381Y-90190476D02*
X220152381Y-90761905D01*
X220152381Y-90476191D02*
X219152381Y-90476191D01*
X219295238Y-90571429D01*
X219390476Y-90666667D01*
X219438095Y-90761905D01*
X219152381Y-89333333D02*
X219152381Y-89523810D01*
X219200000Y-89619048D01*
X219247619Y-89666667D01*
X219390476Y-89761905D01*
X219580952Y-89809524D01*
X219961905Y-89809524D01*
X220057143Y-89761905D01*
X220104762Y-89714286D01*
X220152381Y-89619048D01*
X220152381Y-89428571D01*
X220104762Y-89333333D01*
X220057143Y-89285714D01*
X219961905Y-89238095D01*
X219723810Y-89238095D01*
X219628571Y-89285714D01*
X219580952Y-89333333D01*
X219533333Y-89428571D01*
X219533333Y-89619048D01*
X219580952Y-89714286D01*
X219628571Y-89761905D01*
X219723810Y-89809524D01*
X223652381Y-91442857D02*
X223176190Y-91776191D01*
X223652381Y-92014286D02*
X222652381Y-92014286D01*
X222652381Y-91633333D01*
X222700000Y-91538095D01*
X222747619Y-91490476D01*
X222842857Y-91442857D01*
X222985714Y-91442857D01*
X223080952Y-91490476D01*
X223128571Y-91538095D01*
X223176190Y-91633333D01*
X223176190Y-92014286D01*
X223652381Y-90490476D02*
X223652381Y-91061905D01*
X223652381Y-90776191D02*
X222652381Y-90776191D01*
X222795238Y-90871429D01*
X222890476Y-90966667D01*
X222938095Y-91061905D01*
X222652381Y-90157143D02*
X222652381Y-89490476D01*
X223652381Y-89919048D01*
X193602381Y-96642857D02*
X193126190Y-96976191D01*
X193602381Y-97214286D02*
X192602381Y-97214286D01*
X192602381Y-96833333D01*
X192650000Y-96738095D01*
X192697619Y-96690476D01*
X192792857Y-96642857D01*
X192935714Y-96642857D01*
X193030952Y-96690476D01*
X193078571Y-96738095D01*
X193126190Y-96833333D01*
X193126190Y-97214286D01*
X192697619Y-96261905D02*
X192650000Y-96214286D01*
X192602381Y-96119048D01*
X192602381Y-95880952D01*
X192650000Y-95785714D01*
X192697619Y-95738095D01*
X192792857Y-95690476D01*
X192888095Y-95690476D01*
X193030952Y-95738095D01*
X193602381Y-96309524D01*
X193602381Y-95690476D01*
X192697619Y-95309524D02*
X192650000Y-95261905D01*
X192602381Y-95166667D01*
X192602381Y-94928571D01*
X192650000Y-94833333D01*
X192697619Y-94785714D01*
X192792857Y-94738095D01*
X192888095Y-94738095D01*
X193030952Y-94785714D01*
X193602381Y-95357143D01*
X193602381Y-94738095D01*
X215152381Y-111342857D02*
X214676190Y-111676191D01*
X215152381Y-111914286D02*
X214152381Y-111914286D01*
X214152381Y-111533333D01*
X214200000Y-111438095D01*
X214247619Y-111390476D01*
X214342857Y-111342857D01*
X214485714Y-111342857D01*
X214580952Y-111390476D01*
X214628571Y-111438095D01*
X214676190Y-111533333D01*
X214676190Y-111914286D01*
X214247619Y-110961905D02*
X214200000Y-110914286D01*
X214152381Y-110819048D01*
X214152381Y-110580952D01*
X214200000Y-110485714D01*
X214247619Y-110438095D01*
X214342857Y-110390476D01*
X214438095Y-110390476D01*
X214580952Y-110438095D01*
X215152381Y-111009524D01*
X215152381Y-110390476D01*
X214485714Y-109533333D02*
X215152381Y-109533333D01*
X214104762Y-109771429D02*
X214819048Y-110009524D01*
X214819048Y-109390476D01*
X214252381Y-105342857D02*
X213776190Y-105676191D01*
X214252381Y-105914286D02*
X213252381Y-105914286D01*
X213252381Y-105533333D01*
X213300000Y-105438095D01*
X213347619Y-105390476D01*
X213442857Y-105342857D01*
X213585714Y-105342857D01*
X213680952Y-105390476D01*
X213728571Y-105438095D01*
X213776190Y-105533333D01*
X213776190Y-105914286D01*
X213347619Y-104961905D02*
X213300000Y-104914286D01*
X213252381Y-104819048D01*
X213252381Y-104580952D01*
X213300000Y-104485714D01*
X213347619Y-104438095D01*
X213442857Y-104390476D01*
X213538095Y-104390476D01*
X213680952Y-104438095D01*
X214252381Y-105009524D01*
X214252381Y-104390476D01*
X213252381Y-103485714D02*
X213252381Y-103961905D01*
X213728571Y-104009524D01*
X213680952Y-103961905D01*
X213633333Y-103866667D01*
X213633333Y-103628571D01*
X213680952Y-103533333D01*
X213728571Y-103485714D01*
X213823810Y-103438095D01*
X214061905Y-103438095D01*
X214157143Y-103485714D01*
X214204762Y-103533333D01*
X214252381Y-103628571D01*
X214252381Y-103866667D01*
X214204762Y-103961905D01*
X214157143Y-104009524D01*
X221507143Y-114202381D02*
X221173809Y-113726190D01*
X220935714Y-114202381D02*
X220935714Y-113202381D01*
X221316667Y-113202381D01*
X221411905Y-113250000D01*
X221459524Y-113297619D01*
X221507143Y-113392857D01*
X221507143Y-113535714D01*
X221459524Y-113630952D01*
X221411905Y-113678571D01*
X221316667Y-113726190D01*
X220935714Y-113726190D01*
X221888095Y-113297619D02*
X221935714Y-113250000D01*
X222030952Y-113202381D01*
X222269048Y-113202381D01*
X222364286Y-113250000D01*
X222411905Y-113297619D01*
X222459524Y-113392857D01*
X222459524Y-113488095D01*
X222411905Y-113630952D01*
X221840476Y-114202381D01*
X222459524Y-114202381D01*
X223316667Y-113202381D02*
X223126190Y-113202381D01*
X223030952Y-113250000D01*
X222983333Y-113297619D01*
X222888095Y-113440476D01*
X222840476Y-113630952D01*
X222840476Y-114011905D01*
X222888095Y-114107143D01*
X222935714Y-114154762D01*
X223030952Y-114202381D01*
X223221429Y-114202381D01*
X223316667Y-114154762D01*
X223364286Y-114107143D01*
X223411905Y-114011905D01*
X223411905Y-113773810D01*
X223364286Y-113678571D01*
X223316667Y-113630952D01*
X223221429Y-113583333D01*
X223030952Y-113583333D01*
X222935714Y-113630952D01*
X222888095Y-113678571D01*
X222840476Y-113773810D01*
X216902381Y-105392857D02*
X216426190Y-105726191D01*
X216902381Y-105964286D02*
X215902381Y-105964286D01*
X215902381Y-105583333D01*
X215950000Y-105488095D01*
X215997619Y-105440476D01*
X216092857Y-105392857D01*
X216235714Y-105392857D01*
X216330952Y-105440476D01*
X216378571Y-105488095D01*
X216426190Y-105583333D01*
X216426190Y-105964286D01*
X215997619Y-105011905D02*
X215950000Y-104964286D01*
X215902381Y-104869048D01*
X215902381Y-104630952D01*
X215950000Y-104535714D01*
X215997619Y-104488095D01*
X216092857Y-104440476D01*
X216188095Y-104440476D01*
X216330952Y-104488095D01*
X216902381Y-105059524D01*
X216902381Y-104440476D01*
X215902381Y-104107143D02*
X215902381Y-103440476D01*
X216902381Y-103869048D01*
X219652381Y-105642857D02*
X219176190Y-105976191D01*
X219652381Y-106214286D02*
X218652381Y-106214286D01*
X218652381Y-105833333D01*
X218700000Y-105738095D01*
X218747619Y-105690476D01*
X218842857Y-105642857D01*
X218985714Y-105642857D01*
X219080952Y-105690476D01*
X219128571Y-105738095D01*
X219176190Y-105833333D01*
X219176190Y-106214286D01*
X218747619Y-105261905D02*
X218700000Y-105214286D01*
X218652381Y-105119048D01*
X218652381Y-104880952D01*
X218700000Y-104785714D01*
X218747619Y-104738095D01*
X218842857Y-104690476D01*
X218938095Y-104690476D01*
X219080952Y-104738095D01*
X219652381Y-105309524D01*
X219652381Y-104690476D01*
X219080952Y-104119048D02*
X219033333Y-104214286D01*
X218985714Y-104261905D01*
X218890476Y-104309524D01*
X218842857Y-104309524D01*
X218747619Y-104261905D01*
X218700000Y-104214286D01*
X218652381Y-104119048D01*
X218652381Y-103928571D01*
X218700000Y-103833333D01*
X218747619Y-103785714D01*
X218842857Y-103738095D01*
X218890476Y-103738095D01*
X218985714Y-103785714D01*
X219033333Y-103833333D01*
X219080952Y-103928571D01*
X219080952Y-104119048D01*
X219128571Y-104214286D01*
X219176190Y-104261905D01*
X219271429Y-104309524D01*
X219461905Y-104309524D01*
X219557143Y-104261905D01*
X219604762Y-104214286D01*
X219652381Y-104119048D01*
X219652381Y-103928571D01*
X219604762Y-103833333D01*
X219557143Y-103785714D01*
X219461905Y-103738095D01*
X219271429Y-103738095D01*
X219176190Y-103785714D01*
X219128571Y-103833333D01*
X219080952Y-103928571D01*
X205952381Y-106142857D02*
X205476190Y-106476191D01*
X205952381Y-106714286D02*
X204952381Y-106714286D01*
X204952381Y-106333333D01*
X205000000Y-106238095D01*
X205047619Y-106190476D01*
X205142857Y-106142857D01*
X205285714Y-106142857D01*
X205380952Y-106190476D01*
X205428571Y-106238095D01*
X205476190Y-106333333D01*
X205476190Y-106714286D01*
X205047619Y-105761905D02*
X205000000Y-105714286D01*
X204952381Y-105619048D01*
X204952381Y-105380952D01*
X205000000Y-105285714D01*
X205047619Y-105238095D01*
X205142857Y-105190476D01*
X205238095Y-105190476D01*
X205380952Y-105238095D01*
X205952381Y-105809524D01*
X205952381Y-105190476D01*
X205952381Y-104714286D02*
X205952381Y-104523810D01*
X205904762Y-104428571D01*
X205857143Y-104380952D01*
X205714286Y-104285714D01*
X205523810Y-104238095D01*
X205142857Y-104238095D01*
X205047619Y-104285714D01*
X205000000Y-104333333D01*
X204952381Y-104428571D01*
X204952381Y-104619048D01*
X205000000Y-104714286D01*
X205047619Y-104761905D01*
X205142857Y-104809524D01*
X205380952Y-104809524D01*
X205476190Y-104761905D01*
X205523810Y-104714286D01*
X205571429Y-104619048D01*
X205571429Y-104428571D01*
X205523810Y-104333333D01*
X205476190Y-104285714D01*
X205380952Y-104238095D01*
X203452381Y-105842857D02*
X202976190Y-106176191D01*
X203452381Y-106414286D02*
X202452381Y-106414286D01*
X202452381Y-106033333D01*
X202500000Y-105938095D01*
X202547619Y-105890476D01*
X202642857Y-105842857D01*
X202785714Y-105842857D01*
X202880952Y-105890476D01*
X202928571Y-105938095D01*
X202976190Y-106033333D01*
X202976190Y-106414286D01*
X202452381Y-105509524D02*
X202452381Y-104890476D01*
X202833333Y-105223810D01*
X202833333Y-105080952D01*
X202880952Y-104985714D01*
X202928571Y-104938095D01*
X203023810Y-104890476D01*
X203261905Y-104890476D01*
X203357143Y-104938095D01*
X203404762Y-104985714D01*
X203452381Y-105080952D01*
X203452381Y-105366667D01*
X203404762Y-105461905D01*
X203357143Y-105509524D01*
X202547619Y-104509524D02*
X202500000Y-104461905D01*
X202452381Y-104366667D01*
X202452381Y-104128571D01*
X202500000Y-104033333D01*
X202547619Y-103985714D01*
X202642857Y-103938095D01*
X202738095Y-103938095D01*
X202880952Y-103985714D01*
X203452381Y-104557143D01*
X203452381Y-103938095D01*
X180952381Y-130469047D02*
X180476190Y-130802381D01*
X180952381Y-131040476D02*
X179952381Y-131040476D01*
X179952381Y-130659523D01*
X180000000Y-130564285D01*
X180047619Y-130516666D01*
X180142857Y-130469047D01*
X180285714Y-130469047D01*
X180380952Y-130516666D01*
X180428571Y-130564285D01*
X180476190Y-130659523D01*
X180476190Y-131040476D01*
X180952381Y-129516666D02*
X180952381Y-130088095D01*
X180952381Y-129802381D02*
X179952381Y-129802381D01*
X180095238Y-129897619D01*
X180190476Y-129992857D01*
X180238095Y-130088095D01*
X179952381Y-128897619D02*
X179952381Y-128802380D01*
X180000000Y-128707142D01*
X180047619Y-128659523D01*
X180142857Y-128611904D01*
X180333333Y-128564285D01*
X180571429Y-128564285D01*
X180761905Y-128611904D01*
X180857143Y-128659523D01*
X180904762Y-128707142D01*
X180952381Y-128802380D01*
X180952381Y-128897619D01*
X180904762Y-128992857D01*
X180857143Y-129040476D01*
X180761905Y-129088095D01*
X180571429Y-129135714D01*
X180333333Y-129135714D01*
X180142857Y-129088095D01*
X180047619Y-129040476D01*
X180000000Y-128992857D01*
X179952381Y-128897619D01*
X180952381Y-127611904D02*
X180952381Y-128183333D01*
X180952381Y-127897619D02*
X179952381Y-127897619D01*
X180095238Y-127992857D01*
X180190476Y-128088095D01*
X180238095Y-128183333D01*
X195202381Y-138019047D02*
X194726190Y-138352381D01*
X195202381Y-138590476D02*
X194202381Y-138590476D01*
X194202381Y-138209523D01*
X194250000Y-138114285D01*
X194297619Y-138066666D01*
X194392857Y-138019047D01*
X194535714Y-138019047D01*
X194630952Y-138066666D01*
X194678571Y-138114285D01*
X194726190Y-138209523D01*
X194726190Y-138590476D01*
X195202381Y-137066666D02*
X195202381Y-137638095D01*
X195202381Y-137352381D02*
X194202381Y-137352381D01*
X194345238Y-137447619D01*
X194440476Y-137542857D01*
X194488095Y-137638095D01*
X194202381Y-136447619D02*
X194202381Y-136352380D01*
X194250000Y-136257142D01*
X194297619Y-136209523D01*
X194392857Y-136161904D01*
X194583333Y-136114285D01*
X194821429Y-136114285D01*
X195011905Y-136161904D01*
X195107143Y-136209523D01*
X195154762Y-136257142D01*
X195202381Y-136352380D01*
X195202381Y-136447619D01*
X195154762Y-136542857D01*
X195107143Y-136590476D01*
X195011905Y-136638095D01*
X194821429Y-136685714D01*
X194583333Y-136685714D01*
X194392857Y-136638095D01*
X194297619Y-136590476D01*
X194250000Y-136542857D01*
X194202381Y-136447619D01*
X194202381Y-135780952D02*
X194202381Y-135161904D01*
X194583333Y-135495238D01*
X194583333Y-135352380D01*
X194630952Y-135257142D01*
X194678571Y-135209523D01*
X194773810Y-135161904D01*
X195011905Y-135161904D01*
X195107143Y-135209523D01*
X195154762Y-135257142D01*
X195202381Y-135352380D01*
X195202381Y-135638095D01*
X195154762Y-135733333D01*
X195107143Y-135780952D01*
X187652381Y-133019047D02*
X187176190Y-133352381D01*
X187652381Y-133590476D02*
X186652381Y-133590476D01*
X186652381Y-133209523D01*
X186700000Y-133114285D01*
X186747619Y-133066666D01*
X186842857Y-133019047D01*
X186985714Y-133019047D01*
X187080952Y-133066666D01*
X187128571Y-133114285D01*
X187176190Y-133209523D01*
X187176190Y-133590476D01*
X187652381Y-132066666D02*
X187652381Y-132638095D01*
X187652381Y-132352381D02*
X186652381Y-132352381D01*
X186795238Y-132447619D01*
X186890476Y-132542857D01*
X186938095Y-132638095D01*
X186652381Y-131447619D02*
X186652381Y-131352380D01*
X186700000Y-131257142D01*
X186747619Y-131209523D01*
X186842857Y-131161904D01*
X187033333Y-131114285D01*
X187271429Y-131114285D01*
X187461905Y-131161904D01*
X187557143Y-131209523D01*
X187604762Y-131257142D01*
X187652381Y-131352380D01*
X187652381Y-131447619D01*
X187604762Y-131542857D01*
X187557143Y-131590476D01*
X187461905Y-131638095D01*
X187271429Y-131685714D01*
X187033333Y-131685714D01*
X186842857Y-131638095D01*
X186747619Y-131590476D01*
X186700000Y-131542857D01*
X186652381Y-131447619D01*
X186985714Y-130257142D02*
X187652381Y-130257142D01*
X186604762Y-130495238D02*
X187319048Y-130733333D01*
X187319048Y-130114285D01*
X204102381Y-134869047D02*
X203626190Y-135202381D01*
X204102381Y-135440476D02*
X203102381Y-135440476D01*
X203102381Y-135059523D01*
X203150000Y-134964285D01*
X203197619Y-134916666D01*
X203292857Y-134869047D01*
X203435714Y-134869047D01*
X203530952Y-134916666D01*
X203578571Y-134964285D01*
X203626190Y-135059523D01*
X203626190Y-135440476D01*
X204102381Y-133916666D02*
X204102381Y-134488095D01*
X204102381Y-134202381D02*
X203102381Y-134202381D01*
X203245238Y-134297619D01*
X203340476Y-134392857D01*
X203388095Y-134488095D01*
X203102381Y-133297619D02*
X203102381Y-133202380D01*
X203150000Y-133107142D01*
X203197619Y-133059523D01*
X203292857Y-133011904D01*
X203483333Y-132964285D01*
X203721429Y-132964285D01*
X203911905Y-133011904D01*
X204007143Y-133059523D01*
X204054762Y-133107142D01*
X204102381Y-133202380D01*
X204102381Y-133297619D01*
X204054762Y-133392857D01*
X204007143Y-133440476D01*
X203911905Y-133488095D01*
X203721429Y-133535714D01*
X203483333Y-133535714D01*
X203292857Y-133488095D01*
X203197619Y-133440476D01*
X203150000Y-133392857D01*
X203102381Y-133297619D01*
X203102381Y-132107142D02*
X203102381Y-132297619D01*
X203150000Y-132392857D01*
X203197619Y-132440476D01*
X203340476Y-132535714D01*
X203530952Y-132583333D01*
X203911905Y-132583333D01*
X204007143Y-132535714D01*
X204054762Y-132488095D01*
X204102381Y-132392857D01*
X204102381Y-132202380D01*
X204054762Y-132107142D01*
X204007143Y-132059523D01*
X203911905Y-132011904D01*
X203673810Y-132011904D01*
X203578571Y-132059523D01*
X203530952Y-132107142D01*
X203483333Y-132202380D01*
X203483333Y-132392857D01*
X203530952Y-132488095D01*
X203578571Y-132535714D01*
X203673810Y-132583333D01*
X211202381Y-128369047D02*
X210726190Y-128702381D01*
X211202381Y-128940476D02*
X210202381Y-128940476D01*
X210202381Y-128559523D01*
X210250000Y-128464285D01*
X210297619Y-128416666D01*
X210392857Y-128369047D01*
X210535714Y-128369047D01*
X210630952Y-128416666D01*
X210678571Y-128464285D01*
X210726190Y-128559523D01*
X210726190Y-128940476D01*
X211202381Y-127416666D02*
X211202381Y-127988095D01*
X211202381Y-127702381D02*
X210202381Y-127702381D01*
X210345238Y-127797619D01*
X210440476Y-127892857D01*
X210488095Y-127988095D01*
X210202381Y-126797619D02*
X210202381Y-126702380D01*
X210250000Y-126607142D01*
X210297619Y-126559523D01*
X210392857Y-126511904D01*
X210583333Y-126464285D01*
X210821429Y-126464285D01*
X211011905Y-126511904D01*
X211107143Y-126559523D01*
X211154762Y-126607142D01*
X211202381Y-126702380D01*
X211202381Y-126797619D01*
X211154762Y-126892857D01*
X211107143Y-126940476D01*
X211011905Y-126988095D01*
X210821429Y-127035714D01*
X210583333Y-127035714D01*
X210392857Y-126988095D01*
X210297619Y-126940476D01*
X210250000Y-126892857D01*
X210202381Y-126797619D01*
X210202381Y-126130952D02*
X210202381Y-125464285D01*
X211202381Y-125892857D01*
X219152381Y-122469047D02*
X218676190Y-122802381D01*
X219152381Y-123040476D02*
X218152381Y-123040476D01*
X218152381Y-122659523D01*
X218200000Y-122564285D01*
X218247619Y-122516666D01*
X218342857Y-122469047D01*
X218485714Y-122469047D01*
X218580952Y-122516666D01*
X218628571Y-122564285D01*
X218676190Y-122659523D01*
X218676190Y-123040476D01*
X219152381Y-121516666D02*
X219152381Y-122088095D01*
X219152381Y-121802381D02*
X218152381Y-121802381D01*
X218295238Y-121897619D01*
X218390476Y-121992857D01*
X218438095Y-122088095D01*
X218152381Y-120897619D02*
X218152381Y-120802380D01*
X218200000Y-120707142D01*
X218247619Y-120659523D01*
X218342857Y-120611904D01*
X218533333Y-120564285D01*
X218771429Y-120564285D01*
X218961905Y-120611904D01*
X219057143Y-120659523D01*
X219104762Y-120707142D01*
X219152381Y-120802380D01*
X219152381Y-120897619D01*
X219104762Y-120992857D01*
X219057143Y-121040476D01*
X218961905Y-121088095D01*
X218771429Y-121135714D01*
X218533333Y-121135714D01*
X218342857Y-121088095D01*
X218247619Y-121040476D01*
X218200000Y-120992857D01*
X218152381Y-120897619D01*
X218580952Y-119992857D02*
X218533333Y-120088095D01*
X218485714Y-120135714D01*
X218390476Y-120183333D01*
X218342857Y-120183333D01*
X218247619Y-120135714D01*
X218200000Y-120088095D01*
X218152381Y-119992857D01*
X218152381Y-119802380D01*
X218200000Y-119707142D01*
X218247619Y-119659523D01*
X218342857Y-119611904D01*
X218390476Y-119611904D01*
X218485714Y-119659523D01*
X218533333Y-119707142D01*
X218580952Y-119802380D01*
X218580952Y-119992857D01*
X218628571Y-120088095D01*
X218676190Y-120135714D01*
X218771429Y-120183333D01*
X218961905Y-120183333D01*
X219057143Y-120135714D01*
X219104762Y-120088095D01*
X219152381Y-119992857D01*
X219152381Y-119802380D01*
X219104762Y-119707142D01*
X219057143Y-119659523D01*
X218961905Y-119611904D01*
X218771429Y-119611904D01*
X218676190Y-119659523D01*
X218628571Y-119707142D01*
X218580952Y-119802380D01*
X212302381Y-143369047D02*
X211826190Y-143702381D01*
X212302381Y-143940476D02*
X211302381Y-143940476D01*
X211302381Y-143559523D01*
X211350000Y-143464285D01*
X211397619Y-143416666D01*
X211492857Y-143369047D01*
X211635714Y-143369047D01*
X211730952Y-143416666D01*
X211778571Y-143464285D01*
X211826190Y-143559523D01*
X211826190Y-143940476D01*
X212302381Y-142416666D02*
X212302381Y-142988095D01*
X212302381Y-142702381D02*
X211302381Y-142702381D01*
X211445238Y-142797619D01*
X211540476Y-142892857D01*
X211588095Y-142988095D01*
X211302381Y-141797619D02*
X211302381Y-141702380D01*
X211350000Y-141607142D01*
X211397619Y-141559523D01*
X211492857Y-141511904D01*
X211683333Y-141464285D01*
X211921429Y-141464285D01*
X212111905Y-141511904D01*
X212207143Y-141559523D01*
X212254762Y-141607142D01*
X212302381Y-141702380D01*
X212302381Y-141797619D01*
X212254762Y-141892857D01*
X212207143Y-141940476D01*
X212111905Y-141988095D01*
X211921429Y-142035714D01*
X211683333Y-142035714D01*
X211492857Y-141988095D01*
X211397619Y-141940476D01*
X211350000Y-141892857D01*
X211302381Y-141797619D01*
X212302381Y-140988095D02*
X212302381Y-140797619D01*
X212254762Y-140702380D01*
X212207143Y-140654761D01*
X212064286Y-140559523D01*
X211873810Y-140511904D01*
X211492857Y-140511904D01*
X211397619Y-140559523D01*
X211350000Y-140607142D01*
X211302381Y-140702380D01*
X211302381Y-140892857D01*
X211350000Y-140988095D01*
X211397619Y-141035714D01*
X211492857Y-141083333D01*
X211730952Y-141083333D01*
X211826190Y-141035714D01*
X211873810Y-140988095D01*
X211921429Y-140892857D01*
X211921429Y-140702380D01*
X211873810Y-140607142D01*
X211826190Y-140559523D01*
X211730952Y-140511904D01*
X197230953Y-140452381D02*
X196897619Y-139976190D01*
X196659524Y-140452381D02*
X196659524Y-139452381D01*
X197040477Y-139452381D01*
X197135715Y-139500000D01*
X197183334Y-139547619D01*
X197230953Y-139642857D01*
X197230953Y-139785714D01*
X197183334Y-139880952D01*
X197135715Y-139928571D01*
X197040477Y-139976190D01*
X196659524Y-139976190D01*
X198183334Y-140452381D02*
X197611905Y-140452381D01*
X197897619Y-140452381D02*
X197897619Y-139452381D01*
X197802381Y-139595238D01*
X197707143Y-139690476D01*
X197611905Y-139738095D01*
X199135715Y-140452381D02*
X198564286Y-140452381D01*
X198850000Y-140452381D02*
X198850000Y-139452381D01*
X198754762Y-139595238D01*
X198659524Y-139690476D01*
X198564286Y-139738095D01*
X199754762Y-139452381D02*
X199850001Y-139452381D01*
X199945239Y-139500000D01*
X199992858Y-139547619D01*
X200040477Y-139642857D01*
X200088096Y-139833333D01*
X200088096Y-140071429D01*
X200040477Y-140261905D01*
X199992858Y-140357143D01*
X199945239Y-140404762D01*
X199850001Y-140452381D01*
X199754762Y-140452381D01*
X199659524Y-140404762D01*
X199611905Y-140357143D01*
X199564286Y-140261905D01*
X199516667Y-140071429D01*
X199516667Y-139833333D01*
X199564286Y-139642857D01*
X199611905Y-139547619D01*
X199659524Y-139500000D01*
X199754762Y-139452381D01*
X180752381Y-140019047D02*
X180276190Y-140352381D01*
X180752381Y-140590476D02*
X179752381Y-140590476D01*
X179752381Y-140209523D01*
X179800000Y-140114285D01*
X179847619Y-140066666D01*
X179942857Y-140019047D01*
X180085714Y-140019047D01*
X180180952Y-140066666D01*
X180228571Y-140114285D01*
X180276190Y-140209523D01*
X180276190Y-140590476D01*
X180752381Y-139066666D02*
X180752381Y-139638095D01*
X180752381Y-139352381D02*
X179752381Y-139352381D01*
X179895238Y-139447619D01*
X179990476Y-139542857D01*
X180038095Y-139638095D01*
X180752381Y-138114285D02*
X180752381Y-138685714D01*
X180752381Y-138400000D02*
X179752381Y-138400000D01*
X179895238Y-138495238D01*
X179990476Y-138590476D01*
X180038095Y-138685714D01*
X180752381Y-137161904D02*
X180752381Y-137733333D01*
X180752381Y-137447619D02*
X179752381Y-137447619D01*
X179895238Y-137542857D01*
X179990476Y-137638095D01*
X180038095Y-137733333D01*
X215802381Y-137097619D02*
X215326190Y-137430953D01*
X215802381Y-137669048D02*
X214802381Y-137669048D01*
X214802381Y-137288095D01*
X214850000Y-137192857D01*
X214897619Y-137145238D01*
X214992857Y-137097619D01*
X215135714Y-137097619D01*
X215230952Y-137145238D01*
X215278571Y-137192857D01*
X215326190Y-137288095D01*
X215326190Y-137669048D01*
X214802381Y-136811905D02*
X215802381Y-136478572D01*
X214802381Y-136145238D01*
X215802381Y-135288095D02*
X215802381Y-135859524D01*
X215802381Y-135573810D02*
X214802381Y-135573810D01*
X214945238Y-135669048D01*
X215040476Y-135764286D01*
X215088095Y-135859524D01*
X214802381Y-134669048D02*
X214802381Y-134573809D01*
X214850000Y-134478571D01*
X214897619Y-134430952D01*
X214992857Y-134383333D01*
X215183333Y-134335714D01*
X215421429Y-134335714D01*
X215611905Y-134383333D01*
X215707143Y-134430952D01*
X215754762Y-134478571D01*
X215802381Y-134573809D01*
X215802381Y-134669048D01*
X215754762Y-134764286D01*
X215707143Y-134811905D01*
X215611905Y-134859524D01*
X215421429Y-134907143D01*
X215183333Y-134907143D01*
X214992857Y-134859524D01*
X214897619Y-134811905D01*
X214850000Y-134764286D01*
X214802381Y-134669048D01*
X215802381Y-133383333D02*
X215802381Y-133954762D01*
X215802381Y-133669048D02*
X214802381Y-133669048D01*
X214945238Y-133764286D01*
X215040476Y-133859524D01*
X215088095Y-133954762D01*
X190052381Y-141102381D02*
X189719047Y-140626190D01*
X189480952Y-141102381D02*
X189480952Y-140102381D01*
X189861905Y-140102381D01*
X189957143Y-140150000D01*
X190004762Y-140197619D01*
X190052381Y-140292857D01*
X190052381Y-140435714D01*
X190004762Y-140530952D01*
X189957143Y-140578571D01*
X189861905Y-140626190D01*
X189480952Y-140626190D01*
X190338095Y-140102381D02*
X190671428Y-141102381D01*
X191004762Y-140102381D01*
X191861905Y-141102381D02*
X191290476Y-141102381D01*
X191576190Y-141102381D02*
X191576190Y-140102381D01*
X191480952Y-140245238D01*
X191385714Y-140340476D01*
X191290476Y-140388095D01*
X192480952Y-140102381D02*
X192576191Y-140102381D01*
X192671429Y-140150000D01*
X192719048Y-140197619D01*
X192766667Y-140292857D01*
X192814286Y-140483333D01*
X192814286Y-140721429D01*
X192766667Y-140911905D01*
X192719048Y-141007143D01*
X192671429Y-141054762D01*
X192576191Y-141102381D01*
X192480952Y-141102381D01*
X192385714Y-141054762D01*
X192338095Y-141007143D01*
X192290476Y-140911905D01*
X192242857Y-140721429D01*
X192242857Y-140483333D01*
X192290476Y-140292857D01*
X192338095Y-140197619D01*
X192385714Y-140150000D01*
X192480952Y-140102381D01*
X193195238Y-140197619D02*
X193242857Y-140150000D01*
X193338095Y-140102381D01*
X193576191Y-140102381D01*
X193671429Y-140150000D01*
X193719048Y-140197619D01*
X193766667Y-140292857D01*
X193766667Y-140388095D01*
X193719048Y-140530952D01*
X193147619Y-141102381D01*
X193766667Y-141102381D01*
X198752381Y-64588095D02*
X197752381Y-64588095D01*
X197752381Y-64350000D01*
X197800000Y-64207142D01*
X197895238Y-64111904D01*
X197990476Y-64064285D01*
X198180952Y-64016666D01*
X198323810Y-64016666D01*
X198514286Y-64064285D01*
X198609524Y-64111904D01*
X198704762Y-64207142D01*
X198752381Y-64350000D01*
X198752381Y-64588095D01*
X198752381Y-63064285D02*
X198752381Y-63635714D01*
X198752381Y-63350000D02*
X197752381Y-63350000D01*
X197895238Y-63445238D01*
X197990476Y-63540476D01*
X198038095Y-63635714D01*
X198952381Y-70038095D02*
X197952381Y-70038095D01*
X197952381Y-69800000D01*
X198000000Y-69657142D01*
X198095238Y-69561904D01*
X198190476Y-69514285D01*
X198380952Y-69466666D01*
X198523810Y-69466666D01*
X198714286Y-69514285D01*
X198809524Y-69561904D01*
X198904762Y-69657142D01*
X198952381Y-69800000D01*
X198952381Y-70038095D01*
X198047619Y-69085714D02*
X198000000Y-69038095D01*
X197952381Y-68942857D01*
X197952381Y-68704761D01*
X198000000Y-68609523D01*
X198047619Y-68561904D01*
X198142857Y-68514285D01*
X198238095Y-68514285D01*
X198380952Y-68561904D01*
X198952381Y-69133333D01*
X198952381Y-68514285D01*
X218661905Y-80352381D02*
X218661905Y-79352381D01*
X218900000Y-79352381D01*
X219042858Y-79400000D01*
X219138096Y-79495238D01*
X219185715Y-79590476D01*
X219233334Y-79780952D01*
X219233334Y-79923810D01*
X219185715Y-80114286D01*
X219138096Y-80209524D01*
X219042858Y-80304762D01*
X218900000Y-80352381D01*
X218661905Y-80352381D01*
X219566667Y-79352381D02*
X220185715Y-79352381D01*
X219852381Y-79733333D01*
X219995239Y-79733333D01*
X220090477Y-79780952D01*
X220138096Y-79828571D01*
X220185715Y-79923810D01*
X220185715Y-80161905D01*
X220138096Y-80257143D01*
X220090477Y-80304762D01*
X219995239Y-80352381D01*
X219709524Y-80352381D01*
X219614286Y-80304762D01*
X219566667Y-80257143D01*
X223752381Y-81738095D02*
X222752381Y-81738095D01*
X222752381Y-81500000D01*
X222800000Y-81357142D01*
X222895238Y-81261904D01*
X222990476Y-81214285D01*
X223180952Y-81166666D01*
X223323810Y-81166666D01*
X223514286Y-81214285D01*
X223609524Y-81261904D01*
X223704762Y-81357142D01*
X223752381Y-81500000D01*
X223752381Y-81738095D01*
X223085714Y-80309523D02*
X223752381Y-80309523D01*
X222704762Y-80547619D02*
X223419048Y-80785714D01*
X223419048Y-80166666D01*
X207302381Y-65488095D02*
X206302381Y-65488095D01*
X206302381Y-65250000D01*
X206350000Y-65107142D01*
X206445238Y-65011904D01*
X206540476Y-64964285D01*
X206730952Y-64916666D01*
X206873810Y-64916666D01*
X207064286Y-64964285D01*
X207159524Y-65011904D01*
X207254762Y-65107142D01*
X207302381Y-65250000D01*
X207302381Y-65488095D01*
X206302381Y-64011904D02*
X206302381Y-64488095D01*
X206778571Y-64535714D01*
X206730952Y-64488095D01*
X206683333Y-64392857D01*
X206683333Y-64154761D01*
X206730952Y-64059523D01*
X206778571Y-64011904D01*
X206873810Y-63964285D01*
X207111905Y-63964285D01*
X207207143Y-64011904D01*
X207254762Y-64059523D01*
X207302381Y-64154761D01*
X207302381Y-64392857D01*
X207254762Y-64488095D01*
X207207143Y-64535714D01*
X213402381Y-65988095D02*
X212402381Y-65988095D01*
X212402381Y-65750000D01*
X212450000Y-65607142D01*
X212545238Y-65511904D01*
X212640476Y-65464285D01*
X212830952Y-65416666D01*
X212973810Y-65416666D01*
X213164286Y-65464285D01*
X213259524Y-65511904D01*
X213354762Y-65607142D01*
X213402381Y-65750000D01*
X213402381Y-65988095D01*
X212402381Y-64559523D02*
X212402381Y-64750000D01*
X212450000Y-64845238D01*
X212497619Y-64892857D01*
X212640476Y-64988095D01*
X212830952Y-65035714D01*
X213211905Y-65035714D01*
X213307143Y-64988095D01*
X213354762Y-64940476D01*
X213402381Y-64845238D01*
X213402381Y-64654761D01*
X213354762Y-64559523D01*
X213307143Y-64511904D01*
X213211905Y-64464285D01*
X212973810Y-64464285D01*
X212878571Y-64511904D01*
X212830952Y-64559523D01*
X212783333Y-64654761D01*
X212783333Y-64845238D01*
X212830952Y-64940476D01*
X212878571Y-64988095D01*
X212973810Y-65035714D01*
X174462381Y-81523333D02*
X175176667Y-81523333D01*
X175319524Y-81570953D01*
X175414762Y-81666191D01*
X175462381Y-81809048D01*
X175462381Y-81904286D01*
X175462381Y-80523333D02*
X175462381Y-81094762D01*
X175462381Y-80809048D02*
X174462381Y-80809048D01*
X174605238Y-80904286D01*
X174700476Y-80999524D01*
X174748095Y-81094762D01*
X181547619Y-68245238D02*
X181500000Y-68340476D01*
X181404762Y-68435714D01*
X181261905Y-68578571D01*
X181214286Y-68673810D01*
X181214286Y-68769048D01*
X181452381Y-68721429D02*
X181404762Y-68816667D01*
X181309524Y-68911905D01*
X181119048Y-68959524D01*
X180785714Y-68959524D01*
X180595238Y-68911905D01*
X180500000Y-68816667D01*
X180452381Y-68721429D01*
X180452381Y-68530952D01*
X180500000Y-68435714D01*
X180595238Y-68340476D01*
X180785714Y-68292857D01*
X181119048Y-68292857D01*
X181309524Y-68340476D01*
X181404762Y-68435714D01*
X181452381Y-68530952D01*
X181452381Y-68721429D01*
X181452381Y-67340476D02*
X181452381Y-67911905D01*
X181452381Y-67626191D02*
X180452381Y-67626191D01*
X180595238Y-67721429D01*
X180690476Y-67816667D01*
X180738095Y-67911905D01*
X186297619Y-78695238D02*
X186250000Y-78790476D01*
X186154762Y-78885714D01*
X186011905Y-79028571D01*
X185964286Y-79123810D01*
X185964286Y-79219048D01*
X186202381Y-79171429D02*
X186154762Y-79266667D01*
X186059524Y-79361905D01*
X185869048Y-79409524D01*
X185535714Y-79409524D01*
X185345238Y-79361905D01*
X185250000Y-79266667D01*
X185202381Y-79171429D01*
X185202381Y-78980952D01*
X185250000Y-78885714D01*
X185345238Y-78790476D01*
X185535714Y-78742857D01*
X185869048Y-78742857D01*
X186059524Y-78790476D01*
X186154762Y-78885714D01*
X186202381Y-78980952D01*
X186202381Y-79171429D01*
X185297619Y-78361905D02*
X185250000Y-78314286D01*
X185202381Y-78219048D01*
X185202381Y-77980952D01*
X185250000Y-77885714D01*
X185297619Y-77838095D01*
X185392857Y-77790476D01*
X185488095Y-77790476D01*
X185630952Y-77838095D01*
X186202381Y-78409524D01*
X186202381Y-77790476D01*
X188054762Y-67897619D02*
X187959524Y-67850000D01*
X187864286Y-67754762D01*
X187721429Y-67611905D01*
X187626190Y-67564286D01*
X187530952Y-67564286D01*
X187578571Y-67802381D02*
X187483333Y-67754762D01*
X187388095Y-67659524D01*
X187340476Y-67469048D01*
X187340476Y-67135714D01*
X187388095Y-66945238D01*
X187483333Y-66850000D01*
X187578571Y-66802381D01*
X187769048Y-66802381D01*
X187864286Y-66850000D01*
X187959524Y-66945238D01*
X188007143Y-67135714D01*
X188007143Y-67469048D01*
X187959524Y-67659524D01*
X187864286Y-67754762D01*
X187769048Y-67802381D01*
X187578571Y-67802381D01*
X188340476Y-66802381D02*
X188959524Y-66802381D01*
X188626190Y-67183333D01*
X188769048Y-67183333D01*
X188864286Y-67230952D01*
X188911905Y-67278571D01*
X188959524Y-67373810D01*
X188959524Y-67611905D01*
X188911905Y-67707143D01*
X188864286Y-67754762D01*
X188769048Y-67802381D01*
X188483333Y-67802381D01*
X188388095Y-67754762D01*
X188340476Y-67707143D01*
X190097619Y-78695238D02*
X190050000Y-78790476D01*
X189954762Y-78885714D01*
X189811905Y-79028571D01*
X189764286Y-79123810D01*
X189764286Y-79219048D01*
X190002381Y-79171429D02*
X189954762Y-79266667D01*
X189859524Y-79361905D01*
X189669048Y-79409524D01*
X189335714Y-79409524D01*
X189145238Y-79361905D01*
X189050000Y-79266667D01*
X189002381Y-79171429D01*
X189002381Y-78980952D01*
X189050000Y-78885714D01*
X189145238Y-78790476D01*
X189335714Y-78742857D01*
X189669048Y-78742857D01*
X189859524Y-78790476D01*
X189954762Y-78885714D01*
X190002381Y-78980952D01*
X190002381Y-79171429D01*
X189335714Y-77885714D02*
X190002381Y-77885714D01*
X188954762Y-78123810D02*
X189669048Y-78361905D01*
X189669048Y-77742857D01*
X185297619Y-70295238D02*
X185250000Y-70390476D01*
X185154762Y-70485714D01*
X185011905Y-70628571D01*
X184964286Y-70723810D01*
X184964286Y-70819048D01*
X185202381Y-70771429D02*
X185154762Y-70866667D01*
X185059524Y-70961905D01*
X184869048Y-71009524D01*
X184535714Y-71009524D01*
X184345238Y-70961905D01*
X184250000Y-70866667D01*
X184202381Y-70771429D01*
X184202381Y-70580952D01*
X184250000Y-70485714D01*
X184345238Y-70390476D01*
X184535714Y-70342857D01*
X184869048Y-70342857D01*
X185059524Y-70390476D01*
X185154762Y-70485714D01*
X185202381Y-70580952D01*
X185202381Y-70771429D01*
X184202381Y-69438095D02*
X184202381Y-69914286D01*
X184678571Y-69961905D01*
X184630952Y-69914286D01*
X184583333Y-69819048D01*
X184583333Y-69580952D01*
X184630952Y-69485714D01*
X184678571Y-69438095D01*
X184773810Y-69390476D01*
X185011905Y-69390476D01*
X185107143Y-69438095D01*
X185154762Y-69485714D01*
X185202381Y-69580952D01*
X185202381Y-69819048D01*
X185154762Y-69914286D01*
X185107143Y-69961905D01*
X196247619Y-78195238D02*
X196200000Y-78290476D01*
X196104762Y-78385714D01*
X195961905Y-78528571D01*
X195914286Y-78623810D01*
X195914286Y-78719048D01*
X196152381Y-78671429D02*
X196104762Y-78766667D01*
X196009524Y-78861905D01*
X195819048Y-78909524D01*
X195485714Y-78909524D01*
X195295238Y-78861905D01*
X195200000Y-78766667D01*
X195152381Y-78671429D01*
X195152381Y-78480952D01*
X195200000Y-78385714D01*
X195295238Y-78290476D01*
X195485714Y-78242857D01*
X195819048Y-78242857D01*
X196009524Y-78290476D01*
X196104762Y-78385714D01*
X196152381Y-78480952D01*
X196152381Y-78671429D01*
X195152381Y-77385714D02*
X195152381Y-77576191D01*
X195200000Y-77671429D01*
X195247619Y-77719048D01*
X195390476Y-77814286D01*
X195580952Y-77861905D01*
X195961905Y-77861905D01*
X196057143Y-77814286D01*
X196104762Y-77766667D01*
X196152381Y-77671429D01*
X196152381Y-77480952D01*
X196104762Y-77385714D01*
X196057143Y-77338095D01*
X195961905Y-77290476D01*
X195723810Y-77290476D01*
X195628571Y-77338095D01*
X195580952Y-77385714D01*
X195533333Y-77480952D01*
X195533333Y-77671429D01*
X195580952Y-77766667D01*
X195628571Y-77814286D01*
X195723810Y-77861905D01*
X197047619Y-76645238D02*
X197000000Y-76740476D01*
X196904762Y-76835714D01*
X196761905Y-76978571D01*
X196714286Y-77073810D01*
X196714286Y-77169048D01*
X196952381Y-77121429D02*
X196904762Y-77216667D01*
X196809524Y-77311905D01*
X196619048Y-77359524D01*
X196285714Y-77359524D01*
X196095238Y-77311905D01*
X196000000Y-77216667D01*
X195952381Y-77121429D01*
X195952381Y-76930952D01*
X196000000Y-76835714D01*
X196095238Y-76740476D01*
X196285714Y-76692857D01*
X196619048Y-76692857D01*
X196809524Y-76740476D01*
X196904762Y-76835714D01*
X196952381Y-76930952D01*
X196952381Y-77121429D01*
X195952381Y-76359524D02*
X195952381Y-75692857D01*
X196952381Y-76121429D01*
X203447619Y-71795238D02*
X203400000Y-71890476D01*
X203304762Y-71985714D01*
X203161905Y-72128571D01*
X203114286Y-72223810D01*
X203114286Y-72319048D01*
X203352381Y-72271429D02*
X203304762Y-72366667D01*
X203209524Y-72461905D01*
X203019048Y-72509524D01*
X202685714Y-72509524D01*
X202495238Y-72461905D01*
X202400000Y-72366667D01*
X202352381Y-72271429D01*
X202352381Y-72080952D01*
X202400000Y-71985714D01*
X202495238Y-71890476D01*
X202685714Y-71842857D01*
X203019048Y-71842857D01*
X203209524Y-71890476D01*
X203304762Y-71985714D01*
X203352381Y-72080952D01*
X203352381Y-72271429D01*
X202780952Y-71271429D02*
X202733333Y-71366667D01*
X202685714Y-71414286D01*
X202590476Y-71461905D01*
X202542857Y-71461905D01*
X202447619Y-71414286D01*
X202400000Y-71366667D01*
X202352381Y-71271429D01*
X202352381Y-71080952D01*
X202400000Y-70985714D01*
X202447619Y-70938095D01*
X202542857Y-70890476D01*
X202590476Y-70890476D01*
X202685714Y-70938095D01*
X202733333Y-70985714D01*
X202780952Y-71080952D01*
X202780952Y-71271429D01*
X202828571Y-71366667D01*
X202876190Y-71414286D01*
X202971429Y-71461905D01*
X203161905Y-71461905D01*
X203257143Y-71414286D01*
X203304762Y-71366667D01*
X203352381Y-71271429D01*
X203352381Y-71080952D01*
X203304762Y-70985714D01*
X203257143Y-70938095D01*
X203161905Y-70890476D01*
X202971429Y-70890476D01*
X202876190Y-70938095D01*
X202828571Y-70985714D01*
X202780952Y-71080952D01*
X204397619Y-79245238D02*
X204350000Y-79340476D01*
X204254762Y-79435714D01*
X204111905Y-79578571D01*
X204064286Y-79673810D01*
X204064286Y-79769048D01*
X204302381Y-79721429D02*
X204254762Y-79816667D01*
X204159524Y-79911905D01*
X203969048Y-79959524D01*
X203635714Y-79959524D01*
X203445238Y-79911905D01*
X203350000Y-79816667D01*
X203302381Y-79721429D01*
X203302381Y-79530952D01*
X203350000Y-79435714D01*
X203445238Y-79340476D01*
X203635714Y-79292857D01*
X203969048Y-79292857D01*
X204159524Y-79340476D01*
X204254762Y-79435714D01*
X204302381Y-79530952D01*
X204302381Y-79721429D01*
X204302381Y-78816667D02*
X204302381Y-78626191D01*
X204254762Y-78530952D01*
X204207143Y-78483333D01*
X204064286Y-78388095D01*
X203873810Y-78340476D01*
X203492857Y-78340476D01*
X203397619Y-78388095D01*
X203350000Y-78435714D01*
X203302381Y-78530952D01*
X203302381Y-78721429D01*
X203350000Y-78816667D01*
X203397619Y-78864286D01*
X203492857Y-78911905D01*
X203730952Y-78911905D01*
X203826190Y-78864286D01*
X203873810Y-78816667D01*
X203921429Y-78721429D01*
X203921429Y-78530952D01*
X203873810Y-78435714D01*
X203826190Y-78388095D01*
X203730952Y-78340476D01*
X203947619Y-68821428D02*
X203900000Y-68916666D01*
X203804762Y-69011904D01*
X203661905Y-69154761D01*
X203614286Y-69250000D01*
X203614286Y-69345238D01*
X203852381Y-69297619D02*
X203804762Y-69392857D01*
X203709524Y-69488095D01*
X203519048Y-69535714D01*
X203185714Y-69535714D01*
X202995238Y-69488095D01*
X202900000Y-69392857D01*
X202852381Y-69297619D01*
X202852381Y-69107142D01*
X202900000Y-69011904D01*
X202995238Y-68916666D01*
X203185714Y-68869047D01*
X203519048Y-68869047D01*
X203709524Y-68916666D01*
X203804762Y-69011904D01*
X203852381Y-69107142D01*
X203852381Y-69297619D01*
X203852381Y-67916666D02*
X203852381Y-68488095D01*
X203852381Y-68202381D02*
X202852381Y-68202381D01*
X202995238Y-68297619D01*
X203090476Y-68392857D01*
X203138095Y-68488095D01*
X202852381Y-67297619D02*
X202852381Y-67202380D01*
X202900000Y-67107142D01*
X202947619Y-67059523D01*
X203042857Y-67011904D01*
X203233333Y-66964285D01*
X203471429Y-66964285D01*
X203661905Y-67011904D01*
X203757143Y-67059523D01*
X203804762Y-67107142D01*
X203852381Y-67202380D01*
X203852381Y-67297619D01*
X203804762Y-67392857D01*
X203757143Y-67440476D01*
X203661905Y-67488095D01*
X203471429Y-67535714D01*
X203233333Y-67535714D01*
X203042857Y-67488095D01*
X202947619Y-67440476D01*
X202900000Y-67392857D01*
X202852381Y-67297619D01*
X209778572Y-79347619D02*
X209683334Y-79300000D01*
X209588096Y-79204762D01*
X209445239Y-79061905D01*
X209350000Y-79014286D01*
X209254762Y-79014286D01*
X209302381Y-79252381D02*
X209207143Y-79204762D01*
X209111905Y-79109524D01*
X209064286Y-78919048D01*
X209064286Y-78585714D01*
X209111905Y-78395238D01*
X209207143Y-78300000D01*
X209302381Y-78252381D01*
X209492858Y-78252381D01*
X209588096Y-78300000D01*
X209683334Y-78395238D01*
X209730953Y-78585714D01*
X209730953Y-78919048D01*
X209683334Y-79109524D01*
X209588096Y-79204762D01*
X209492858Y-79252381D01*
X209302381Y-79252381D01*
X210683334Y-79252381D02*
X210111905Y-79252381D01*
X210397619Y-79252381D02*
X210397619Y-78252381D01*
X210302381Y-78395238D01*
X210207143Y-78490476D01*
X210111905Y-78538095D01*
X211635715Y-79252381D02*
X211064286Y-79252381D01*
X211350000Y-79252381D02*
X211350000Y-78252381D01*
X211254762Y-78395238D01*
X211159524Y-78490476D01*
X211064286Y-78538095D01*
X220747619Y-59021428D02*
X220700000Y-59116666D01*
X220604762Y-59211904D01*
X220461905Y-59354761D01*
X220414286Y-59450000D01*
X220414286Y-59545238D01*
X220652381Y-59497619D02*
X220604762Y-59592857D01*
X220509524Y-59688095D01*
X220319048Y-59735714D01*
X219985714Y-59735714D01*
X219795238Y-59688095D01*
X219700000Y-59592857D01*
X219652381Y-59497619D01*
X219652381Y-59307142D01*
X219700000Y-59211904D01*
X219795238Y-59116666D01*
X219985714Y-59069047D01*
X220319048Y-59069047D01*
X220509524Y-59116666D01*
X220604762Y-59211904D01*
X220652381Y-59307142D01*
X220652381Y-59497619D01*
X220652381Y-58116666D02*
X220652381Y-58688095D01*
X220652381Y-58402381D02*
X219652381Y-58402381D01*
X219795238Y-58497619D01*
X219890476Y-58592857D01*
X219938095Y-58688095D01*
X219747619Y-57735714D02*
X219700000Y-57688095D01*
X219652381Y-57592857D01*
X219652381Y-57354761D01*
X219700000Y-57259523D01*
X219747619Y-57211904D01*
X219842857Y-57164285D01*
X219938095Y-57164285D01*
X220080952Y-57211904D01*
X220652381Y-57783333D01*
X220652381Y-57164285D01*
X233547619Y-80121428D02*
X233500000Y-80216666D01*
X233404762Y-80311904D01*
X233261905Y-80454761D01*
X233214286Y-80550000D01*
X233214286Y-80645238D01*
X233452381Y-80597619D02*
X233404762Y-80692857D01*
X233309524Y-80788095D01*
X233119048Y-80835714D01*
X232785714Y-80835714D01*
X232595238Y-80788095D01*
X232500000Y-80692857D01*
X232452381Y-80597619D01*
X232452381Y-80407142D01*
X232500000Y-80311904D01*
X232595238Y-80216666D01*
X232785714Y-80169047D01*
X233119048Y-80169047D01*
X233309524Y-80216666D01*
X233404762Y-80311904D01*
X233452381Y-80407142D01*
X233452381Y-80597619D01*
X233452381Y-79216666D02*
X233452381Y-79788095D01*
X233452381Y-79502381D02*
X232452381Y-79502381D01*
X232595238Y-79597619D01*
X232690476Y-79692857D01*
X232738095Y-79788095D01*
X232452381Y-78883333D02*
X232452381Y-78264285D01*
X232833333Y-78597619D01*
X232833333Y-78454761D01*
X232880952Y-78359523D01*
X232928571Y-78311904D01*
X233023810Y-78264285D01*
X233261905Y-78264285D01*
X233357143Y-78311904D01*
X233404762Y-78359523D01*
X233452381Y-78454761D01*
X233452381Y-78740476D01*
X233404762Y-78835714D01*
X233357143Y-78883333D01*
X217347619Y-61321428D02*
X217300000Y-61416666D01*
X217204762Y-61511904D01*
X217061905Y-61654761D01*
X217014286Y-61750000D01*
X217014286Y-61845238D01*
X217252381Y-61797619D02*
X217204762Y-61892857D01*
X217109524Y-61988095D01*
X216919048Y-62035714D01*
X216585714Y-62035714D01*
X216395238Y-61988095D01*
X216300000Y-61892857D01*
X216252381Y-61797619D01*
X216252381Y-61607142D01*
X216300000Y-61511904D01*
X216395238Y-61416666D01*
X216585714Y-61369047D01*
X216919048Y-61369047D01*
X217109524Y-61416666D01*
X217204762Y-61511904D01*
X217252381Y-61607142D01*
X217252381Y-61797619D01*
X217252381Y-60416666D02*
X217252381Y-60988095D01*
X217252381Y-60702381D02*
X216252381Y-60702381D01*
X216395238Y-60797619D01*
X216490476Y-60892857D01*
X216538095Y-60988095D01*
X216585714Y-59559523D02*
X217252381Y-59559523D01*
X216204762Y-59797619D02*
X216919048Y-60035714D01*
X216919048Y-59416666D01*
X219047619Y-68921428D02*
X219000000Y-69016666D01*
X218904762Y-69111904D01*
X218761905Y-69254761D01*
X218714286Y-69350000D01*
X218714286Y-69445238D01*
X218952381Y-69397619D02*
X218904762Y-69492857D01*
X218809524Y-69588095D01*
X218619048Y-69635714D01*
X218285714Y-69635714D01*
X218095238Y-69588095D01*
X218000000Y-69492857D01*
X217952381Y-69397619D01*
X217952381Y-69207142D01*
X218000000Y-69111904D01*
X218095238Y-69016666D01*
X218285714Y-68969047D01*
X218619048Y-68969047D01*
X218809524Y-69016666D01*
X218904762Y-69111904D01*
X218952381Y-69207142D01*
X218952381Y-69397619D01*
X218952381Y-68016666D02*
X218952381Y-68588095D01*
X218952381Y-68302381D02*
X217952381Y-68302381D01*
X218095238Y-68397619D01*
X218190476Y-68492857D01*
X218238095Y-68588095D01*
X217952381Y-67111904D02*
X217952381Y-67588095D01*
X218428571Y-67635714D01*
X218380952Y-67588095D01*
X218333333Y-67492857D01*
X218333333Y-67254761D01*
X218380952Y-67159523D01*
X218428571Y-67111904D01*
X218523810Y-67064285D01*
X218761905Y-67064285D01*
X218857143Y-67111904D01*
X218904762Y-67159523D01*
X218952381Y-67254761D01*
X218952381Y-67492857D01*
X218904762Y-67588095D01*
X218857143Y-67635714D01*
X229747619Y-80021428D02*
X229700000Y-80116666D01*
X229604762Y-80211904D01*
X229461905Y-80354761D01*
X229414286Y-80450000D01*
X229414286Y-80545238D01*
X229652381Y-80497619D02*
X229604762Y-80592857D01*
X229509524Y-80688095D01*
X229319048Y-80735714D01*
X228985714Y-80735714D01*
X228795238Y-80688095D01*
X228700000Y-80592857D01*
X228652381Y-80497619D01*
X228652381Y-80307142D01*
X228700000Y-80211904D01*
X228795238Y-80116666D01*
X228985714Y-80069047D01*
X229319048Y-80069047D01*
X229509524Y-80116666D01*
X229604762Y-80211904D01*
X229652381Y-80307142D01*
X229652381Y-80497619D01*
X229652381Y-79116666D02*
X229652381Y-79688095D01*
X229652381Y-79402381D02*
X228652381Y-79402381D01*
X228795238Y-79497619D01*
X228890476Y-79592857D01*
X228938095Y-79688095D01*
X228652381Y-78259523D02*
X228652381Y-78450000D01*
X228700000Y-78545238D01*
X228747619Y-78592857D01*
X228890476Y-78688095D01*
X229080952Y-78735714D01*
X229461905Y-78735714D01*
X229557143Y-78688095D01*
X229604762Y-78640476D01*
X229652381Y-78545238D01*
X229652381Y-78354761D01*
X229604762Y-78259523D01*
X229557143Y-78211904D01*
X229461905Y-78164285D01*
X229223810Y-78164285D01*
X229128571Y-78211904D01*
X229080952Y-78259523D01*
X229033333Y-78354761D01*
X229033333Y-78545238D01*
X229080952Y-78640476D01*
X229128571Y-78688095D01*
X229223810Y-78735714D01*
X235243619Y-61277428D02*
X235196000Y-61372666D01*
X235100762Y-61467904D01*
X234957905Y-61610761D01*
X234910286Y-61706000D01*
X234910286Y-61801238D01*
X235148381Y-61753619D02*
X235100762Y-61848857D01*
X235005524Y-61944095D01*
X234815048Y-61991714D01*
X234481714Y-61991714D01*
X234291238Y-61944095D01*
X234196000Y-61848857D01*
X234148381Y-61753619D01*
X234148381Y-61563142D01*
X234196000Y-61467904D01*
X234291238Y-61372666D01*
X234481714Y-61325047D01*
X234815048Y-61325047D01*
X235005524Y-61372666D01*
X235100762Y-61467904D01*
X235148381Y-61563142D01*
X235148381Y-61753619D01*
X235148381Y-60372666D02*
X235148381Y-60944095D01*
X235148381Y-60658381D02*
X234148381Y-60658381D01*
X234291238Y-60753619D01*
X234386476Y-60848857D01*
X234434095Y-60944095D01*
X234148381Y-60039333D02*
X234148381Y-59372666D01*
X235148381Y-59801238D01*
X235243619Y-72453428D02*
X235196000Y-72548666D01*
X235100762Y-72643904D01*
X234957905Y-72786761D01*
X234910286Y-72882000D01*
X234910286Y-72977238D01*
X235148381Y-72929619D02*
X235100762Y-73024857D01*
X235005524Y-73120095D01*
X234815048Y-73167714D01*
X234481714Y-73167714D01*
X234291238Y-73120095D01*
X234196000Y-73024857D01*
X234148381Y-72929619D01*
X234148381Y-72739142D01*
X234196000Y-72643904D01*
X234291238Y-72548666D01*
X234481714Y-72501047D01*
X234815048Y-72501047D01*
X235005524Y-72548666D01*
X235100762Y-72643904D01*
X235148381Y-72739142D01*
X235148381Y-72929619D01*
X235148381Y-71548666D02*
X235148381Y-72120095D01*
X235148381Y-71834381D02*
X234148381Y-71834381D01*
X234291238Y-71929619D01*
X234386476Y-72024857D01*
X234434095Y-72120095D01*
X234576952Y-70977238D02*
X234529333Y-71072476D01*
X234481714Y-71120095D01*
X234386476Y-71167714D01*
X234338857Y-71167714D01*
X234243619Y-71120095D01*
X234196000Y-71072476D01*
X234148381Y-70977238D01*
X234148381Y-70786761D01*
X234196000Y-70691523D01*
X234243619Y-70643904D01*
X234338857Y-70596285D01*
X234386476Y-70596285D01*
X234481714Y-70643904D01*
X234529333Y-70691523D01*
X234576952Y-70786761D01*
X234576952Y-70977238D01*
X234624571Y-71072476D01*
X234672190Y-71120095D01*
X234767429Y-71167714D01*
X234957905Y-71167714D01*
X235053143Y-71120095D01*
X235100762Y-71072476D01*
X235148381Y-70977238D01*
X235148381Y-70786761D01*
X235100762Y-70691523D01*
X235053143Y-70643904D01*
X234957905Y-70596285D01*
X234767429Y-70596285D01*
X234672190Y-70643904D01*
X234624571Y-70691523D01*
X234576952Y-70786761D01*
X192352381Y-71566666D02*
X191876190Y-71900000D01*
X192352381Y-72138095D02*
X191352381Y-72138095D01*
X191352381Y-71757142D01*
X191400000Y-71661904D01*
X191447619Y-71614285D01*
X191542857Y-71566666D01*
X191685714Y-71566666D01*
X191780952Y-71614285D01*
X191828571Y-71661904D01*
X191876190Y-71757142D01*
X191876190Y-72138095D01*
X191685714Y-70709523D02*
X192352381Y-70709523D01*
X191304762Y-70947619D02*
X192019048Y-71185714D01*
X192019048Y-70566666D01*
X201352381Y-80316666D02*
X200876190Y-80650000D01*
X201352381Y-80888095D02*
X200352381Y-80888095D01*
X200352381Y-80507142D01*
X200400000Y-80411904D01*
X200447619Y-80364285D01*
X200542857Y-80316666D01*
X200685714Y-80316666D01*
X200780952Y-80364285D01*
X200828571Y-80411904D01*
X200876190Y-80507142D01*
X200876190Y-80888095D01*
X200352381Y-79411904D02*
X200352381Y-79888095D01*
X200828571Y-79935714D01*
X200780952Y-79888095D01*
X200733333Y-79792857D01*
X200733333Y-79554761D01*
X200780952Y-79459523D01*
X200828571Y-79411904D01*
X200923810Y-79364285D01*
X201161905Y-79364285D01*
X201257143Y-79411904D01*
X201304762Y-79459523D01*
X201352381Y-79554761D01*
X201352381Y-79792857D01*
X201304762Y-79888095D01*
X201257143Y-79935714D01*
X201602381Y-65816666D02*
X201126190Y-66150000D01*
X201602381Y-66388095D02*
X200602381Y-66388095D01*
X200602381Y-66007142D01*
X200650000Y-65911904D01*
X200697619Y-65864285D01*
X200792857Y-65816666D01*
X200935714Y-65816666D01*
X201030952Y-65864285D01*
X201078571Y-65911904D01*
X201126190Y-66007142D01*
X201126190Y-66388095D01*
X200602381Y-64959523D02*
X200602381Y-65150000D01*
X200650000Y-65245238D01*
X200697619Y-65292857D01*
X200840476Y-65388095D01*
X201030952Y-65435714D01*
X201411905Y-65435714D01*
X201507143Y-65388095D01*
X201554762Y-65340476D01*
X201602381Y-65245238D01*
X201602381Y-65054761D01*
X201554762Y-64959523D01*
X201507143Y-64911904D01*
X201411905Y-64864285D01*
X201173810Y-64864285D01*
X201078571Y-64911904D01*
X201030952Y-64959523D01*
X200983333Y-65054761D01*
X200983333Y-65245238D01*
X201030952Y-65340476D01*
X201078571Y-65388095D01*
X201173810Y-65435714D01*
X210402381Y-72466666D02*
X209926190Y-72800000D01*
X210402381Y-73038095D02*
X209402381Y-73038095D01*
X209402381Y-72657142D01*
X209450000Y-72561904D01*
X209497619Y-72514285D01*
X209592857Y-72466666D01*
X209735714Y-72466666D01*
X209830952Y-72514285D01*
X209878571Y-72561904D01*
X209926190Y-72657142D01*
X209926190Y-73038095D01*
X209402381Y-72133333D02*
X209402381Y-71466666D01*
X210402381Y-71895238D01*
X216902381Y-80616666D02*
X216426190Y-80950000D01*
X216902381Y-81188095D02*
X215902381Y-81188095D01*
X215902381Y-80807142D01*
X215950000Y-80711904D01*
X215997619Y-80664285D01*
X216092857Y-80616666D01*
X216235714Y-80616666D01*
X216330952Y-80664285D01*
X216378571Y-80711904D01*
X216426190Y-80807142D01*
X216426190Y-81188095D01*
X216330952Y-80045238D02*
X216283333Y-80140476D01*
X216235714Y-80188095D01*
X216140476Y-80235714D01*
X216092857Y-80235714D01*
X215997619Y-80188095D01*
X215950000Y-80140476D01*
X215902381Y-80045238D01*
X215902381Y-79854761D01*
X215950000Y-79759523D01*
X215997619Y-79711904D01*
X216092857Y-79664285D01*
X216140476Y-79664285D01*
X216235714Y-79711904D01*
X216283333Y-79759523D01*
X216330952Y-79854761D01*
X216330952Y-80045238D01*
X216378571Y-80140476D01*
X216426190Y-80188095D01*
X216521429Y-80235714D01*
X216711905Y-80235714D01*
X216807143Y-80188095D01*
X216854762Y-80140476D01*
X216902381Y-80045238D01*
X216902381Y-79854761D01*
X216854762Y-79759523D01*
X216807143Y-79711904D01*
X216711905Y-79664285D01*
X216521429Y-79664285D01*
X216426190Y-79711904D01*
X216378571Y-79759523D01*
X216330952Y-79854761D01*
X213283334Y-54802381D02*
X212950000Y-54326190D01*
X212711905Y-54802381D02*
X212711905Y-53802381D01*
X213092858Y-53802381D01*
X213188096Y-53850000D01*
X213235715Y-53897619D01*
X213283334Y-53992857D01*
X213283334Y-54135714D01*
X213235715Y-54230952D01*
X213188096Y-54278571D01*
X213092858Y-54326190D01*
X212711905Y-54326190D01*
X213759524Y-54802381D02*
X213950000Y-54802381D01*
X214045239Y-54754762D01*
X214092858Y-54707143D01*
X214188096Y-54564286D01*
X214235715Y-54373810D01*
X214235715Y-53992857D01*
X214188096Y-53897619D01*
X214140477Y-53850000D01*
X214045239Y-53802381D01*
X213854762Y-53802381D01*
X213759524Y-53850000D01*
X213711905Y-53897619D01*
X213664286Y-53992857D01*
X213664286Y-54230952D01*
X213711905Y-54326190D01*
X213759524Y-54373810D01*
X213854762Y-54421429D01*
X214045239Y-54421429D01*
X214140477Y-54373810D01*
X214188096Y-54326190D01*
X214235715Y-54230952D01*
X193257143Y-63652381D02*
X192923809Y-63176190D01*
X192685714Y-63652381D02*
X192685714Y-62652381D01*
X193066667Y-62652381D01*
X193161905Y-62700000D01*
X193209524Y-62747619D01*
X193257143Y-62842857D01*
X193257143Y-62985714D01*
X193209524Y-63080952D01*
X193161905Y-63128571D01*
X193066667Y-63176190D01*
X192685714Y-63176190D01*
X194209524Y-63652381D02*
X193638095Y-63652381D01*
X193923809Y-63652381D02*
X193923809Y-62652381D01*
X193828571Y-62795238D01*
X193733333Y-62890476D01*
X193638095Y-62938095D01*
X194828571Y-62652381D02*
X194923810Y-62652381D01*
X195019048Y-62700000D01*
X195066667Y-62747619D01*
X195114286Y-62842857D01*
X195161905Y-63033333D01*
X195161905Y-63271429D01*
X195114286Y-63461905D01*
X195066667Y-63557143D01*
X195019048Y-63604762D01*
X194923810Y-63652381D01*
X194828571Y-63652381D01*
X194733333Y-63604762D01*
X194685714Y-63557143D01*
X194638095Y-63461905D01*
X194590476Y-63271429D01*
X194590476Y-63033333D01*
X194638095Y-62842857D01*
X194685714Y-62747619D01*
X194733333Y-62700000D01*
X194828571Y-62652381D01*
X211302381Y-74845238D02*
X210826190Y-75178572D01*
X211302381Y-75416667D02*
X210302381Y-75416667D01*
X210302381Y-75035714D01*
X210350000Y-74940476D01*
X210397619Y-74892857D01*
X210492857Y-74845238D01*
X210635714Y-74845238D01*
X210730952Y-74892857D01*
X210778571Y-74940476D01*
X210826190Y-75035714D01*
X210826190Y-75416667D01*
X210302381Y-74559524D02*
X211302381Y-74226191D01*
X210302381Y-73892857D01*
X211302381Y-73035714D02*
X211302381Y-73607143D01*
X211302381Y-73321429D02*
X210302381Y-73321429D01*
X210445238Y-73416667D01*
X210540476Y-73511905D01*
X210588095Y-73607143D01*
X197404762Y-60402381D02*
X197071428Y-59926190D01*
X196833333Y-60402381D02*
X196833333Y-59402381D01*
X197214286Y-59402381D01*
X197309524Y-59450000D01*
X197357143Y-59497619D01*
X197404762Y-59592857D01*
X197404762Y-59735714D01*
X197357143Y-59830952D01*
X197309524Y-59878571D01*
X197214286Y-59926190D01*
X196833333Y-59926190D01*
X197690476Y-59402381D02*
X198023809Y-60402381D01*
X198357143Y-59402381D01*
X198642857Y-59497619D02*
X198690476Y-59450000D01*
X198785714Y-59402381D01*
X199023810Y-59402381D01*
X199119048Y-59450000D01*
X199166667Y-59497619D01*
X199214286Y-59592857D01*
X199214286Y-59688095D01*
X199166667Y-59830952D01*
X198595238Y-60402381D01*
X199214286Y-60402381D01*
X235751619Y-94805428D02*
X235704000Y-94900666D01*
X235608762Y-94995904D01*
X235465905Y-95138761D01*
X235418286Y-95234000D01*
X235418286Y-95329238D01*
X235656381Y-95281619D02*
X235608762Y-95376857D01*
X235513524Y-95472095D01*
X235323048Y-95519714D01*
X234989714Y-95519714D01*
X234799238Y-95472095D01*
X234704000Y-95376857D01*
X234656381Y-95281619D01*
X234656381Y-95091142D01*
X234704000Y-94995904D01*
X234799238Y-94900666D01*
X234989714Y-94853047D01*
X235323048Y-94853047D01*
X235513524Y-94900666D01*
X235608762Y-94995904D01*
X235656381Y-95091142D01*
X235656381Y-95281619D01*
X234656381Y-94519714D02*
X234656381Y-93900666D01*
X235037333Y-94234000D01*
X235037333Y-94091142D01*
X235084952Y-93995904D01*
X235132571Y-93948285D01*
X235227810Y-93900666D01*
X235465905Y-93900666D01*
X235561143Y-93948285D01*
X235608762Y-93995904D01*
X235656381Y-94091142D01*
X235656381Y-94376857D01*
X235608762Y-94472095D01*
X235561143Y-94519714D01*
X234656381Y-93281619D02*
X234656381Y-93186380D01*
X234704000Y-93091142D01*
X234751619Y-93043523D01*
X234846857Y-92995904D01*
X235037333Y-92948285D01*
X235275429Y-92948285D01*
X235465905Y-92995904D01*
X235561143Y-93043523D01*
X235608762Y-93091142D01*
X235656381Y-93186380D01*
X235656381Y-93281619D01*
X235608762Y-93376857D01*
X235561143Y-93424476D01*
X235465905Y-93472095D01*
X235275429Y-93519714D01*
X235037333Y-93519714D01*
X234846857Y-93472095D01*
X234751619Y-93424476D01*
X234704000Y-93376857D01*
X234656381Y-93281619D01*
X235287619Y-114781428D02*
X235240000Y-114876666D01*
X235144762Y-114971904D01*
X235001905Y-115114761D01*
X234954286Y-115210000D01*
X234954286Y-115305238D01*
X235192381Y-115257619D02*
X235144762Y-115352857D01*
X235049524Y-115448095D01*
X234859048Y-115495714D01*
X234525714Y-115495714D01*
X234335238Y-115448095D01*
X234240000Y-115352857D01*
X234192381Y-115257619D01*
X234192381Y-115067142D01*
X234240000Y-114971904D01*
X234335238Y-114876666D01*
X234525714Y-114829047D01*
X234859048Y-114829047D01*
X235049524Y-114876666D01*
X235144762Y-114971904D01*
X235192381Y-115067142D01*
X235192381Y-115257619D01*
X234192381Y-114495714D02*
X234192381Y-113876666D01*
X234573333Y-114210000D01*
X234573333Y-114067142D01*
X234620952Y-113971904D01*
X234668571Y-113924285D01*
X234763810Y-113876666D01*
X235001905Y-113876666D01*
X235097143Y-113924285D01*
X235144762Y-113971904D01*
X235192381Y-114067142D01*
X235192381Y-114352857D01*
X235144762Y-114448095D01*
X235097143Y-114495714D01*
X234620952Y-113305238D02*
X234573333Y-113400476D01*
X234525714Y-113448095D01*
X234430476Y-113495714D01*
X234382857Y-113495714D01*
X234287619Y-113448095D01*
X234240000Y-113400476D01*
X234192381Y-113305238D01*
X234192381Y-113114761D01*
X234240000Y-113019523D01*
X234287619Y-112971904D01*
X234382857Y-112924285D01*
X234430476Y-112924285D01*
X234525714Y-112971904D01*
X234573333Y-113019523D01*
X234620952Y-113114761D01*
X234620952Y-113305238D01*
X234668571Y-113400476D01*
X234716190Y-113448095D01*
X234811429Y-113495714D01*
X235001905Y-113495714D01*
X235097143Y-113448095D01*
X235144762Y-113400476D01*
X235192381Y-113305238D01*
X235192381Y-113114761D01*
X235144762Y-113019523D01*
X235097143Y-112971904D01*
X235001905Y-112924285D01*
X234811429Y-112924285D01*
X234716190Y-112971904D01*
X234668571Y-113019523D01*
X234620952Y-113114761D01*
X194866667Y-142152381D02*
X194866667Y-142866667D01*
X194819047Y-143009524D01*
X194723809Y-143104762D01*
X194580952Y-143152381D01*
X194485714Y-143152381D01*
X195295238Y-142247619D02*
X195342857Y-142200000D01*
X195438095Y-142152381D01*
X195676191Y-142152381D01*
X195771429Y-142200000D01*
X195819048Y-142247619D01*
X195866667Y-142342857D01*
X195866667Y-142438095D01*
X195819048Y-142580952D01*
X195247619Y-143152381D01*
X195866667Y-143152381D01*
X193866667Y-56752381D02*
X193866667Y-57466667D01*
X193819047Y-57609524D01*
X193723809Y-57704762D01*
X193580952Y-57752381D01*
X193485714Y-57752381D01*
X194247619Y-56752381D02*
X194866667Y-56752381D01*
X194533333Y-57133333D01*
X194676191Y-57133333D01*
X194771429Y-57180952D01*
X194819048Y-57228571D01*
X194866667Y-57323810D01*
X194866667Y-57561905D01*
X194819048Y-57657143D01*
X194771429Y-57704762D01*
X194676191Y-57752381D01*
X194390476Y-57752381D01*
X194295238Y-57704762D01*
X194247619Y-57657143D01*
X215157143Y-94966666D02*
X215204762Y-95014285D01*
X215252381Y-95157142D01*
X215252381Y-95252380D01*
X215204762Y-95395238D01*
X215109524Y-95490476D01*
X215014286Y-95538095D01*
X214823810Y-95585714D01*
X214680952Y-95585714D01*
X214490476Y-95538095D01*
X214395238Y-95490476D01*
X214300000Y-95395238D01*
X214252381Y-95252380D01*
X214252381Y-95157142D01*
X214300000Y-95014285D01*
X214347619Y-94966666D01*
X214252381Y-94633333D02*
X214252381Y-94014285D01*
X214633333Y-94347619D01*
X214633333Y-94204761D01*
X214680952Y-94109523D01*
X214728571Y-94061904D01*
X214823810Y-94014285D01*
X215061905Y-94014285D01*
X215157143Y-94061904D01*
X215204762Y-94109523D01*
X215252381Y-94204761D01*
X215252381Y-94490476D01*
X215204762Y-94585714D01*
X215157143Y-94633333D01*
X228957143Y-62966666D02*
X229004762Y-63014285D01*
X229052381Y-63157142D01*
X229052381Y-63252380D01*
X229004762Y-63395238D01*
X228909524Y-63490476D01*
X228814286Y-63538095D01*
X228623810Y-63585714D01*
X228480952Y-63585714D01*
X228290476Y-63538095D01*
X228195238Y-63490476D01*
X228100000Y-63395238D01*
X228052381Y-63252380D01*
X228052381Y-63157142D01*
X228100000Y-63014285D01*
X228147619Y-62966666D01*
X228147619Y-62585714D02*
X228100000Y-62538095D01*
X228052381Y-62442857D01*
X228052381Y-62204761D01*
X228100000Y-62109523D01*
X228147619Y-62061904D01*
X228242857Y-62014285D01*
X228338095Y-62014285D01*
X228480952Y-62061904D01*
X229052381Y-62633333D01*
X229052381Y-62014285D01*
X220357143Y-95016666D02*
X220404762Y-95064285D01*
X220452381Y-95207142D01*
X220452381Y-95302380D01*
X220404762Y-95445238D01*
X220309524Y-95540476D01*
X220214286Y-95588095D01*
X220023810Y-95635714D01*
X219880952Y-95635714D01*
X219690476Y-95588095D01*
X219595238Y-95540476D01*
X219500000Y-95445238D01*
X219452381Y-95302380D01*
X219452381Y-95207142D01*
X219500000Y-95064285D01*
X219547619Y-95016666D01*
X219785714Y-94159523D02*
X220452381Y-94159523D01*
X219404762Y-94397619D02*
X220119048Y-94635714D01*
X220119048Y-94016666D01*
X229719143Y-96178666D02*
X229766762Y-96226285D01*
X229814381Y-96369142D01*
X229814381Y-96464380D01*
X229766762Y-96607238D01*
X229671524Y-96702476D01*
X229576286Y-96750095D01*
X229385810Y-96797714D01*
X229242952Y-96797714D01*
X229052476Y-96750095D01*
X228957238Y-96702476D01*
X228862000Y-96607238D01*
X228814381Y-96464380D01*
X228814381Y-96369142D01*
X228862000Y-96226285D01*
X228909619Y-96178666D01*
X228814381Y-95273904D02*
X228814381Y-95750095D01*
X229290571Y-95797714D01*
X229242952Y-95750095D01*
X229195333Y-95654857D01*
X229195333Y-95416761D01*
X229242952Y-95321523D01*
X229290571Y-95273904D01*
X229385810Y-95226285D01*
X229623905Y-95226285D01*
X229719143Y-95273904D01*
X229766762Y-95321523D01*
X229814381Y-95416761D01*
X229814381Y-95654857D01*
X229766762Y-95750095D01*
X229719143Y-95797714D01*
X218833334Y-109307143D02*
X218785715Y-109354762D01*
X218642858Y-109402381D01*
X218547620Y-109402381D01*
X218404762Y-109354762D01*
X218309524Y-109259524D01*
X218261905Y-109164286D01*
X218214286Y-108973810D01*
X218214286Y-108830952D01*
X218261905Y-108640476D01*
X218309524Y-108545238D01*
X218404762Y-108450000D01*
X218547620Y-108402381D01*
X218642858Y-108402381D01*
X218785715Y-108450000D01*
X218833334Y-108497619D01*
X219166667Y-108402381D02*
X219833334Y-108402381D01*
X219404762Y-109402381D01*
X228757143Y-106516666D02*
X228804762Y-106564285D01*
X228852381Y-106707142D01*
X228852381Y-106802380D01*
X228804762Y-106945238D01*
X228709524Y-107040476D01*
X228614286Y-107088095D01*
X228423810Y-107135714D01*
X228280952Y-107135714D01*
X228090476Y-107088095D01*
X227995238Y-107040476D01*
X227900000Y-106945238D01*
X227852381Y-106802380D01*
X227852381Y-106707142D01*
X227900000Y-106564285D01*
X227947619Y-106516666D01*
X228280952Y-105945238D02*
X228233333Y-106040476D01*
X228185714Y-106088095D01*
X228090476Y-106135714D01*
X228042857Y-106135714D01*
X227947619Y-106088095D01*
X227900000Y-106040476D01*
X227852381Y-105945238D01*
X227852381Y-105754761D01*
X227900000Y-105659523D01*
X227947619Y-105611904D01*
X228042857Y-105564285D01*
X228090476Y-105564285D01*
X228185714Y-105611904D01*
X228233333Y-105659523D01*
X228280952Y-105754761D01*
X228280952Y-105945238D01*
X228328571Y-106040476D01*
X228376190Y-106088095D01*
X228471429Y-106135714D01*
X228661905Y-106135714D01*
X228757143Y-106088095D01*
X228804762Y-106040476D01*
X228852381Y-105945238D01*
X228852381Y-105754761D01*
X228804762Y-105659523D01*
X228757143Y-105611904D01*
X228661905Y-105564285D01*
X228471429Y-105564285D01*
X228376190Y-105611904D01*
X228328571Y-105659523D01*
X228280952Y-105754761D01*
X227052143Y-95924666D02*
X227099762Y-95972285D01*
X227147381Y-96115142D01*
X227147381Y-96210380D01*
X227099762Y-96353238D01*
X227004524Y-96448476D01*
X226909286Y-96496095D01*
X226718810Y-96543714D01*
X226575952Y-96543714D01*
X226385476Y-96496095D01*
X226290238Y-96448476D01*
X226195000Y-96353238D01*
X226147381Y-96210380D01*
X226147381Y-96115142D01*
X226195000Y-95972285D01*
X226242619Y-95924666D01*
X227147381Y-95448476D02*
X227147381Y-95258000D01*
X227099762Y-95162761D01*
X227052143Y-95115142D01*
X226909286Y-95019904D01*
X226718810Y-94972285D01*
X226337857Y-94972285D01*
X226242619Y-95019904D01*
X226195000Y-95067523D01*
X226147381Y-95162761D01*
X226147381Y-95353238D01*
X226195000Y-95448476D01*
X226242619Y-95496095D01*
X226337857Y-95543714D01*
X226575952Y-95543714D01*
X226671190Y-95496095D01*
X226718810Y-95448476D01*
X226766429Y-95353238D01*
X226766429Y-95162761D01*
X226718810Y-95067523D01*
X226671190Y-95019904D01*
X226575952Y-94972285D01*
X224512143Y-96400857D02*
X224559762Y-96448476D01*
X224607381Y-96591333D01*
X224607381Y-96686571D01*
X224559762Y-96829429D01*
X224464524Y-96924667D01*
X224369286Y-96972286D01*
X224178810Y-97019905D01*
X224035952Y-97019905D01*
X223845476Y-96972286D01*
X223750238Y-96924667D01*
X223655000Y-96829429D01*
X223607381Y-96686571D01*
X223607381Y-96591333D01*
X223655000Y-96448476D01*
X223702619Y-96400857D01*
X224607381Y-95448476D02*
X224607381Y-96019905D01*
X224607381Y-95734191D02*
X223607381Y-95734191D01*
X223750238Y-95829429D01*
X223845476Y-95924667D01*
X223893095Y-96019905D01*
X223607381Y-94829429D02*
X223607381Y-94734190D01*
X223655000Y-94638952D01*
X223702619Y-94591333D01*
X223797857Y-94543714D01*
X223988333Y-94496095D01*
X224226429Y-94496095D01*
X224416905Y-94543714D01*
X224512143Y-94591333D01*
X224559762Y-94638952D01*
X224607381Y-94734190D01*
X224607381Y-94829429D01*
X224559762Y-94924667D01*
X224512143Y-94972286D01*
X224416905Y-95019905D01*
X224226429Y-95067524D01*
X223988333Y-95067524D01*
X223797857Y-95019905D01*
X223702619Y-94972286D01*
X223655000Y-94924667D01*
X223607381Y-94829429D01*
X221807143Y-106892857D02*
X221854762Y-106940476D01*
X221902381Y-107083333D01*
X221902381Y-107178571D01*
X221854762Y-107321429D01*
X221759524Y-107416667D01*
X221664286Y-107464286D01*
X221473810Y-107511905D01*
X221330952Y-107511905D01*
X221140476Y-107464286D01*
X221045238Y-107416667D01*
X220950000Y-107321429D01*
X220902381Y-107178571D01*
X220902381Y-107083333D01*
X220950000Y-106940476D01*
X220997619Y-106892857D01*
X221902381Y-105940476D02*
X221902381Y-106511905D01*
X221902381Y-106226191D02*
X220902381Y-106226191D01*
X221045238Y-106321429D01*
X221140476Y-106416667D01*
X221188095Y-106511905D01*
X221902381Y-104988095D02*
X221902381Y-105559524D01*
X221902381Y-105273810D02*
X220902381Y-105273810D01*
X221045238Y-105369048D01*
X221140476Y-105464286D01*
X221188095Y-105559524D01*
X226057143Y-107192857D02*
X226104762Y-107240476D01*
X226152381Y-107383333D01*
X226152381Y-107478571D01*
X226104762Y-107621429D01*
X226009524Y-107716667D01*
X225914286Y-107764286D01*
X225723810Y-107811905D01*
X225580952Y-107811905D01*
X225390476Y-107764286D01*
X225295238Y-107716667D01*
X225200000Y-107621429D01*
X225152381Y-107478571D01*
X225152381Y-107383333D01*
X225200000Y-107240476D01*
X225247619Y-107192857D01*
X226152381Y-106240476D02*
X226152381Y-106811905D01*
X226152381Y-106526191D02*
X225152381Y-106526191D01*
X225295238Y-106621429D01*
X225390476Y-106716667D01*
X225438095Y-106811905D01*
X225247619Y-105859524D02*
X225200000Y-105811905D01*
X225152381Y-105716667D01*
X225152381Y-105478571D01*
X225200000Y-105383333D01*
X225247619Y-105335714D01*
X225342857Y-105288095D01*
X225438095Y-105288095D01*
X225580952Y-105335714D01*
X226152381Y-105907143D01*
X226152381Y-105288095D01*
X226707143Y-138269047D02*
X226754762Y-138316666D01*
X226802381Y-138459523D01*
X226802381Y-138554761D01*
X226754762Y-138697619D01*
X226659524Y-138792857D01*
X226564286Y-138840476D01*
X226373810Y-138888095D01*
X226230952Y-138888095D01*
X226040476Y-138840476D01*
X225945238Y-138792857D01*
X225850000Y-138697619D01*
X225802381Y-138554761D01*
X225802381Y-138459523D01*
X225850000Y-138316666D01*
X225897619Y-138269047D01*
X226802381Y-137316666D02*
X226802381Y-137888095D01*
X226802381Y-137602381D02*
X225802381Y-137602381D01*
X225945238Y-137697619D01*
X226040476Y-137792857D01*
X226088095Y-137888095D01*
X225802381Y-136697619D02*
X225802381Y-136602380D01*
X225850000Y-136507142D01*
X225897619Y-136459523D01*
X225992857Y-136411904D01*
X226183333Y-136364285D01*
X226421429Y-136364285D01*
X226611905Y-136411904D01*
X226707143Y-136459523D01*
X226754762Y-136507142D01*
X226802381Y-136602380D01*
X226802381Y-136697619D01*
X226754762Y-136792857D01*
X226707143Y-136840476D01*
X226611905Y-136888095D01*
X226421429Y-136935714D01*
X226183333Y-136935714D01*
X225992857Y-136888095D01*
X225897619Y-136840476D01*
X225850000Y-136792857D01*
X225802381Y-136697619D01*
X225897619Y-135983333D02*
X225850000Y-135935714D01*
X225802381Y-135840476D01*
X225802381Y-135602380D01*
X225850000Y-135507142D01*
X225897619Y-135459523D01*
X225992857Y-135411904D01*
X226088095Y-135411904D01*
X226230952Y-135459523D01*
X226802381Y-136030952D01*
X226802381Y-135411904D01*
X213006381Y-95569857D02*
X212530190Y-95903191D01*
X213006381Y-96141286D02*
X212006381Y-96141286D01*
X212006381Y-95760333D01*
X212054000Y-95665095D01*
X212101619Y-95617476D01*
X212196857Y-95569857D01*
X212339714Y-95569857D01*
X212434952Y-95617476D01*
X212482571Y-95665095D01*
X212530190Y-95760333D01*
X212530190Y-96141286D01*
X213006381Y-94617476D02*
X213006381Y-95188905D01*
X213006381Y-94903191D02*
X212006381Y-94903191D01*
X212149238Y-94998429D01*
X212244476Y-95093667D01*
X212292095Y-95188905D01*
X213006381Y-94141286D02*
X213006381Y-93950810D01*
X212958762Y-93855571D01*
X212911143Y-93807952D01*
X212768286Y-93712714D01*
X212577810Y-93665095D01*
X212196857Y-93665095D01*
X212101619Y-93712714D01*
X212054000Y-93760333D01*
X212006381Y-93855571D01*
X212006381Y-94046048D01*
X212054000Y-94141286D01*
X212101619Y-94188905D01*
X212196857Y-94236524D01*
X212434952Y-94236524D01*
X212530190Y-94188905D01*
X212577810Y-94141286D01*
X212625429Y-94046048D01*
X212625429Y-93855571D01*
X212577810Y-93760333D01*
X212530190Y-93712714D01*
X212434952Y-93665095D01*
X199802381Y-96642857D02*
X199326190Y-96976191D01*
X199802381Y-97214286D02*
X198802381Y-97214286D01*
X198802381Y-96833333D01*
X198850000Y-96738095D01*
X198897619Y-96690476D01*
X198992857Y-96642857D01*
X199135714Y-96642857D01*
X199230952Y-96690476D01*
X199278571Y-96738095D01*
X199326190Y-96833333D01*
X199326190Y-97214286D01*
X198897619Y-96261905D02*
X198850000Y-96214286D01*
X198802381Y-96119048D01*
X198802381Y-95880952D01*
X198850000Y-95785714D01*
X198897619Y-95738095D01*
X198992857Y-95690476D01*
X199088095Y-95690476D01*
X199230952Y-95738095D01*
X199802381Y-96309524D01*
X199802381Y-95690476D01*
X198802381Y-95071429D02*
X198802381Y-94976190D01*
X198850000Y-94880952D01*
X198897619Y-94833333D01*
X198992857Y-94785714D01*
X199183333Y-94738095D01*
X199421429Y-94738095D01*
X199611905Y-94785714D01*
X199707143Y-94833333D01*
X199754762Y-94880952D01*
X199802381Y-94976190D01*
X199802381Y-95071429D01*
X199754762Y-95166667D01*
X199707143Y-95214286D01*
X199611905Y-95261905D01*
X199421429Y-95309524D01*
X199183333Y-95309524D01*
X198992857Y-95261905D01*
X198897619Y-95214286D01*
X198850000Y-95166667D01*
X198802381Y-95071429D01*
X190902381Y-91442857D02*
X190426190Y-91776191D01*
X190902381Y-92014286D02*
X189902381Y-92014286D01*
X189902381Y-91633333D01*
X189950000Y-91538095D01*
X189997619Y-91490476D01*
X190092857Y-91442857D01*
X190235714Y-91442857D01*
X190330952Y-91490476D01*
X190378571Y-91538095D01*
X190426190Y-91633333D01*
X190426190Y-92014286D01*
X189997619Y-91061905D02*
X189950000Y-91014286D01*
X189902381Y-90919048D01*
X189902381Y-90680952D01*
X189950000Y-90585714D01*
X189997619Y-90538095D01*
X190092857Y-90490476D01*
X190188095Y-90490476D01*
X190330952Y-90538095D01*
X190902381Y-91109524D01*
X190902381Y-90490476D01*
X190902381Y-89538095D02*
X190902381Y-90109524D01*
X190902381Y-89823810D02*
X189902381Y-89823810D01*
X190045238Y-89919048D01*
X190140476Y-90014286D01*
X190188095Y-90109524D01*
X209952381Y-96542857D02*
X209476190Y-96876191D01*
X209952381Y-97114286D02*
X208952381Y-97114286D01*
X208952381Y-96733333D01*
X209000000Y-96638095D01*
X209047619Y-96590476D01*
X209142857Y-96542857D01*
X209285714Y-96542857D01*
X209380952Y-96590476D01*
X209428571Y-96638095D01*
X209476190Y-96733333D01*
X209476190Y-97114286D01*
X209952381Y-95590476D02*
X209952381Y-96161905D01*
X209952381Y-95876191D02*
X208952381Y-95876191D01*
X209095238Y-95971429D01*
X209190476Y-96066667D01*
X209238095Y-96161905D01*
X209380952Y-95019048D02*
X209333333Y-95114286D01*
X209285714Y-95161905D01*
X209190476Y-95209524D01*
X209142857Y-95209524D01*
X209047619Y-95161905D01*
X209000000Y-95114286D01*
X208952381Y-95019048D01*
X208952381Y-94828571D01*
X209000000Y-94733333D01*
X209047619Y-94685714D01*
X209142857Y-94638095D01*
X209190476Y-94638095D01*
X209285714Y-94685714D01*
X209333333Y-94733333D01*
X209380952Y-94828571D01*
X209380952Y-95019048D01*
X209428571Y-95114286D01*
X209476190Y-95161905D01*
X209571429Y-95209524D01*
X209761905Y-95209524D01*
X209857143Y-95161905D01*
X209904762Y-95114286D01*
X209952381Y-95019048D01*
X209952381Y-94828571D01*
X209904762Y-94733333D01*
X209857143Y-94685714D01*
X209761905Y-94638095D01*
X209571429Y-94638095D01*
X209476190Y-94685714D01*
X209428571Y-94733333D01*
X209380952Y-94828571D01*
X208552381Y-104242857D02*
X208076190Y-104576191D01*
X208552381Y-104814286D02*
X207552381Y-104814286D01*
X207552381Y-104433333D01*
X207600000Y-104338095D01*
X207647619Y-104290476D01*
X207742857Y-104242857D01*
X207885714Y-104242857D01*
X207980952Y-104290476D01*
X208028571Y-104338095D01*
X208076190Y-104433333D01*
X208076190Y-104814286D01*
X207552381Y-103909524D02*
X207552381Y-103290476D01*
X207933333Y-103623810D01*
X207933333Y-103480952D01*
X207980952Y-103385714D01*
X208028571Y-103338095D01*
X208123810Y-103290476D01*
X208361905Y-103290476D01*
X208457143Y-103338095D01*
X208504762Y-103385714D01*
X208552381Y-103480952D01*
X208552381Y-103766667D01*
X208504762Y-103861905D01*
X208457143Y-103909524D01*
X207552381Y-102671429D02*
X207552381Y-102576190D01*
X207600000Y-102480952D01*
X207647619Y-102433333D01*
X207742857Y-102385714D01*
X207933333Y-102338095D01*
X208171429Y-102338095D01*
X208361905Y-102385714D01*
X208457143Y-102433333D01*
X208504762Y-102480952D01*
X208552381Y-102576190D01*
X208552381Y-102671429D01*
X208504762Y-102766667D01*
X208457143Y-102814286D01*
X208361905Y-102861905D01*
X208171429Y-102909524D01*
X207933333Y-102909524D01*
X207742857Y-102861905D01*
X207647619Y-102814286D01*
X207600000Y-102766667D01*
X207552381Y-102671429D01*
X195902381Y-104492857D02*
X195426190Y-104826191D01*
X195902381Y-105064286D02*
X194902381Y-105064286D01*
X194902381Y-104683333D01*
X194950000Y-104588095D01*
X194997619Y-104540476D01*
X195092857Y-104492857D01*
X195235714Y-104492857D01*
X195330952Y-104540476D01*
X195378571Y-104588095D01*
X195426190Y-104683333D01*
X195426190Y-105064286D01*
X194902381Y-104159524D02*
X194902381Y-103540476D01*
X195283333Y-103873810D01*
X195283333Y-103730952D01*
X195330952Y-103635714D01*
X195378571Y-103588095D01*
X195473810Y-103540476D01*
X195711905Y-103540476D01*
X195807143Y-103588095D01*
X195854762Y-103635714D01*
X195902381Y-103730952D01*
X195902381Y-104016667D01*
X195854762Y-104111905D01*
X195807143Y-104159524D01*
X195902381Y-102588095D02*
X195902381Y-103159524D01*
X195902381Y-102873810D02*
X194902381Y-102873810D01*
X195045238Y-102969048D01*
X195140476Y-103064286D01*
X195188095Y-103159524D01*
X205052381Y-113292857D02*
X204576190Y-113626191D01*
X205052381Y-113864286D02*
X204052381Y-113864286D01*
X204052381Y-113483333D01*
X204100000Y-113388095D01*
X204147619Y-113340476D01*
X204242857Y-113292857D01*
X204385714Y-113292857D01*
X204480952Y-113340476D01*
X204528571Y-113388095D01*
X204576190Y-113483333D01*
X204576190Y-113864286D01*
X204052381Y-112959524D02*
X204052381Y-112340476D01*
X204433333Y-112673810D01*
X204433333Y-112530952D01*
X204480952Y-112435714D01*
X204528571Y-112388095D01*
X204623810Y-112340476D01*
X204861905Y-112340476D01*
X204957143Y-112388095D01*
X205004762Y-112435714D01*
X205052381Y-112530952D01*
X205052381Y-112816667D01*
X205004762Y-112911905D01*
X204957143Y-112959524D01*
X204052381Y-112007143D02*
X204052381Y-111388095D01*
X204433333Y-111721429D01*
X204433333Y-111578571D01*
X204480952Y-111483333D01*
X204528571Y-111435714D01*
X204623810Y-111388095D01*
X204861905Y-111388095D01*
X204957143Y-111435714D01*
X205004762Y-111483333D01*
X205052381Y-111578571D01*
X205052381Y-111864286D01*
X205004762Y-111959524D01*
X204957143Y-112007143D01*
X196357143Y-117102381D02*
X196023809Y-116626190D01*
X195785714Y-117102381D02*
X195785714Y-116102381D01*
X196166667Y-116102381D01*
X196261905Y-116150000D01*
X196309524Y-116197619D01*
X196357143Y-116292857D01*
X196357143Y-116435714D01*
X196309524Y-116530952D01*
X196261905Y-116578571D01*
X196166667Y-116626190D01*
X195785714Y-116626190D01*
X196738095Y-116197619D02*
X196785714Y-116150000D01*
X196880952Y-116102381D01*
X197119048Y-116102381D01*
X197214286Y-116150000D01*
X197261905Y-116197619D01*
X197309524Y-116292857D01*
X197309524Y-116388095D01*
X197261905Y-116530952D01*
X196690476Y-117102381D01*
X197309524Y-117102381D01*
X197642857Y-116102381D02*
X198261905Y-116102381D01*
X197928571Y-116483333D01*
X198071429Y-116483333D01*
X198166667Y-116530952D01*
X198214286Y-116578571D01*
X198261905Y-116673810D01*
X198261905Y-116911905D01*
X198214286Y-117007143D01*
X198166667Y-117054762D01*
X198071429Y-117102381D01*
X197785714Y-117102381D01*
X197690476Y-117054762D01*
X197642857Y-117007143D01*
X195157143Y-71716666D02*
X195204762Y-71764285D01*
X195252381Y-71907142D01*
X195252381Y-72002380D01*
X195204762Y-72145238D01*
X195109524Y-72240476D01*
X195014286Y-72288095D01*
X194823810Y-72335714D01*
X194680952Y-72335714D01*
X194490476Y-72288095D01*
X194395238Y-72240476D01*
X194300000Y-72145238D01*
X194252381Y-72002380D01*
X194252381Y-71907142D01*
X194300000Y-71764285D01*
X194347619Y-71716666D01*
X195252381Y-70764285D02*
X195252381Y-71335714D01*
X195252381Y-71050000D02*
X194252381Y-71050000D01*
X194395238Y-71145238D01*
X194490476Y-71240476D01*
X194538095Y-71335714D01*
X184902381Y-84142857D02*
X184426190Y-84476191D01*
X184902381Y-84714286D02*
X183902381Y-84714286D01*
X183902381Y-84333333D01*
X183950000Y-84238095D01*
X183997619Y-84190476D01*
X184092857Y-84142857D01*
X184235714Y-84142857D01*
X184330952Y-84190476D01*
X184378571Y-84238095D01*
X184426190Y-84333333D01*
X184426190Y-84714286D01*
X184902381Y-83190476D02*
X184902381Y-83761905D01*
X184902381Y-83476191D02*
X183902381Y-83476191D01*
X184045238Y-83571429D01*
X184140476Y-83666667D01*
X184188095Y-83761905D01*
X184902381Y-82238095D02*
X184902381Y-82809524D01*
X184902381Y-82523810D02*
X183902381Y-82523810D01*
X184045238Y-82619048D01*
X184140476Y-82714286D01*
X184188095Y-82809524D01*
X188852381Y-71366666D02*
X188376190Y-71700000D01*
X188852381Y-71938095D02*
X187852381Y-71938095D01*
X187852381Y-71557142D01*
X187900000Y-71461904D01*
X187947619Y-71414285D01*
X188042857Y-71366666D01*
X188185714Y-71366666D01*
X188280952Y-71414285D01*
X188328571Y-71461904D01*
X188376190Y-71557142D01*
X188376190Y-71938095D01*
X187947619Y-70985714D02*
X187900000Y-70938095D01*
X187852381Y-70842857D01*
X187852381Y-70604761D01*
X187900000Y-70509523D01*
X187947619Y-70461904D01*
X188042857Y-70414285D01*
X188138095Y-70414285D01*
X188280952Y-70461904D01*
X188852381Y-71033333D01*
X188852381Y-70414285D01*
X185652381Y-83666666D02*
X185176190Y-84000000D01*
X185652381Y-84238095D02*
X184652381Y-84238095D01*
X184652381Y-83857142D01*
X184700000Y-83761904D01*
X184747619Y-83714285D01*
X184842857Y-83666666D01*
X184985714Y-83666666D01*
X185080952Y-83714285D01*
X185128571Y-83761904D01*
X185176190Y-83857142D01*
X185176190Y-84238095D01*
X185652381Y-82714285D02*
X185652381Y-83285714D01*
X185652381Y-83000000D02*
X184652381Y-83000000D01*
X184795238Y-83095238D01*
X184890476Y-83190476D01*
X184938095Y-83285714D01*
X194033334Y-66352381D02*
X193700000Y-65876190D01*
X193461905Y-66352381D02*
X193461905Y-65352381D01*
X193842858Y-65352381D01*
X193938096Y-65400000D01*
X193985715Y-65447619D01*
X194033334Y-65542857D01*
X194033334Y-65685714D01*
X193985715Y-65780952D01*
X193938096Y-65828571D01*
X193842858Y-65876190D01*
X193461905Y-65876190D01*
X194366667Y-65352381D02*
X194985715Y-65352381D01*
X194652381Y-65733333D01*
X194795239Y-65733333D01*
X194890477Y-65780952D01*
X194938096Y-65828571D01*
X194985715Y-65923810D01*
X194985715Y-66161905D01*
X194938096Y-66257143D01*
X194890477Y-66304762D01*
X194795239Y-66352381D01*
X194509524Y-66352381D01*
X194414286Y-66304762D01*
X194366667Y-66257143D01*
X196802381Y-125169047D02*
X196326190Y-125502381D01*
X196802381Y-125740476D02*
X195802381Y-125740476D01*
X195802381Y-125359523D01*
X195850000Y-125264285D01*
X195897619Y-125216666D01*
X195992857Y-125169047D01*
X196135714Y-125169047D01*
X196230952Y-125216666D01*
X196278571Y-125264285D01*
X196326190Y-125359523D01*
X196326190Y-125740476D01*
X196802381Y-124216666D02*
X196802381Y-124788095D01*
X196802381Y-124502381D02*
X195802381Y-124502381D01*
X195945238Y-124597619D01*
X196040476Y-124692857D01*
X196088095Y-124788095D01*
X195802381Y-123597619D02*
X195802381Y-123502380D01*
X195850000Y-123407142D01*
X195897619Y-123359523D01*
X195992857Y-123311904D01*
X196183333Y-123264285D01*
X196421429Y-123264285D01*
X196611905Y-123311904D01*
X196707143Y-123359523D01*
X196754762Y-123407142D01*
X196802381Y-123502380D01*
X196802381Y-123597619D01*
X196754762Y-123692857D01*
X196707143Y-123740476D01*
X196611905Y-123788095D01*
X196421429Y-123835714D01*
X196183333Y-123835714D01*
X195992857Y-123788095D01*
X195897619Y-123740476D01*
X195850000Y-123692857D01*
X195802381Y-123597619D01*
X195802381Y-122359523D02*
X195802381Y-122835714D01*
X196278571Y-122883333D01*
X196230952Y-122835714D01*
X196183333Y-122740476D01*
X196183333Y-122502380D01*
X196230952Y-122407142D01*
X196278571Y-122359523D01*
X196373810Y-122311904D01*
X196611905Y-122311904D01*
X196707143Y-122359523D01*
X196754762Y-122407142D01*
X196802381Y-122502380D01*
X196802381Y-122740476D01*
X196754762Y-122835714D01*
X196707143Y-122883333D01*
X201480953Y-123757143D02*
X201433334Y-123804762D01*
X201290477Y-123852381D01*
X201195239Y-123852381D01*
X201052381Y-123804762D01*
X200957143Y-123709524D01*
X200909524Y-123614286D01*
X200861905Y-123423810D01*
X200861905Y-123280952D01*
X200909524Y-123090476D01*
X200957143Y-122995238D01*
X201052381Y-122900000D01*
X201195239Y-122852381D01*
X201290477Y-122852381D01*
X201433334Y-122900000D01*
X201480953Y-122947619D01*
X202433334Y-123852381D02*
X201861905Y-123852381D01*
X202147619Y-123852381D02*
X202147619Y-122852381D01*
X202052381Y-122995238D01*
X201957143Y-123090476D01*
X201861905Y-123138095D01*
X203052381Y-122852381D02*
X203147620Y-122852381D01*
X203242858Y-122900000D01*
X203290477Y-122947619D01*
X203338096Y-123042857D01*
X203385715Y-123233333D01*
X203385715Y-123471429D01*
X203338096Y-123661905D01*
X203290477Y-123757143D01*
X203242858Y-123804762D01*
X203147620Y-123852381D01*
X203052381Y-123852381D01*
X202957143Y-123804762D01*
X202909524Y-123757143D01*
X202861905Y-123661905D01*
X202814286Y-123471429D01*
X202814286Y-123233333D01*
X202861905Y-123042857D01*
X202909524Y-122947619D01*
X202957143Y-122900000D01*
X203052381Y-122852381D01*
X204338096Y-123852381D02*
X203766667Y-123852381D01*
X204052381Y-123852381D02*
X204052381Y-122852381D01*
X203957143Y-122995238D01*
X203861905Y-123090476D01*
X203766667Y-123138095D01*
X191202381Y-124819047D02*
X190726190Y-125152381D01*
X191202381Y-125390476D02*
X190202381Y-125390476D01*
X190202381Y-125009523D01*
X190250000Y-124914285D01*
X190297619Y-124866666D01*
X190392857Y-124819047D01*
X190535714Y-124819047D01*
X190630952Y-124866666D01*
X190678571Y-124914285D01*
X190726190Y-125009523D01*
X190726190Y-125390476D01*
X191202381Y-123866666D02*
X191202381Y-124438095D01*
X191202381Y-124152381D02*
X190202381Y-124152381D01*
X190345238Y-124247619D01*
X190440476Y-124342857D01*
X190488095Y-124438095D01*
X190202381Y-123247619D02*
X190202381Y-123152380D01*
X190250000Y-123057142D01*
X190297619Y-123009523D01*
X190392857Y-122961904D01*
X190583333Y-122914285D01*
X190821429Y-122914285D01*
X191011905Y-122961904D01*
X191107143Y-123009523D01*
X191154762Y-123057142D01*
X191202381Y-123152380D01*
X191202381Y-123247619D01*
X191154762Y-123342857D01*
X191107143Y-123390476D01*
X191011905Y-123438095D01*
X190821429Y-123485714D01*
X190583333Y-123485714D01*
X190392857Y-123438095D01*
X190297619Y-123390476D01*
X190250000Y-123342857D01*
X190202381Y-123247619D01*
X190297619Y-122533333D02*
X190250000Y-122485714D01*
X190202381Y-122390476D01*
X190202381Y-122152380D01*
X190250000Y-122057142D01*
X190297619Y-122009523D01*
X190392857Y-121961904D01*
X190488095Y-121961904D01*
X190630952Y-122009523D01*
X191202381Y-122580952D01*
X191202381Y-121961904D01*
X236159524Y-101102381D02*
X236159524Y-100102381D01*
X236588096Y-101102381D02*
X236588096Y-100578571D01*
X236540477Y-100483333D01*
X236445239Y-100435714D01*
X236302381Y-100435714D01*
X236207143Y-100483333D01*
X236159524Y-100530952D01*
X237588096Y-101102381D02*
X237016667Y-101102381D01*
X237302381Y-101102381D02*
X237302381Y-100102381D01*
X237207143Y-100245238D01*
X237111905Y-100340476D01*
X237016667Y-100388095D01*
X175695238Y-49402381D02*
X175695238Y-48735714D01*
X175695238Y-48830952D02*
X175742857Y-48783333D01*
X175838095Y-48735714D01*
X175980953Y-48735714D01*
X176076191Y-48783333D01*
X176123810Y-48878571D01*
X176123810Y-49402381D01*
X176123810Y-48878571D02*
X176171429Y-48783333D01*
X176266667Y-48735714D01*
X176409524Y-48735714D01*
X176504762Y-48783333D01*
X176552381Y-48878571D01*
X176552381Y-49402381D01*
X177552381Y-49402381D02*
X176980952Y-49402381D01*
X177266666Y-49402381D02*
X177266666Y-48402381D01*
X177171428Y-48545238D01*
X177076190Y-48640476D01*
X176980952Y-48688095D01*
X175295238Y-143302381D02*
X175295238Y-142635714D01*
X175295238Y-142730952D02*
X175342857Y-142683333D01*
X175438095Y-142635714D01*
X175580953Y-142635714D01*
X175676191Y-142683333D01*
X175723810Y-142778571D01*
X175723810Y-143302381D01*
X175723810Y-142778571D02*
X175771429Y-142683333D01*
X175866667Y-142635714D01*
X176009524Y-142635714D01*
X176104762Y-142683333D01*
X176152381Y-142778571D01*
X176152381Y-143302381D01*
X176580952Y-142397619D02*
X176628571Y-142350000D01*
X176723809Y-142302381D01*
X176961905Y-142302381D01*
X177057143Y-142350000D01*
X177104762Y-142397619D01*
X177152381Y-142492857D01*
X177152381Y-142588095D01*
X177104762Y-142730952D01*
X176533333Y-143302381D01*
X177152381Y-143302381D01*
X226295238Y-143002381D02*
X226295238Y-142335714D01*
X226295238Y-142430952D02*
X226342857Y-142383333D01*
X226438095Y-142335714D01*
X226580953Y-142335714D01*
X226676191Y-142383333D01*
X226723810Y-142478571D01*
X226723810Y-143002381D01*
X226723810Y-142478571D02*
X226771429Y-142383333D01*
X226866667Y-142335714D01*
X227009524Y-142335714D01*
X227104762Y-142383333D01*
X227152381Y-142478571D01*
X227152381Y-143002381D01*
X227533333Y-142002381D02*
X228152381Y-142002381D01*
X227819047Y-142383333D01*
X227961905Y-142383333D01*
X228057143Y-142430952D01*
X228104762Y-142478571D01*
X228152381Y-142573810D01*
X228152381Y-142811905D01*
X228104762Y-142907143D01*
X228057143Y-142954762D01*
X227961905Y-143002381D01*
X227676190Y-143002381D01*
X227580952Y-142954762D01*
X227533333Y-142907143D01*
X226195238Y-49102381D02*
X226195238Y-48435714D01*
X226195238Y-48530952D02*
X226242857Y-48483333D01*
X226338095Y-48435714D01*
X226480953Y-48435714D01*
X226576191Y-48483333D01*
X226623810Y-48578571D01*
X226623810Y-49102381D01*
X226623810Y-48578571D02*
X226671429Y-48483333D01*
X226766667Y-48435714D01*
X226909524Y-48435714D01*
X227004762Y-48483333D01*
X227052381Y-48578571D01*
X227052381Y-49102381D01*
X227957143Y-48435714D02*
X227957143Y-49102381D01*
X227719047Y-48054762D02*
X227480952Y-48769048D01*
X228100000Y-48769048D01*
M02*
