G04 #@! TF.FileFunction,Copper,L2,Bot,Signal*
%FSLAX46Y46*%
G04 Gerber Fmt 4.6, Leading zero omitted, Abs format (unit mm)*
G04 Created by KiCad (PCBNEW 4.0.7) date Tuesday, August 03, 2021 'PMt' 04:14:27 PM*
%MOMM*%
%LPD*%
G01*
G04 APERTURE LIST*
%ADD10C,0.100000*%
%ADD11C,2.100000*%
%ADD12C,3.000000*%
%ADD13R,2.100000X2.100000*%
%ADD14C,2.300000*%
%ADD15C,2.200000*%
%ADD16C,10.000000*%
%ADD17C,4.000000*%
%ADD18C,3.500000*%
%ADD19C,1.500000*%
%ADD20C,0.500000*%
%ADD21C,1.000000*%
%ADD22C,3.000000*%
%ADD23C,2.000000*%
%ADD24C,1.500000*%
%ADD25C,0.250000*%
G04 APERTURE END LIST*
D10*
D11*
X211400000Y-103430000D03*
X211400000Y-105970000D03*
X195700000Y-93730000D03*
X195700000Y-96270000D03*
X199170000Y-91000000D03*
X196630000Y-91000000D03*
X198400000Y-103830000D03*
X198400000Y-106370000D03*
X202400000Y-111370000D03*
X202400000Y-108830000D03*
X202200000Y-133280000D03*
X202200000Y-135820000D03*
X201200000Y-128430000D03*
X201200000Y-130970000D03*
X215150000Y-121180000D03*
X215150000Y-123720000D03*
X212750000Y-120330000D03*
X212750000Y-122870000D03*
X213050000Y-136080000D03*
X213050000Y-138620000D03*
X210550000Y-133680000D03*
X210550000Y-136220000D03*
D12*
X177950000Y-99900000D03*
X186850000Y-101900000D03*
X186850000Y-97900000D03*
X182200000Y-103000000D03*
X182200000Y-106400000D03*
X182200000Y-93400000D03*
X182200000Y-96800000D03*
D11*
X203000000Y-95100000D03*
X203000000Y-92600000D03*
X203000000Y-90100000D03*
X201400000Y-87000000D03*
X198900000Y-87000000D03*
X196400000Y-87000000D03*
X192900000Y-86900000D03*
X192900000Y-89400000D03*
X192900000Y-91900000D03*
X204900000Y-87200000D03*
X207400000Y-87200000D03*
X209900000Y-87200000D03*
X205900000Y-90700000D03*
X208400000Y-90700000D03*
X210900000Y-90700000D03*
X212200000Y-88400000D03*
X214700000Y-88400000D03*
X217200000Y-88400000D03*
X225806000Y-87035000D03*
X225806000Y-89535000D03*
X225806000Y-92035000D03*
X199000000Y-114000000D03*
X199000000Y-111500000D03*
X199000000Y-109000000D03*
X195600000Y-114200000D03*
X195600000Y-111700000D03*
X195600000Y-109200000D03*
X192300000Y-111800000D03*
X192300000Y-109300000D03*
X192300000Y-106800000D03*
X211600000Y-114200000D03*
X211600000Y-111700000D03*
X211600000Y-109200000D03*
X208100000Y-114100000D03*
X208100000Y-111600000D03*
X208100000Y-109100000D03*
X223100000Y-112100000D03*
X220600000Y-112100000D03*
X218100000Y-112100000D03*
X225900000Y-115600000D03*
X225900000Y-113100000D03*
X225900000Y-110600000D03*
X183650000Y-134000000D03*
X181150000Y-134000000D03*
X178650000Y-134000000D03*
X186600000Y-118800000D03*
X186600000Y-121300000D03*
X186600000Y-123800000D03*
X194950000Y-132700000D03*
X192450000Y-132700000D03*
X189950000Y-132700000D03*
X190050000Y-118900000D03*
X190050000Y-121400000D03*
X190050000Y-123900000D03*
X184300000Y-127650000D03*
X186800000Y-127650000D03*
X189300000Y-127650000D03*
X196100000Y-127150000D03*
X196100000Y-124650000D03*
X196100000Y-122150000D03*
X198500000Y-130900000D03*
X198500000Y-133400000D03*
X198500000Y-135900000D03*
X204550000Y-130250000D03*
X204550000Y-127750000D03*
X204550000Y-125250000D03*
X209550000Y-120350000D03*
X209550000Y-122850000D03*
X209550000Y-125350000D03*
X207900000Y-128650000D03*
X207900000Y-131150000D03*
X207900000Y-133650000D03*
X217650000Y-122050000D03*
X217650000Y-124550000D03*
X217650000Y-127050000D03*
X220550000Y-142900000D03*
X220550000Y-140400000D03*
X220550000Y-137900000D03*
X223400000Y-125350000D03*
X223400000Y-122850000D03*
X223400000Y-120350000D03*
X217050000Y-143000000D03*
X217050000Y-140500000D03*
X217050000Y-138000000D03*
X223950000Y-129350000D03*
X223950000Y-131850000D03*
X223950000Y-134350000D03*
X227300000Y-125350000D03*
X227300000Y-122850000D03*
X227300000Y-120350000D03*
D13*
X232000000Y-140860000D03*
X232000000Y-143400000D03*
X232000000Y-145940000D03*
X232000000Y-128460000D03*
X232000000Y-131000000D03*
X232000000Y-133540000D03*
D11*
X206000000Y-93430000D03*
X206000000Y-95970000D03*
X214030000Y-91100000D03*
X216570000Y-91100000D03*
X229108000Y-87122000D03*
X229108000Y-89662000D03*
X217300000Y-93530000D03*
X217300000Y-96070000D03*
X219900000Y-89330000D03*
X219900000Y-91870000D03*
X223000000Y-89530000D03*
X223000000Y-92070000D03*
X193100000Y-94530000D03*
X193100000Y-97070000D03*
X214400000Y-109430000D03*
X214400000Y-111970000D03*
X213900000Y-103430000D03*
X213900000Y-105970000D03*
X220630000Y-115500000D03*
X223170000Y-115500000D03*
X216400000Y-103430000D03*
X216400000Y-105970000D03*
X219000000Y-103630000D03*
X219000000Y-106170000D03*
X205400000Y-104430000D03*
X205400000Y-106970000D03*
X202900000Y-103830000D03*
X202900000Y-106370000D03*
X178750000Y-127830000D03*
X178750000Y-130370000D03*
X194600000Y-138120000D03*
X194600000Y-135580000D03*
D14*
X187250000Y-134050000D03*
X187250000Y-130450000D03*
D11*
X205400000Y-135270000D03*
X205400000Y-132730000D03*
D14*
X213000000Y-129050000D03*
X213000000Y-125450000D03*
D11*
X220450000Y-122870000D03*
X220450000Y-120330000D03*
X213600000Y-143770000D03*
X213600000Y-141230000D03*
X199870000Y-138250000D03*
X197330000Y-138250000D03*
X178550000Y-137380000D03*
X178550000Y-139920000D03*
D15*
X220600000Y-129260000D03*
X220600000Y-134340000D03*
X215520000Y-131800000D03*
X197890000Y-145900000D03*
X192810000Y-145900000D03*
X195350000Y-140820000D03*
D11*
X198200000Y-65170000D03*
X198200000Y-62630000D03*
X198600000Y-70570000D03*
X198600000Y-68030000D03*
X220470000Y-79500000D03*
X217930000Y-79500000D03*
X223400000Y-82270000D03*
X223400000Y-79730000D03*
X208600000Y-66270000D03*
X208600000Y-63730000D03*
X211200000Y-63730000D03*
X211200000Y-66270000D03*
D13*
X177550000Y-87540000D03*
X177550000Y-85000000D03*
X177550000Y-82460000D03*
D11*
X179500000Y-65900000D03*
X179500000Y-68400000D03*
X179500000Y-70900000D03*
X187250000Y-80850000D03*
X187250000Y-78350000D03*
X187250000Y-75850000D03*
X190400000Y-65850000D03*
X187900000Y-65850000D03*
X185400000Y-65850000D03*
X191050000Y-80850000D03*
X191050000Y-78350000D03*
X191050000Y-75850000D03*
X183250000Y-67950000D03*
X183250000Y-70450000D03*
X183250000Y-72950000D03*
X194200000Y-75850000D03*
X194200000Y-78350000D03*
X194200000Y-80850000D03*
X198000000Y-78800000D03*
X198000000Y-76300000D03*
X198000000Y-73800000D03*
X201400000Y-69450000D03*
X201400000Y-71950000D03*
X201400000Y-74450000D03*
X204100000Y-81400000D03*
X204100000Y-78900000D03*
X204100000Y-76400000D03*
X204900000Y-70500000D03*
X204900000Y-68000000D03*
X204900000Y-65500000D03*
X212600000Y-77300000D03*
X210100000Y-77300000D03*
X207600000Y-77300000D03*
X218700000Y-56200000D03*
X218700000Y-58700000D03*
X218700000Y-61200000D03*
X231500000Y-77300000D03*
X231500000Y-79800000D03*
X231500000Y-82300000D03*
X215300000Y-58500000D03*
X215300000Y-61000000D03*
X215300000Y-63500000D03*
X220000000Y-70600000D03*
X220000000Y-68100000D03*
X220000000Y-65600000D03*
X227700000Y-77200000D03*
X227700000Y-79700000D03*
X227700000Y-82200000D03*
D13*
X232156000Y-54356000D03*
X232156000Y-56896000D03*
X232156000Y-59436000D03*
X232156000Y-65532000D03*
X232156000Y-68072000D03*
X232156000Y-70612000D03*
D14*
X191900000Y-69650000D03*
X191900000Y-73250000D03*
D11*
X200900000Y-78930000D03*
X200900000Y-81470000D03*
X200950000Y-64430000D03*
X200950000Y-66970000D03*
D14*
X207700000Y-70500000D03*
X207700000Y-74100000D03*
D11*
X214700000Y-78930000D03*
X214700000Y-81470000D03*
X211930000Y-56100000D03*
X214470000Y-56100000D03*
X195220000Y-63250000D03*
X192680000Y-63250000D03*
D15*
X216100000Y-67960000D03*
X216100000Y-73040000D03*
X211020000Y-70500000D03*
X191710000Y-54700000D03*
X196790000Y-54700000D03*
X194250000Y-59780000D03*
D13*
X232664000Y-87884000D03*
X232664000Y-90424000D03*
X232664000Y-92964000D03*
X232200000Y-107860000D03*
X232200000Y-110400000D03*
X232200000Y-112940000D03*
D16*
X205200000Y-142700000D03*
X185200000Y-142700000D03*
X204200000Y-57300000D03*
X184200000Y-57300000D03*
D11*
X214800000Y-93530000D03*
X214800000Y-96070000D03*
X228700000Y-61630000D03*
X228700000Y-64170000D03*
X219900000Y-93530000D03*
X219900000Y-96070000D03*
X229108000Y-97155000D03*
X229108000Y-94615000D03*
X220270000Y-108700000D03*
X217730000Y-108700000D03*
X228300000Y-107770000D03*
X228300000Y-105230000D03*
X226568000Y-97028000D03*
X226568000Y-94488000D03*
X224028000Y-96901000D03*
X224028000Y-94361000D03*
X223200000Y-107770000D03*
X223200000Y-105230000D03*
X225800000Y-107770000D03*
X225800000Y-105230000D03*
X228100000Y-138670000D03*
X228100000Y-136130000D03*
X212300000Y-93530000D03*
X212300000Y-96070000D03*
X199300000Y-98600000D03*
X199300000Y-93400000D03*
X190400000Y-89050000D03*
X190400000Y-92650000D03*
X209300000Y-98600000D03*
X209300000Y-93400000D03*
X208000000Y-106400000D03*
X208000000Y-101200000D03*
X195300000Y-106500000D03*
X195300000Y-101300000D03*
X204700000Y-110200000D03*
X204700000Y-115400000D03*
X194400000Y-116500000D03*
X199600000Y-116500000D03*
X194700000Y-69800000D03*
X194700000Y-73400000D03*
X182200000Y-80900000D03*
X182200000Y-86100000D03*
X188350000Y-69750000D03*
X188350000Y-73350000D03*
X184700000Y-81000000D03*
X184700000Y-86200000D03*
X195470000Y-65800000D03*
X192930000Y-65800000D03*
X198600000Y-125850000D03*
X198600000Y-122250000D03*
X204650000Y-123150000D03*
X201050000Y-123150000D03*
X193000000Y-126300000D03*
X193000000Y-121100000D03*
D17*
X236850000Y-70900000D03*
X236850000Y-123900000D03*
D18*
X176100000Y-53200000D03*
X175700000Y-147100000D03*
X226700000Y-146800000D03*
X226600000Y-52900000D03*
D19*
X189800000Y-68050000D03*
X196250000Y-68050000D03*
X189600000Y-107100000D03*
D11*
X189450000Y-115750000D03*
X187450000Y-113150000D03*
X187250000Y-108300000D03*
X225200000Y-59400000D03*
X229800000Y-59400000D03*
D19*
X181450000Y-75950000D03*
X185150000Y-75900000D03*
D11*
X221200000Y-56900000D03*
X227100000Y-56900000D03*
X222400000Y-66600000D03*
X229600000Y-66600000D03*
D19*
X227800000Y-142200000D03*
X222650000Y-142200000D03*
D11*
X222800000Y-61600000D03*
X226700000Y-61600000D03*
X229350000Y-128150000D03*
X229300000Y-134650000D03*
X226700000Y-64100000D03*
X222700000Y-64100000D03*
X232100000Y-97100000D03*
X232100000Y-102500000D03*
X199650000Y-128450000D03*
X194100000Y-128500000D03*
X179150000Y-110800000D03*
X179150000Y-106950000D03*
X179950000Y-104700000D03*
X179950000Y-95100000D03*
D19*
X179850000Y-88950000D03*
X179850000Y-79100000D03*
D11*
X184800000Y-115900000D03*
X178850000Y-124950000D03*
X184100000Y-124900000D03*
D19*
X184850000Y-105150000D03*
X185000000Y-98650000D03*
X185050000Y-103850000D03*
D11*
X224150000Y-140850000D03*
X229450000Y-140850000D03*
D20*
X198200000Y-65170000D02*
X198200000Y-67630000D01*
X198200000Y-67630000D02*
X198600000Y-68030000D01*
X188350000Y-69750000D02*
X188350000Y-69500000D01*
X188350000Y-69500000D02*
X189800000Y-68050000D01*
X196250000Y-68050000D02*
X198600000Y-70400000D01*
X198600000Y-70400000D02*
X198600000Y-70570000D01*
X187900000Y-65850000D02*
X187900000Y-69300000D01*
X187900000Y-69300000D02*
X188350000Y-69750000D01*
X201400000Y-71950000D02*
X199980000Y-71950000D01*
X199980000Y-71950000D02*
X198600000Y-70570000D01*
X220470000Y-79500000D02*
X223170000Y-79500000D01*
X223170000Y-79500000D02*
X223400000Y-79730000D01*
X207700000Y-74100000D02*
X207700000Y-74900000D01*
X207700000Y-74900000D02*
X210100000Y-77300000D01*
X210900000Y-74100000D02*
X211800000Y-74100000D01*
X211800000Y-74100000D02*
X213500000Y-75800000D01*
X213500000Y-75800000D02*
X216500000Y-75800000D01*
X216500000Y-75800000D02*
X217930000Y-77230000D01*
X217930000Y-77230000D02*
X217930000Y-79500000D01*
X207700000Y-74100000D02*
X210900000Y-74100000D01*
X178750000Y-130370000D02*
X176700000Y-130370000D01*
X176700000Y-130370000D02*
X176770000Y-130300000D01*
X176770000Y-130300000D02*
X176800000Y-130300000D01*
X176800000Y-130300000D02*
X176700000Y-130300000D01*
X189450000Y-115750000D02*
X187200000Y-115750000D01*
X187200000Y-115750000D02*
X185750000Y-114300000D01*
X185750000Y-114300000D02*
X177350000Y-114300000D01*
X177350000Y-114300000D02*
X176700000Y-114950000D01*
X176700000Y-114950000D02*
X176700000Y-130300000D01*
X176700000Y-130300000D02*
X176700000Y-140450000D01*
X176700000Y-140450000D02*
X177350000Y-141100000D01*
X177350000Y-141100000D02*
X177370000Y-141100000D01*
X177370000Y-141100000D02*
X178550000Y-139920000D01*
D21*
X177525000Y-143775000D02*
X184125000Y-143775000D01*
X184125000Y-143775000D02*
X185200000Y-142700000D01*
X179250000Y-85000000D02*
X179250000Y-85050000D01*
X179250000Y-85050000D02*
X180200000Y-86000000D01*
X180200000Y-87000000D02*
X180200000Y-86000000D01*
X180200000Y-86000000D02*
X180200000Y-85950000D01*
X183750000Y-88350000D02*
X181550000Y-88350000D01*
X181550000Y-88350000D02*
X180200000Y-87000000D01*
X179250000Y-85000000D02*
X177550000Y-85000000D01*
D20*
X182200000Y-86100000D02*
X184600000Y-86100000D01*
X184600000Y-86100000D02*
X184700000Y-86200000D01*
X184450000Y-86300000D02*
X185550000Y-86300000D01*
X185550000Y-86300000D02*
X187950000Y-88700000D01*
D21*
X183750000Y-88350000D02*
X184850000Y-88350000D01*
X184850000Y-88350000D02*
X186600000Y-90100000D01*
X186600000Y-89900000D02*
X186600000Y-90100000D01*
X186600000Y-90100000D02*
X186600000Y-94200000D01*
X187700000Y-95300000D02*
X186600000Y-94200000D01*
X186600000Y-94200000D02*
X186600000Y-94250000D01*
X186600000Y-94250000D02*
X186900000Y-94550000D01*
D20*
X188150000Y-94300000D02*
X187950000Y-94100000D01*
X187950000Y-94100000D02*
X187950000Y-88700000D01*
X192900000Y-91900000D02*
X192350000Y-91900000D01*
X192350000Y-91900000D02*
X191300000Y-90850000D01*
X191300000Y-90850000D02*
X189300000Y-90850000D01*
X189300000Y-90850000D02*
X188750000Y-91400000D01*
X188750000Y-91400000D02*
X188750000Y-93700000D01*
X193100000Y-97070000D02*
X192120000Y-97070000D01*
X192120000Y-97070000D02*
X188750000Y-93700000D01*
X192500000Y-99625000D02*
X192500000Y-98700000D01*
X192500000Y-98700000D02*
X190400000Y-96600000D01*
X190400000Y-96600000D02*
X190400000Y-96550000D01*
X190400000Y-96550000D02*
X188150000Y-94300000D01*
D21*
X192500000Y-100200000D02*
X192500000Y-99625000D01*
X192500000Y-99625000D02*
X192500000Y-99950000D01*
X192500000Y-99950000D02*
X191200000Y-98650000D01*
X191200000Y-98650000D02*
X190350000Y-98650000D01*
X190350000Y-98650000D02*
X189200000Y-97500000D01*
X189200000Y-97500000D02*
X189200000Y-96800000D01*
X189200000Y-96800000D02*
X187700000Y-95300000D01*
D20*
X189600000Y-107100000D02*
X189600000Y-107050000D01*
X189600000Y-107050000D02*
X190350000Y-106300000D01*
X190350000Y-106300000D02*
X190350000Y-105950000D01*
X189600000Y-107100000D02*
X189600000Y-106700000D01*
X189450000Y-106800000D02*
X189450000Y-106950000D01*
X189450000Y-106950000D02*
X189600000Y-107100000D01*
X192100000Y-103700000D02*
X192100000Y-102600000D01*
X192100000Y-102600000D02*
X191925000Y-102425000D01*
D21*
X187250000Y-108300000D02*
X187250000Y-106950000D01*
X187250000Y-106950000D02*
X190850000Y-103350000D01*
X190850000Y-103350000D02*
X190850000Y-102200000D01*
D20*
X191925000Y-101125000D02*
X191925000Y-102425000D01*
X192100000Y-103700000D02*
X192100000Y-104200000D01*
X192100000Y-104200000D02*
X190350000Y-105950000D01*
X189450000Y-106800000D02*
X189400000Y-106850000D01*
D21*
X184900000Y-113150000D02*
X187450000Y-113150000D01*
X187250000Y-108300000D02*
X187250000Y-108250000D01*
X175600000Y-103400000D02*
X175600000Y-102100000D01*
X175600000Y-102100000D02*
X174850000Y-101350000D01*
X174850000Y-101350000D02*
X174850000Y-98200000D01*
X174850000Y-98200000D02*
X175600000Y-97450000D01*
X192500000Y-100250000D02*
X192500000Y-100550000D01*
X192500000Y-100550000D02*
X191925000Y-101125000D01*
X191925000Y-101125000D02*
X190850000Y-102200000D01*
X187250000Y-108250000D02*
X187250000Y-108450000D01*
X183300000Y-108850000D02*
X183450000Y-108850000D01*
X183450000Y-108850000D02*
X183900000Y-108400000D01*
X192500000Y-100250000D02*
X191450000Y-100250000D01*
X191450000Y-100250000D02*
X191000000Y-100700000D01*
X191000000Y-100700000D02*
X190350000Y-100700000D01*
X190350000Y-100700000D02*
X189400000Y-101650000D01*
X189400000Y-101650000D02*
X189400000Y-102900000D01*
X189400000Y-102900000D02*
X183900000Y-108400000D01*
X177550000Y-143800000D02*
X177525000Y-143775000D01*
X177525000Y-143775000D02*
X175450000Y-141700000D01*
X175450000Y-141700000D02*
X175450000Y-114500000D01*
X175450000Y-114500000D02*
X176800000Y-113150000D01*
X176800000Y-113150000D02*
X184900000Y-113150000D01*
X184200000Y-57300000D02*
X176700000Y-57300000D01*
X176700000Y-57300000D02*
X175600000Y-58400000D01*
X175600000Y-58400000D02*
X175600000Y-97450000D01*
X175600000Y-97450000D02*
X175600000Y-97600000D01*
X175600000Y-103400000D02*
X175600000Y-106050000D01*
X175600000Y-106050000D02*
X178400000Y-108850000D01*
X178400000Y-108850000D02*
X183300000Y-108850000D01*
X192500000Y-100250000D02*
X192500000Y-100200000D01*
X192500000Y-100200000D02*
X192500000Y-99950000D01*
X192500000Y-100200000D02*
X192500000Y-99850000D01*
D20*
X177950000Y-99900000D02*
X192400000Y-99900000D01*
X192400000Y-99900000D02*
X192700000Y-100200000D01*
X192300000Y-106800000D02*
X191700000Y-106800000D01*
X191700000Y-106800000D02*
X190400000Y-108100000D01*
X190400000Y-108100000D02*
X190400000Y-112400000D01*
X190400000Y-112400000D02*
X194400000Y-116400000D01*
X194400000Y-116400000D02*
X194400000Y-116500000D01*
X192200000Y-102500000D02*
X192200000Y-100700000D01*
X192200000Y-100700000D02*
X192700000Y-100200000D01*
X192300000Y-106800000D02*
X192300000Y-105200000D01*
X192300000Y-105200000D02*
X193600000Y-103900000D01*
X191400000Y-106800000D02*
X192300000Y-106800000D01*
X197800000Y-103300000D02*
X198100000Y-103000000D01*
X193600000Y-103900000D02*
X194000000Y-104300000D01*
X193600000Y-103900000D02*
X192200000Y-102500000D01*
X204500000Y-103630000D02*
X203930000Y-103630000D01*
X203930000Y-103630000D02*
X202900000Y-102600000D01*
X202900000Y-102600000D02*
X199600000Y-102600000D01*
X199600000Y-102600000D02*
X198500000Y-102600000D01*
X198500000Y-102600000D02*
X198100000Y-103000000D01*
X198100000Y-103000000D02*
X196800000Y-104300000D01*
X196800000Y-104300000D02*
X194000000Y-104300000D01*
X206900000Y-104500000D02*
X205370000Y-104500000D01*
X205370000Y-104500000D02*
X204500000Y-103630000D01*
D21*
X198800000Y-101500000D02*
X197900000Y-101500000D01*
X197900000Y-101500000D02*
X197300000Y-102100000D01*
X192700000Y-100200000D02*
X192700000Y-101400000D01*
X192700000Y-101400000D02*
X194500000Y-103200000D01*
X194500000Y-103200000D02*
X196200000Y-103200000D01*
X196200000Y-103200000D02*
X197300000Y-102100000D01*
X198800000Y-101500000D02*
X204000000Y-101500000D01*
X207500000Y-103200000D02*
X207200000Y-103200000D01*
X207200000Y-103200000D02*
X205500000Y-101500000D01*
X205500000Y-101500000D02*
X204000000Y-101500000D01*
D20*
X211400000Y-103430000D02*
X210370000Y-103430000D01*
X210370000Y-103430000D02*
X209300000Y-104500000D01*
X209300000Y-104500000D02*
X206900000Y-104500000D01*
X206900000Y-104500000D02*
X206700000Y-104500000D01*
X219000000Y-103630000D02*
X216600000Y-103630000D01*
X216600000Y-103630000D02*
X216400000Y-103430000D01*
X213900000Y-103430000D02*
X216400000Y-103430000D01*
X211400000Y-103430000D02*
X213900000Y-103430000D01*
D21*
X211949998Y-101500000D02*
X210500000Y-101500000D01*
X210500000Y-101500000D02*
X208800000Y-103200000D01*
X208800000Y-103200000D02*
X207500000Y-103200000D01*
X219500000Y-101500000D02*
X211949998Y-101500000D01*
X223200000Y-107770000D02*
X222970000Y-107770000D01*
X222970000Y-107770000D02*
X221000000Y-105800000D01*
X221000000Y-105800000D02*
X221000000Y-103000000D01*
X221000000Y-103000000D02*
X219500000Y-101500000D01*
X223200000Y-107770000D02*
X222870000Y-107770000D01*
X225800000Y-107770000D02*
X223200000Y-107770000D01*
X228300000Y-107770000D02*
X225800000Y-107770000D01*
D20*
X212300000Y-96070000D02*
X210970000Y-96070000D01*
X206770000Y-95200000D02*
X206000000Y-95970000D01*
X210100000Y-95200000D02*
X206770000Y-95200000D01*
X210970000Y-96070000D02*
X210100000Y-95200000D01*
X201900000Y-96800000D02*
X205170000Y-96800000D01*
X201900000Y-96800000D02*
X200500000Y-95400000D01*
X200500000Y-95400000D02*
X196570000Y-95400000D01*
X195700000Y-96270000D02*
X196570000Y-95400000D01*
X205170000Y-96800000D02*
X206000000Y-95970000D01*
D21*
X201544000Y-98044000D02*
X207056000Y-98044000D01*
X208500000Y-96600000D02*
X207056000Y-98044000D01*
X197300000Y-97800000D02*
X197300000Y-98800000D01*
X195300000Y-99000000D02*
X197100000Y-99000000D01*
X197300000Y-98800000D02*
X197100000Y-99000000D01*
X198500000Y-96600000D02*
X197300000Y-97800000D01*
X200100000Y-96600000D02*
X198500000Y-96600000D01*
X201544000Y-98044000D02*
X200100000Y-96600000D01*
X208500000Y-96600000D02*
X209300000Y-96600000D01*
X213400000Y-98044000D02*
X211444000Y-98044000D01*
X211444000Y-98044000D02*
X210000000Y-96600000D01*
X210000000Y-96600000D02*
X209300000Y-96600000D01*
X209300000Y-96600000D02*
X209200000Y-96600000D01*
D20*
X214800000Y-96170000D02*
X212300000Y-96170000D01*
X217300000Y-96170000D02*
X214800000Y-96170000D01*
X223000000Y-92070000D02*
X223000000Y-92970000D01*
X223000000Y-92970000D02*
X219900000Y-96070000D01*
X219900000Y-96070000D02*
X217400000Y-96070000D01*
X217400000Y-96070000D02*
X217300000Y-96170000D01*
X192400000Y-99900000D02*
X192700000Y-100200000D01*
X193100000Y-97070000D02*
X193100000Y-99600000D01*
D21*
X193900000Y-99000000D02*
X192700000Y-100200000D01*
X193900000Y-99000000D02*
X195300000Y-99000000D01*
D22*
X192700000Y-100200000D02*
X192500000Y-100200000D01*
D20*
X193100000Y-99600000D02*
X192500000Y-100200000D01*
D21*
X221742000Y-97409000D02*
X221107000Y-98044000D01*
X221107000Y-98044000D02*
X217043000Y-98044000D01*
X223774000Y-94361000D02*
X221742000Y-96393000D01*
X213360000Y-98044000D02*
X213400000Y-98044000D01*
X213400000Y-98044000D02*
X217043000Y-98044000D01*
X221742000Y-96393000D02*
X221742000Y-97409000D01*
X195300000Y-99000000D02*
X195100000Y-99000000D01*
D20*
X193100000Y-97070000D02*
X194900000Y-97070000D01*
X194900000Y-97070000D02*
X195700000Y-96270000D01*
X223000000Y-92070000D02*
X223000000Y-92600000D01*
D21*
X224028000Y-94361000D02*
X223774000Y-94361000D01*
X224028000Y-94361000D02*
X226441000Y-94361000D01*
X226441000Y-94361000D02*
X226568000Y-94488000D01*
X229108000Y-94615000D02*
X226695000Y-94615000D01*
X226695000Y-94615000D02*
X226568000Y-94488000D01*
D20*
X199870000Y-138250000D02*
X200750000Y-138250000D01*
X200750000Y-138250000D02*
X205200000Y-142700000D01*
D21*
X232000000Y-133540000D02*
X230940000Y-133540000D01*
X230940000Y-133540000D02*
X230100000Y-132700000D01*
X230100000Y-132700000D02*
X228040000Y-132700000D01*
X228040000Y-132700000D02*
X227200000Y-133540000D01*
X205200000Y-142700000D02*
X207250000Y-142700000D01*
X207250000Y-142700000D02*
X210300000Y-145750000D01*
X210300000Y-145750000D02*
X221500000Y-145750000D01*
X221500000Y-145750000D02*
X223450000Y-143800000D01*
X227200000Y-133540000D02*
X227200000Y-133550000D01*
X227200000Y-133550000D02*
X226100000Y-134650000D01*
X226100000Y-134650000D02*
X226100000Y-143800000D01*
X223450000Y-143800000D02*
X226100000Y-143800000D01*
X226100000Y-143800000D02*
X228800000Y-143800000D01*
X228800000Y-143800000D02*
X230940000Y-145940000D01*
X230940000Y-145940000D02*
X232000000Y-145940000D01*
D20*
X195220000Y-63250000D02*
X195220000Y-62830000D01*
X195220000Y-62830000D02*
X200750000Y-57300000D01*
X200750000Y-57300000D02*
X204200000Y-57300000D01*
X200300000Y-57300000D02*
X204200000Y-57300000D01*
D21*
X224700000Y-63100000D02*
X224700000Y-64900000D01*
X224700000Y-64900000D02*
X227700000Y-67900000D01*
X227700000Y-67900000D02*
X227700000Y-68300000D01*
X219100000Y-53300000D02*
X208200000Y-53300000D01*
X208200000Y-53300000D02*
X204200000Y-57300000D01*
X225200000Y-59400000D02*
X225200000Y-56900000D01*
X225200000Y-56900000D02*
X221600000Y-53300000D01*
X221600000Y-53300000D02*
X219100000Y-53300000D01*
X224700000Y-63100000D02*
X224700000Y-59900000D01*
X224700000Y-59900000D02*
X225200000Y-59400000D01*
X230812000Y-70612000D02*
X230012000Y-70612000D01*
X230012000Y-70612000D02*
X227700000Y-68300000D01*
X225200000Y-59400000D02*
X224700000Y-59400000D01*
X232156000Y-70612000D02*
X230812000Y-70612000D01*
X232156000Y-59436000D02*
X229836000Y-59436000D01*
X229836000Y-59436000D02*
X229800000Y-59400000D01*
D20*
X185400000Y-65850000D02*
X185350000Y-65850000D01*
X185350000Y-65850000D02*
X183250000Y-67950000D01*
X179500000Y-65900000D02*
X181200000Y-65900000D01*
X181200000Y-65900000D02*
X183250000Y-67950000D01*
X179500000Y-68400000D02*
X178800000Y-68400000D01*
X178800000Y-68400000D02*
X177800000Y-67400000D01*
X182750000Y-64150000D02*
X178800000Y-64150000D01*
X178800000Y-64150000D02*
X177800000Y-65150000D01*
X177800000Y-65150000D02*
X177800000Y-67400000D01*
X194250000Y-59780000D02*
X192320000Y-59780000D01*
X192320000Y-59780000D02*
X187950000Y-64150000D01*
X187950000Y-64150000D02*
X182750000Y-64150000D01*
X181450000Y-75950000D02*
X179500000Y-74000000D01*
X179500000Y-74000000D02*
X179500000Y-70900000D01*
X187250000Y-75850000D02*
X185200000Y-75850000D01*
X185200000Y-75850000D02*
X185150000Y-75900000D01*
X187250000Y-78350000D02*
X191050000Y-78350000D01*
X187250000Y-75850000D02*
X187250000Y-78350000D01*
X190400000Y-65850000D02*
X192880000Y-65850000D01*
X192880000Y-65850000D02*
X192930000Y-65800000D01*
X194200000Y-75850000D02*
X197550000Y-75850000D01*
X197550000Y-75850000D02*
X198000000Y-76300000D01*
X194200000Y-75850000D02*
X194200000Y-75550000D01*
X194200000Y-75550000D02*
X191900000Y-73250000D01*
X198000000Y-78800000D02*
X200770000Y-78800000D01*
X200770000Y-78800000D02*
X200900000Y-78930000D01*
X200900000Y-78930000D02*
X204070000Y-78930000D01*
X204070000Y-78930000D02*
X204100000Y-78900000D01*
X200950000Y-66970000D02*
X200950000Y-69000000D01*
X200950000Y-69000000D02*
X201400000Y-69450000D01*
X204900000Y-70500000D02*
X204900000Y-70800000D01*
X204900000Y-70800000D02*
X206400000Y-72300000D01*
X206400000Y-72300000D02*
X211200000Y-72300000D01*
X207600000Y-77300000D02*
X204800000Y-74500000D01*
X204800000Y-74500000D02*
X204800000Y-70600000D01*
X204800000Y-70600000D02*
X204900000Y-70500000D01*
X227700000Y-79700000D02*
X227500000Y-79700000D01*
X227500000Y-79700000D02*
X222700000Y-74900000D01*
X222700000Y-74900000D02*
X213800000Y-74900000D01*
X213800000Y-74900000D02*
X211200000Y-72300000D01*
D23*
X231500000Y-79800000D02*
X233700000Y-79800000D01*
X227700000Y-79700000D02*
X231400000Y-79700000D01*
X231400000Y-79700000D02*
X231500000Y-79800000D01*
D20*
X212600000Y-77300000D02*
X213070000Y-77300000D01*
X213070000Y-77300000D02*
X214700000Y-78930000D01*
D23*
X214470000Y-56100000D02*
X214470000Y-57670000D01*
X214470000Y-57670000D02*
X215300000Y-58500000D01*
X214470000Y-56100000D02*
X218600000Y-56100000D01*
X218600000Y-56100000D02*
X218700000Y-56200000D01*
D20*
X221200000Y-56900000D02*
X221200000Y-58700000D01*
X221200000Y-58700000D02*
X218700000Y-61200000D01*
X218000000Y-65600000D02*
X220000000Y-65600000D01*
D24*
X218700000Y-61200000D02*
X219400000Y-61200000D01*
X219400000Y-61200000D02*
X220000000Y-61800000D01*
X220000000Y-61800000D02*
X220000000Y-65600000D01*
D23*
X215300000Y-63500000D02*
X216400000Y-63500000D01*
X216400000Y-63500000D02*
X218700000Y-61200000D01*
D20*
X232156000Y-54356000D02*
X231544000Y-54356000D01*
X231544000Y-54356000D02*
X230400000Y-55500000D01*
X230400000Y-55500000D02*
X230400000Y-56000000D01*
X230400000Y-56000000D02*
X230000000Y-56400000D01*
X230000000Y-56400000D02*
X227600000Y-56400000D01*
X227600000Y-56400000D02*
X227100000Y-56900000D01*
X216100000Y-67960000D02*
X216100000Y-67500000D01*
X216100000Y-67500000D02*
X218000000Y-65600000D01*
X216100000Y-73040000D02*
X217560000Y-73040000D01*
X217560000Y-73040000D02*
X220000000Y-70600000D01*
D21*
X220000000Y-70600000D02*
X221600000Y-70600000D01*
X221600000Y-70600000D02*
X223850000Y-68350000D01*
D23*
X222400000Y-66600000D02*
X222400000Y-66900000D01*
X222400000Y-66900000D02*
X223850000Y-68350000D01*
X223850000Y-68350000D02*
X227700000Y-72200000D01*
X227700000Y-72200000D02*
X227700000Y-77200000D01*
X231500000Y-77300000D02*
X233600000Y-77300000D01*
X227700000Y-77200000D02*
X231400000Y-77200000D01*
X231400000Y-77200000D02*
X231500000Y-77300000D01*
D21*
X232156000Y-65532000D02*
X230668000Y-65532000D01*
X230668000Y-65532000D02*
X229600000Y-66600000D01*
D20*
X211020000Y-70500000D02*
X216700000Y-70500000D01*
X216700000Y-70500000D02*
X219100000Y-68100000D01*
X219100000Y-68100000D02*
X220000000Y-68100000D01*
X199700000Y-75150000D02*
X199700000Y-73000000D01*
X199700000Y-73000000D02*
X199500000Y-72800000D01*
X199500000Y-72800000D02*
X198850000Y-72150000D01*
X198850000Y-72150000D02*
X197050000Y-72150000D01*
X197050000Y-72150000D02*
X194700000Y-69800000D01*
X204100000Y-76400000D02*
X200950000Y-76400000D01*
X200950000Y-76400000D02*
X199700000Y-75150000D01*
X204100000Y-76400000D02*
X204100000Y-75150000D01*
X204100000Y-75150000D02*
X203150000Y-74200000D01*
X203150000Y-74200000D02*
X203150000Y-73600000D01*
X204900000Y-68000000D02*
X204750000Y-68000000D01*
X204750000Y-68000000D02*
X203150000Y-69600000D01*
X203150000Y-69600000D02*
X203150000Y-73600000D01*
X201400000Y-74450000D02*
X202150000Y-74450000D01*
X202150000Y-74450000D02*
X204100000Y-76400000D01*
X183250000Y-72950000D02*
X185150000Y-72950000D01*
X185150000Y-72950000D02*
X186550000Y-71550000D01*
X186550000Y-71550000D02*
X186600000Y-71600000D01*
X186600000Y-71600000D02*
X190900000Y-71600000D01*
X191050000Y-75850000D02*
X191050000Y-75550000D01*
X191050000Y-75550000D02*
X190050000Y-74550000D01*
X190050000Y-74550000D02*
X190050000Y-72450000D01*
X190050000Y-72450000D02*
X190900000Y-71600000D01*
X190900000Y-71600000D02*
X191050000Y-71450000D01*
X191050000Y-75850000D02*
X190800000Y-75850000D01*
X191050000Y-75850000D02*
X191050000Y-75550000D01*
X191050000Y-75850000D02*
X191700000Y-75850000D01*
X191700000Y-75850000D02*
X194200000Y-78350000D01*
X191050000Y-71450000D02*
X192750000Y-71450000D01*
X192750000Y-71450000D02*
X194700000Y-73400000D01*
D23*
X211200000Y-66270000D02*
X208600000Y-66270000D01*
D20*
X208600000Y-66270000D02*
X211200000Y-66270000D01*
X207700000Y-70500000D02*
X207700000Y-70250000D01*
X207700000Y-70250000D02*
X209650000Y-68300000D01*
X209650000Y-68300000D02*
X212450000Y-68300000D01*
X212450000Y-68300000D02*
X213500000Y-67250000D01*
X213500000Y-67250000D02*
X213500000Y-66030000D01*
X213500000Y-66030000D02*
X211200000Y-63730000D01*
D23*
X215300000Y-61000000D02*
X213930000Y-61000000D01*
X213930000Y-61000000D02*
X211200000Y-63730000D01*
D21*
X215300000Y-61000000D02*
X215800000Y-61000000D01*
X215800000Y-61000000D02*
X218100000Y-58700000D01*
X218100000Y-58700000D02*
X218700000Y-58700000D01*
D20*
X194600000Y-138120000D02*
X193870000Y-138120000D01*
X193870000Y-138120000D02*
X190600000Y-134850000D01*
X190600000Y-134850000D02*
X188050000Y-134850000D01*
X188050000Y-134850000D02*
X187250000Y-134050000D01*
X194600000Y-138120000D02*
X194830000Y-138120000D01*
X194830000Y-138120000D02*
X197050000Y-135900000D01*
X197050000Y-135900000D02*
X198500000Y-135900000D01*
X202200000Y-135820000D02*
X198580000Y-135820000D01*
X198580000Y-135820000D02*
X198500000Y-135900000D01*
X205400000Y-135270000D02*
X202750000Y-135270000D01*
X202750000Y-135270000D02*
X202200000Y-135820000D01*
X205400000Y-135270000D02*
X206280000Y-135270000D01*
X206280000Y-135270000D02*
X207900000Y-133650000D01*
X207900000Y-136000000D02*
X207900000Y-133650000D01*
X213050000Y-138620000D02*
X211070000Y-138620000D01*
X211070000Y-138620000D02*
X210840000Y-138850000D01*
X210840000Y-138850000D02*
X210750000Y-138850000D01*
X210750000Y-138850000D02*
X208700000Y-136800000D01*
X208700000Y-136800000D02*
X207900000Y-136000000D01*
X213050000Y-138620000D02*
X212730000Y-138620000D01*
X212730000Y-138620000D02*
X211700000Y-139650000D01*
X213600000Y-143770000D02*
X213600000Y-143950000D01*
X213600000Y-143950000D02*
X214250000Y-144600000D01*
X213600000Y-143770000D02*
X213600000Y-144499994D01*
X213600000Y-144499994D02*
X213700006Y-144600000D01*
X213700006Y-144600000D02*
X213600000Y-143770000D01*
X216200000Y-144600000D02*
X214250000Y-144600000D01*
X214250000Y-144600000D02*
X212600000Y-144600000D01*
X212600000Y-144600000D02*
X211700000Y-143700000D01*
X211700000Y-143700000D02*
X211700000Y-139650000D01*
X222650000Y-142200000D02*
X222650000Y-143100000D01*
X222650000Y-143100000D02*
X221150000Y-144600000D01*
X221150000Y-144600000D02*
X216200000Y-144600000D01*
X216200000Y-144600000D02*
X216100000Y-144600000D01*
X228100000Y-138670000D02*
X228100000Y-139100000D01*
X228100000Y-139100000D02*
X227800000Y-139400000D01*
X227800000Y-139400000D02*
X227800000Y-142200000D01*
D21*
X228100000Y-138670000D02*
X233320000Y-138670000D01*
X233320000Y-138670000D02*
X234450000Y-139800000D01*
X234450000Y-139800000D02*
X234450000Y-143400000D01*
D20*
X211930000Y-56100000D02*
X211930000Y-55680000D01*
X211930000Y-55680000D02*
X211375000Y-55125000D01*
X195470000Y-65800000D02*
X195470000Y-65360000D01*
X195470000Y-65360000D02*
X198200000Y-62630000D01*
X191900000Y-69650000D02*
X191900000Y-69370000D01*
X191900000Y-69370000D02*
X195470000Y-65800000D01*
X191900000Y-69650000D02*
X192100000Y-69650000D01*
X192100000Y-69650000D02*
X194050000Y-71600000D01*
X194050000Y-71600000D02*
X195300000Y-71600000D01*
X195300000Y-71600000D02*
X197500000Y-73800000D01*
X197500000Y-73800000D02*
X198000000Y-73800000D01*
X191900000Y-69650000D02*
X191900000Y-69600000D01*
X198200000Y-62630000D02*
X198200000Y-62700000D01*
X198200000Y-62630000D02*
X199150000Y-62630000D01*
X199150000Y-62630000D02*
X200950000Y-64430000D01*
X200950000Y-64430000D02*
X203830000Y-64430000D01*
X203830000Y-64430000D02*
X204900000Y-65500000D01*
X208600000Y-63730000D02*
X207520000Y-63730000D01*
X207520000Y-63730000D02*
X207450000Y-63800000D01*
X207450000Y-63800000D02*
X207450000Y-63750000D01*
X204900000Y-65500000D02*
X205700000Y-65500000D01*
X205700000Y-65500000D02*
X206500000Y-64700000D01*
X208600000Y-63730000D02*
X208600000Y-62900000D01*
X208600000Y-62900000D02*
X208450000Y-62750000D01*
X208450000Y-62750000D02*
X208600000Y-63730000D01*
X219300000Y-54500000D02*
X212000000Y-54500000D01*
X223900000Y-57700000D02*
X223900000Y-58400000D01*
X223900000Y-58400000D02*
X222800000Y-59500000D01*
X222800000Y-59500000D02*
X222800000Y-61600000D01*
X223900000Y-57700000D02*
X223900000Y-57200000D01*
X223900000Y-57200000D02*
X221200000Y-54500000D01*
X221200000Y-54500000D02*
X219300000Y-54500000D01*
X222800000Y-61600000D02*
X223400000Y-61000000D01*
X212000000Y-54500000D02*
X211375000Y-55125000D01*
X211375000Y-55125000D02*
X211100000Y-55400000D01*
X211100000Y-55400000D02*
X211100000Y-60100000D01*
X211100000Y-60100000D02*
X207450000Y-63750000D01*
X207450000Y-63750000D02*
X206500000Y-64700000D01*
D21*
X232156000Y-56896000D02*
X231604000Y-56896000D01*
X231604000Y-56896000D02*
X231000000Y-57500000D01*
X231000000Y-57500000D02*
X229100000Y-57500000D01*
X229100000Y-57500000D02*
X227900000Y-58700000D01*
X227900000Y-58700000D02*
X227900000Y-60300000D01*
X228700000Y-61630000D02*
X226730000Y-61630000D01*
X226730000Y-61630000D02*
X226700000Y-61600000D01*
X228700000Y-61630000D02*
X228700000Y-61100000D01*
X228700000Y-61100000D02*
X227900000Y-60300000D01*
X240411000Y-95631000D02*
X240411000Y-93689000D01*
X240411000Y-93689000D02*
X241700000Y-92400000D01*
X241700000Y-92400000D02*
X241700000Y-66900000D01*
X241700000Y-66900000D02*
X237500000Y-62700000D01*
X237500000Y-62700000D02*
X237500000Y-59100000D01*
X237500000Y-59100000D02*
X235296000Y-56896000D01*
X235296000Y-56896000D02*
X232156000Y-56896000D01*
X241700000Y-114500000D02*
X241700000Y-126300000D01*
X241700000Y-126300000D02*
X237700000Y-130300000D01*
X237700000Y-130300000D02*
X237700000Y-141500000D01*
X237700000Y-141500000D02*
X235800000Y-143400000D01*
X235800000Y-143400000D02*
X234450000Y-143400000D01*
X234450000Y-143400000D02*
X232000000Y-143400000D01*
X241000000Y-107000000D02*
X241000000Y-109000000D01*
X241000000Y-109000000D02*
X241700000Y-109700000D01*
X241700000Y-109700000D02*
X241700000Y-114500000D01*
X239400000Y-103100000D02*
X239400000Y-105400000D01*
X224028000Y-99828000D02*
X224700000Y-100500000D01*
X224700000Y-100500000D02*
X236800000Y-100500000D01*
X236800000Y-100500000D02*
X239400000Y-103100000D01*
X224028000Y-96901000D02*
X224028000Y-99828000D01*
X239400000Y-105400000D02*
X241000000Y-107000000D01*
X225044000Y-99060000D02*
X236982000Y-99060000D01*
X240411000Y-95631000D02*
X236982000Y-99060000D01*
X225044000Y-99060000D02*
X224028000Y-98044000D01*
X224028000Y-96901000D02*
X224028000Y-98044000D01*
X229108000Y-97155000D02*
X229345000Y-97155000D01*
X229345000Y-97155000D02*
X231100000Y-95400000D01*
X231100000Y-94528000D02*
X232664000Y-92964000D01*
X231100000Y-95400000D02*
X231100000Y-94528000D01*
D20*
X208713000Y-99187000D02*
X200487000Y-99187000D01*
X200487000Y-99187000D02*
X199900000Y-98600000D01*
X208713000Y-99187000D02*
X209300000Y-98600000D01*
X209887000Y-99187000D02*
X221742000Y-99187000D01*
X221742000Y-99187000D02*
X223000000Y-97929000D01*
X209887000Y-99187000D02*
X209300000Y-98600000D01*
X224028000Y-96901000D02*
X224028000Y-96972000D01*
X224028000Y-96972000D02*
X223000000Y-98000000D01*
X223000000Y-98000000D02*
X223000000Y-97929000D01*
X199300000Y-98600000D02*
X199900000Y-98600000D01*
X224028000Y-96901000D02*
X223000000Y-97929000D01*
D21*
X226568000Y-97028000D02*
X228981000Y-97028000D01*
X228981000Y-97028000D02*
X229108000Y-97155000D01*
X224028000Y-96901000D02*
X226441000Y-96901000D01*
X226441000Y-96901000D02*
X226568000Y-97028000D01*
D20*
X209550000Y-120350000D02*
X209250000Y-120350000D01*
X209250000Y-120350000D02*
X208450000Y-119550000D01*
X198600000Y-122250000D02*
X198500000Y-122250000D01*
X198500000Y-122250000D02*
X197700000Y-121450000D01*
X196100000Y-122150000D02*
X195400000Y-121450000D01*
X195400000Y-121450000D02*
X195200000Y-121450000D01*
X195200000Y-121450000D02*
X195150000Y-121400000D01*
X195150000Y-121400000D02*
X195150000Y-121450000D01*
X198600000Y-122250000D02*
X198600000Y-122000000D01*
X198600000Y-122000000D02*
X199150000Y-121450000D01*
X199150000Y-121450000D02*
X198600000Y-122250000D01*
X193000000Y-121100000D02*
X193000000Y-120400000D01*
X193000000Y-120400000D02*
X193425000Y-119975000D01*
X190050000Y-118900000D02*
X192300000Y-118900000D01*
X192300000Y-118900000D02*
X192500000Y-119100000D01*
X192500000Y-119100000D02*
X192500000Y-119050000D01*
X186600000Y-118800000D02*
X189950000Y-118800000D01*
X189950000Y-118800000D02*
X190050000Y-118900000D01*
X212750000Y-120330000D02*
X212970000Y-120330000D01*
X212970000Y-120330000D02*
X213750000Y-119550000D01*
X220450000Y-120330000D02*
X219980000Y-120330000D01*
X219980000Y-120330000D02*
X219200000Y-119550000D01*
D23*
X223400000Y-120350000D02*
X227300000Y-120350000D01*
D20*
X227300000Y-120350000D02*
X227250000Y-120350000D01*
X227250000Y-120350000D02*
X226450000Y-119550000D01*
X223400000Y-120350000D02*
X223550000Y-120350000D01*
X223550000Y-120350000D02*
X224350000Y-119550000D01*
X229350000Y-121850000D02*
X229350000Y-121200000D01*
X229350000Y-121200000D02*
X227700000Y-119550000D01*
X227700000Y-119550000D02*
X226450000Y-119550000D01*
X226450000Y-119550000D02*
X224350000Y-119550000D01*
X224350000Y-119550000D02*
X219200000Y-119550000D01*
X219200000Y-119550000D02*
X213750000Y-119550000D01*
X213750000Y-119550000D02*
X208450000Y-119550000D01*
X208450000Y-119550000D02*
X203850000Y-119550000D01*
X203850000Y-119550000D02*
X201950000Y-121450000D01*
X201950000Y-121450000D02*
X197700000Y-121450000D01*
X197700000Y-121450000D02*
X195150000Y-121450000D01*
X195150000Y-121450000D02*
X194900000Y-121450000D01*
X194900000Y-121450000D02*
X193425000Y-119975000D01*
X193425000Y-119975000D02*
X192500000Y-119050000D01*
X229350000Y-128150000D02*
X229350000Y-124050000D01*
X229350000Y-124050000D02*
X229350000Y-121850000D01*
X229350000Y-121850000D02*
X229350000Y-121800000D01*
X228100000Y-136130000D02*
X228100000Y-135850000D01*
X228100000Y-135850000D02*
X229300000Y-134650000D01*
D21*
X228100000Y-136130000D02*
X233670000Y-136130000D01*
X233670000Y-136130000D02*
X234600000Y-135200000D01*
X234600000Y-135200000D02*
X234600000Y-131000000D01*
D20*
X184450000Y-78150000D02*
X183800000Y-77500000D01*
X183800000Y-77500000D02*
X183800000Y-75050000D01*
X183800000Y-75050000D02*
X184650000Y-74200000D01*
X184650000Y-74200000D02*
X185500000Y-74200000D01*
X185500000Y-74200000D02*
X186350000Y-73350000D01*
X186350000Y-73350000D02*
X188350000Y-73350000D01*
X187250000Y-80850000D02*
X187150000Y-80850000D01*
X187150000Y-80850000D02*
X184450000Y-78150000D01*
X191050000Y-80850000D02*
X187250000Y-80850000D01*
X194200000Y-80850000D02*
X191050000Y-80850000D01*
X200900000Y-81470000D02*
X200470000Y-81470000D01*
X200470000Y-81470000D02*
X199850000Y-80850000D01*
X199850000Y-80850000D02*
X194200000Y-80850000D01*
X204100000Y-81400000D02*
X204100000Y-81500000D01*
X204100000Y-81500000D02*
X204870000Y-82270000D01*
X204100000Y-81400000D02*
X204100000Y-82150000D01*
X204100000Y-82150000D02*
X203980000Y-82270000D01*
X203980000Y-82270000D02*
X204100000Y-81400000D01*
X200900000Y-81470000D02*
X200900000Y-81700000D01*
X200900000Y-81700000D02*
X201470000Y-82270000D01*
X201470000Y-82270000D02*
X200900000Y-81470000D01*
X214700000Y-81470000D02*
X214970000Y-81470000D01*
X214970000Y-81470000D02*
X215770000Y-82270000D01*
X223400000Y-82270000D02*
X220530000Y-82270000D01*
X214700000Y-81470000D02*
X214700000Y-81600000D01*
X214700000Y-81600000D02*
X215370000Y-82270000D01*
X215370000Y-82270000D02*
X214700000Y-81470000D01*
X214700000Y-82140000D02*
X214570000Y-82270000D01*
X213230000Y-82270000D02*
X213130000Y-82270000D01*
X213130000Y-82270000D02*
X204870000Y-82270000D01*
X204870000Y-82270000D02*
X200570000Y-82270000D01*
X200570000Y-82270000D02*
X199900000Y-81600000D01*
X223400000Y-82270000D02*
X220530000Y-82270000D01*
X220530000Y-82270000D02*
X215770000Y-82270000D01*
X215770000Y-82270000D02*
X213230000Y-82270000D01*
X223400000Y-82270000D02*
X227630000Y-82270000D01*
X227630000Y-82270000D02*
X227700000Y-82200000D01*
X223400000Y-82270000D02*
X223330000Y-82270000D01*
X223400000Y-82270000D02*
X223400000Y-83100000D01*
X235250000Y-75350000D02*
X236900000Y-77000000D01*
D23*
X234600000Y-82300000D02*
X235900000Y-82300000D01*
X235900000Y-82300000D02*
X236900000Y-81300000D01*
X236900000Y-81300000D02*
X236900000Y-77000000D01*
X231500000Y-82300000D02*
X234600000Y-82300000D01*
X227700000Y-82200000D02*
X231400000Y-82200000D01*
X231400000Y-82200000D02*
X231500000Y-82300000D01*
D20*
X222700000Y-64100000D02*
X222700000Y-64500000D01*
X222700000Y-64500000D02*
X226600000Y-68400000D01*
X226600000Y-68400000D02*
X226600000Y-68800000D01*
X226600000Y-68800000D02*
X230400000Y-72600000D01*
X230400000Y-72600000D02*
X232500000Y-72600000D01*
X232500000Y-72600000D02*
X235250000Y-75350000D01*
X235250000Y-75350000D02*
X235300000Y-75400000D01*
X235300000Y-82500000D02*
X234700000Y-83100000D01*
X228700000Y-64170000D02*
X226770000Y-64170000D01*
X226770000Y-64170000D02*
X226700000Y-64100000D01*
D21*
X228700000Y-64170000D02*
X230030000Y-64170000D01*
X230030000Y-64170000D02*
X230700000Y-63500000D01*
X230700000Y-63500000D02*
X233600000Y-63500000D01*
X233600000Y-63500000D02*
X234600000Y-64500000D01*
X234600000Y-64500000D02*
X234600000Y-66500000D01*
X232100000Y-97100000D02*
X232700000Y-96500000D01*
X232700000Y-96500000D02*
X235600000Y-96500000D01*
X235600000Y-96500000D02*
X240300000Y-91800000D01*
X240300000Y-91800000D02*
X240300000Y-83700000D01*
X229300000Y-101900000D02*
X231500000Y-101900000D01*
X231500000Y-101900000D02*
X232100000Y-102500000D01*
X232156000Y-68072000D02*
X233028000Y-68072000D01*
X233028000Y-68072000D02*
X234600000Y-66500000D01*
X234600000Y-66500000D02*
X239400000Y-66500000D01*
X239400000Y-66500000D02*
X240300000Y-67400000D01*
X240300000Y-67400000D02*
X240300000Y-83700000D01*
X232000000Y-131000000D02*
X234600000Y-131000000D01*
X234600000Y-131000000D02*
X240300000Y-125300000D01*
X235300000Y-105400000D02*
X236100000Y-106200000D01*
X236100000Y-106200000D02*
X238200000Y-108300000D01*
X238200000Y-108300000D02*
X239300000Y-109400000D01*
X239300000Y-109400000D02*
X239400000Y-109400000D01*
X239400000Y-109400000D02*
X240300000Y-110300000D01*
X240300000Y-110300000D02*
X240300000Y-125300000D01*
X234100000Y-104500000D02*
X234400000Y-104500000D01*
X234400000Y-104500000D02*
X235300000Y-105400000D01*
X228300000Y-103300000D02*
X229700000Y-103300000D01*
X229700000Y-103300000D02*
X230900000Y-104500000D01*
X230900000Y-104500000D02*
X234100000Y-104500000D01*
D20*
X202100000Y-100400000D02*
X196200000Y-100400000D01*
X196200000Y-100400000D02*
X195300000Y-101300000D01*
X206300000Y-100400000D02*
X202100000Y-100400000D01*
X208000000Y-101200000D02*
X207700000Y-101200000D01*
X207700000Y-101200000D02*
X206900000Y-100400000D01*
X208000000Y-101200000D02*
X208100000Y-101200000D01*
X208100000Y-101200000D02*
X208900000Y-100400000D01*
X223200000Y-105230000D02*
X223200000Y-105200000D01*
X223200000Y-105200000D02*
X222100000Y-104100000D01*
X222100000Y-104100000D02*
X222100000Y-101200000D01*
X222100000Y-101200000D02*
X221300000Y-100400000D01*
X221300000Y-100400000D02*
X208900000Y-100400000D01*
X208900000Y-100400000D02*
X206900000Y-100400000D01*
X206900000Y-100400000D02*
X206300000Y-100400000D01*
X206300000Y-100400000D02*
X206200000Y-100400000D01*
D21*
X223200000Y-105230000D02*
X223200000Y-103100000D01*
X224400000Y-101900000D02*
X229300000Y-101900000D01*
X223200000Y-103100000D02*
X224400000Y-101900000D01*
X223200000Y-105230000D02*
X223200000Y-105100000D01*
X223200000Y-105100000D02*
X225000000Y-103300000D01*
X225000000Y-103300000D02*
X228300000Y-103300000D01*
X228300000Y-105230000D02*
X229430000Y-105230000D01*
X233560000Y-112940000D02*
X232200000Y-112940000D01*
X233800000Y-105900000D02*
X231000000Y-105900000D01*
X234200000Y-106300000D02*
X233800000Y-105900000D01*
X234200000Y-112300000D02*
X234200000Y-106300000D01*
X233560000Y-112940000D02*
X234200000Y-112300000D01*
X230100000Y-105900000D02*
X231000000Y-105900000D01*
X229430000Y-105230000D02*
X230100000Y-105900000D01*
X225800000Y-105230000D02*
X228300000Y-105230000D01*
X223200000Y-105230000D02*
X225800000Y-105230000D01*
D20*
X214800000Y-93530000D02*
X214800000Y-92870000D01*
X214800000Y-92870000D02*
X216570000Y-91100000D01*
X219900000Y-91870000D02*
X219900000Y-93530000D01*
X211400000Y-105970000D02*
X211400000Y-106430000D01*
X211400000Y-106430000D02*
X214400000Y-109430000D01*
X219000000Y-106170000D02*
X219000000Y-106200000D01*
X219000000Y-106200000D02*
X220270000Y-107470000D01*
X220270000Y-107470000D02*
X220270000Y-108700000D01*
X225900000Y-110600000D02*
X228400000Y-110600000D01*
X228400000Y-110600000D02*
X231140000Y-107860000D01*
X231140000Y-107860000D02*
X232200000Y-107860000D01*
X217730000Y-108700000D02*
X217730000Y-109330000D01*
X217730000Y-109330000D02*
X218800000Y-110400000D01*
X218800000Y-110400000D02*
X225700000Y-110400000D01*
X225700000Y-110400000D02*
X225900000Y-110600000D01*
X216400000Y-105970000D02*
X216400000Y-107370000D01*
X216400000Y-107370000D02*
X217730000Y-108700000D01*
X204650000Y-123150000D02*
X204650000Y-125150000D01*
X204650000Y-125150000D02*
X204550000Y-125250000D01*
X204550000Y-125250000D02*
X204550000Y-123250000D01*
X204550000Y-123250000D02*
X204650000Y-123150000D01*
X204550000Y-125250000D02*
X209450000Y-125250000D01*
X209450000Y-125250000D02*
X209550000Y-125350000D01*
X209550000Y-125350000D02*
X208800000Y-125350000D01*
X208800000Y-125350000D02*
X206250000Y-127900000D01*
X206250000Y-127900000D02*
X206250000Y-129500000D01*
X206250000Y-129500000D02*
X207900000Y-131150000D01*
X190050000Y-123900000D02*
X190050000Y-126900000D01*
X190050000Y-126900000D02*
X189300000Y-127650000D01*
X196100000Y-124650000D02*
X195550000Y-124650000D01*
X195550000Y-124650000D02*
X194300000Y-123400000D01*
X194300000Y-123400000D02*
X190550000Y-123400000D01*
X190550000Y-123400000D02*
X190050000Y-123900000D01*
X196100000Y-124650000D02*
X197200000Y-124650000D01*
X197200000Y-124650000D02*
X197800000Y-124050000D01*
X197800000Y-124050000D02*
X200150000Y-124050000D01*
X200150000Y-124050000D02*
X201050000Y-123150000D01*
X195700000Y-93730000D02*
X198970000Y-93730000D01*
X198970000Y-93730000D02*
X199300000Y-93400000D01*
X202500000Y-92600000D02*
X200100000Y-92600000D01*
X200100000Y-92600000D02*
X199300000Y-93400000D01*
X199170000Y-91000000D02*
X199170000Y-93270000D01*
X199170000Y-93270000D02*
X199300000Y-93400000D01*
X190400000Y-92650000D02*
X190400000Y-93050000D01*
X190400000Y-93050000D02*
X191880000Y-94530000D01*
X191880000Y-94530000D02*
X193100000Y-94530000D01*
X196630000Y-91000000D02*
X195700000Y-91000000D01*
X195700000Y-91000000D02*
X194900000Y-91800000D01*
X194900000Y-91800000D02*
X194900000Y-92200000D01*
X194900000Y-92200000D02*
X193100000Y-94000000D01*
X193100000Y-94000000D02*
X193100000Y-94530000D01*
X199000000Y-111500000D02*
X202270000Y-111500000D01*
X202270000Y-111500000D02*
X202400000Y-111370000D01*
X198400000Y-106370000D02*
X199170000Y-106370000D01*
X199170000Y-106370000D02*
X200700000Y-107900000D01*
X200700000Y-107900000D02*
X200700000Y-109600000D01*
X202400000Y-111370000D02*
X202400000Y-111300000D01*
X202400000Y-111300000D02*
X200700000Y-109600000D01*
X198400000Y-106370000D02*
X198400000Y-106800000D01*
X195300000Y-106500000D02*
X198270000Y-106500000D01*
X198270000Y-106500000D02*
X198400000Y-106370000D01*
X198400000Y-106370000D02*
X198400000Y-106900000D01*
X198270000Y-106500000D02*
X198400000Y-106370000D01*
X198400000Y-106370000D02*
X199160000Y-106370000D01*
X198270000Y-106500000D02*
X198400000Y-106370000D01*
D21*
X202400000Y-108830000D02*
X203330000Y-108830000D01*
X203330000Y-108830000D02*
X204700000Y-110200000D01*
D20*
X202400000Y-108830000D02*
X203030000Y-108830000D01*
X202400000Y-108830000D02*
X202400000Y-109230000D01*
X202400000Y-108830000D02*
X202400000Y-106870000D01*
X202400000Y-106870000D02*
X202900000Y-106370000D01*
X202300000Y-106970000D02*
X202900000Y-106370000D01*
X201200000Y-130970000D02*
X201200000Y-132280000D01*
X201200000Y-132280000D02*
X202200000Y-133280000D01*
X193000000Y-126300000D02*
X193000000Y-127400000D01*
X193000000Y-127400000D02*
X194100000Y-128500000D01*
X192450000Y-132700000D02*
X192450000Y-132350000D01*
X192450000Y-132350000D02*
X194100000Y-130700000D01*
X194100000Y-130700000D02*
X194100000Y-128500000D01*
X201200000Y-128430000D02*
X199670000Y-128430000D01*
X199670000Y-128430000D02*
X199650000Y-128450000D01*
X194100000Y-128500000D02*
X193950000Y-128350000D01*
X201200000Y-128430000D02*
X203870000Y-128430000D01*
X203870000Y-128430000D02*
X204550000Y-127750000D01*
X212750000Y-122870000D02*
X213460000Y-122870000D01*
X213460000Y-122870000D02*
X215150000Y-121180000D01*
X215150000Y-123720000D02*
X216820000Y-123720000D01*
X216820000Y-123720000D02*
X217650000Y-124550000D01*
X213000000Y-125450000D02*
X213420000Y-125450000D01*
X213420000Y-125450000D02*
X215150000Y-123720000D01*
X210550000Y-136220000D02*
X212910000Y-136220000D01*
X212910000Y-136220000D02*
X213050000Y-136080000D01*
X210550000Y-133680000D02*
X210550000Y-133400000D01*
X210550000Y-133400000D02*
X213000000Y-130950000D01*
X213000000Y-130950000D02*
X213000000Y-129050000D01*
X210550000Y-133680000D02*
X213180000Y-133680000D01*
X213180000Y-133680000D02*
X215250000Y-135750000D01*
X215250000Y-135750000D02*
X215250000Y-138700000D01*
X215250000Y-138700000D02*
X217050000Y-140500000D01*
D23*
X217050000Y-140500000D02*
X220450000Y-140500000D01*
X220450000Y-140500000D02*
X220550000Y-140400000D01*
D21*
X185900000Y-110800000D02*
X188400000Y-110800000D01*
X188400000Y-110800000D02*
X189300000Y-111700000D01*
X195300000Y-120200000D02*
X195300000Y-120050000D01*
X195300000Y-120050000D02*
X192400000Y-117150000D01*
X192400000Y-117150000D02*
X192400000Y-115950000D01*
X192400000Y-115950000D02*
X189300000Y-112850000D01*
X189300000Y-112850000D02*
X189300000Y-111700000D01*
X179150000Y-110800000D02*
X185900000Y-110800000D01*
X179150000Y-110800000D02*
X179300000Y-110950000D01*
X179950000Y-104700000D02*
X179950000Y-105550000D01*
X179950000Y-105550000D02*
X179150000Y-106350000D01*
X179150000Y-106350000D02*
X179150000Y-106950000D01*
D25*
X179950000Y-104700000D02*
X179900000Y-104700000D01*
D21*
X177550000Y-87540000D02*
X177550000Y-91850000D01*
X177550000Y-91850000D02*
X179950000Y-94250000D01*
X179950000Y-94250000D02*
X179950000Y-95100000D01*
X230200000Y-116500000D02*
X227900000Y-116500000D01*
X227900000Y-116500000D02*
X226000000Y-118400000D01*
X226000000Y-118400000D02*
X203300000Y-118400000D01*
X203300000Y-118400000D02*
X201500000Y-120200000D01*
X201500000Y-120200000D02*
X195300000Y-120200000D01*
D20*
X232200000Y-110400000D02*
X230000000Y-110400000D01*
X230000000Y-110400000D02*
X228500000Y-111900000D01*
X228500000Y-111900000D02*
X228500000Y-113000000D01*
X228500000Y-113000000D02*
X225900000Y-115600000D01*
D21*
X232200000Y-110400000D02*
X231300000Y-110400000D01*
X231300000Y-110400000D02*
X230200000Y-111500000D01*
X230200000Y-111500000D02*
X230200000Y-116500000D01*
D20*
X223170000Y-115500000D02*
X225800000Y-115500000D01*
X225800000Y-115500000D02*
X225900000Y-115600000D01*
X225900000Y-115600000D02*
X225500000Y-115600000D01*
X225500000Y-115600000D02*
X223900000Y-117200000D01*
X223900000Y-117200000D02*
X218200000Y-117200000D01*
X218200000Y-117200000D02*
X216600000Y-115600000D01*
X195600000Y-114200000D02*
X195600000Y-115100000D01*
X195600000Y-115100000D02*
X196400000Y-115900000D01*
X196400000Y-115900000D02*
X196400000Y-117000000D01*
X196400000Y-117000000D02*
X198500000Y-119100000D01*
X198500000Y-119100000D02*
X201000000Y-119100000D01*
X201000000Y-119100000D02*
X201900000Y-118200000D01*
X204700000Y-115400000D02*
X205800000Y-115400000D01*
X205800000Y-115400000D02*
X207000000Y-116600000D01*
X207000000Y-116600000D02*
X209200000Y-116600000D01*
X209200000Y-116600000D02*
X211600000Y-114200000D01*
X195600000Y-114200000D02*
X195600000Y-115000000D01*
X201900000Y-118200000D02*
X204700000Y-115400000D01*
X204700000Y-115400000D02*
X205200000Y-115400000D01*
X195600000Y-114200000D02*
X195600000Y-114800000D01*
X211600000Y-114200000D02*
X215200000Y-114200000D01*
X215200000Y-114200000D02*
X216600000Y-115600000D01*
X225970000Y-115670000D02*
X225900000Y-115600000D01*
X232200000Y-110400000D02*
X231600000Y-110400000D01*
X190400000Y-89050000D02*
X190400000Y-87000000D01*
X190400000Y-87000000D02*
X192800000Y-84600000D01*
D21*
X177550000Y-82460000D02*
X181010000Y-82460000D01*
X181010000Y-82460000D02*
X182050000Y-83500000D01*
X182050000Y-83500000D02*
X185300000Y-83500000D01*
X231300000Y-84963000D02*
X219163000Y-84963000D01*
X199400000Y-83500000D02*
X185300000Y-83500000D01*
X200300000Y-84400000D02*
X199400000Y-83500000D01*
X211100000Y-84400000D02*
X200300000Y-84400000D01*
X211400000Y-84700000D02*
X211100000Y-84400000D01*
X218900000Y-84700000D02*
X211400000Y-84700000D01*
X219163000Y-84963000D02*
X218900000Y-84700000D01*
D20*
X201400000Y-87000000D02*
X204700000Y-87000000D01*
X204700000Y-87000000D02*
X204900000Y-87200000D01*
X204900000Y-87200000D02*
X205000000Y-87200000D01*
X205000000Y-87200000D02*
X206700000Y-85500000D01*
X210900000Y-85800000D02*
X210600000Y-85500000D01*
X225806000Y-87035000D02*
X224635000Y-87035000D01*
X218400000Y-85800000D02*
X211100000Y-85800000D01*
X219300000Y-86700000D02*
X218400000Y-85800000D01*
X224300000Y-86700000D02*
X219300000Y-86700000D01*
X224635000Y-87035000D02*
X224300000Y-86700000D01*
X211100000Y-85800000D02*
X210900000Y-85800000D01*
X206700000Y-85500000D02*
X210600000Y-85500000D01*
X204800000Y-87100000D02*
X204900000Y-87200000D01*
X201400000Y-87000000D02*
X201300000Y-87000000D01*
X201300000Y-87000000D02*
X198900000Y-84600000D01*
X198900000Y-84600000D02*
X192800000Y-84600000D01*
X192800000Y-84600000D02*
X192700000Y-84600000D01*
X225441000Y-87400000D02*
X225806000Y-87035000D01*
D21*
X234696000Y-90424000D02*
X234950000Y-90424000D01*
X232664000Y-90424000D02*
X234696000Y-90424000D01*
X234188000Y-84963000D02*
X231300000Y-84963000D01*
X231300000Y-84963000D02*
X231267000Y-84963000D01*
X235585000Y-86360000D02*
X234188000Y-84963000D01*
X235585000Y-89789000D02*
X235585000Y-86360000D01*
X234950000Y-90424000D02*
X235585000Y-89789000D01*
D20*
X234442000Y-86741000D02*
X234442000Y-89281000D01*
X233807000Y-86106000D02*
X234442000Y-86741000D01*
X229108000Y-87122000D02*
X230251000Y-87122000D01*
X230251000Y-87122000D02*
X231267000Y-86106000D01*
X231267000Y-86106000D02*
X233807000Y-86106000D01*
X234442000Y-89281000D02*
X233299000Y-90424000D01*
X233299000Y-90424000D02*
X232664000Y-90424000D01*
X233553000Y-90424000D02*
X232664000Y-90424000D01*
X225806000Y-87035000D02*
X229021000Y-87035000D01*
X229021000Y-87035000D02*
X229108000Y-87122000D01*
X183575000Y-79175000D02*
X183575000Y-78975000D01*
X183575000Y-78975000D02*
X182850000Y-78250000D01*
X182850000Y-78250000D02*
X182850000Y-75400000D01*
X182850000Y-75400000D02*
X181300000Y-73850000D01*
X181300000Y-73850000D02*
X181300000Y-72400000D01*
X181300000Y-72400000D02*
X183250000Y-70450000D01*
X183575000Y-79175000D02*
X183525000Y-79175000D01*
X179850000Y-79100000D02*
X179200000Y-79100000D01*
X184700000Y-81000000D02*
X184700000Y-80300000D01*
X184700000Y-80300000D02*
X183575000Y-79175000D01*
X183575000Y-79175000D02*
X183500000Y-79100000D01*
X183500000Y-79100000D02*
X179850000Y-79100000D01*
X184200000Y-91400000D02*
X184200000Y-91250000D01*
X184200000Y-91250000D02*
X182750000Y-89800000D01*
X182750000Y-89800000D02*
X180700000Y-89800000D01*
X180700000Y-89800000D02*
X179850000Y-88950000D01*
X184200000Y-91400000D02*
X184150000Y-91400000D01*
X184200000Y-94900000D02*
X184200000Y-91400000D01*
X180050000Y-99000000D02*
X182900000Y-99000000D01*
X182900000Y-99000000D02*
X184200000Y-97700000D01*
X184200000Y-97700000D02*
X184200000Y-94900000D01*
X186850000Y-101900000D02*
X184550000Y-101900000D01*
X184550000Y-101900000D02*
X183500000Y-100850000D01*
X183500000Y-100850000D02*
X180050000Y-100850000D01*
X180050000Y-100850000D02*
X178850000Y-102050000D01*
X178850000Y-102050000D02*
X177050000Y-102050000D01*
X177050000Y-102050000D02*
X175850000Y-100850000D01*
X175850000Y-100850000D02*
X175850000Y-99050000D01*
X175850000Y-99050000D02*
X177100000Y-97800000D01*
X177100000Y-97800000D02*
X178850000Y-97800000D01*
X178850000Y-97800000D02*
X180050000Y-99000000D01*
X178750000Y-127830000D02*
X178750000Y-125050000D01*
X178750000Y-125050000D02*
X178850000Y-124950000D01*
X184800000Y-115900000D02*
X184400000Y-115500000D01*
X184400000Y-115500000D02*
X179100000Y-115500000D01*
X179100000Y-115500000D02*
X178750000Y-115850000D01*
X178750000Y-115850000D02*
X178750000Y-122350000D01*
X178750000Y-124850000D02*
X178750000Y-122350000D01*
X178850000Y-124950000D02*
X178750000Y-124850000D01*
X186800000Y-127650000D02*
X186800000Y-126800000D01*
X186800000Y-126800000D02*
X184900000Y-124900000D01*
X184900000Y-124900000D02*
X184100000Y-124900000D01*
X186850000Y-97900000D02*
X185750000Y-97900000D01*
X185750000Y-97900000D02*
X185000000Y-98650000D01*
X185050000Y-103850000D02*
X184850000Y-104050000D01*
X184850000Y-104050000D02*
X184850000Y-105150000D01*
X205900000Y-90700000D02*
X205900000Y-93330000D01*
X205900000Y-93330000D02*
X206000000Y-93430000D01*
X203000000Y-95100000D02*
X204330000Y-95100000D01*
X204330000Y-95100000D02*
X206000000Y-93430000D01*
X192900000Y-89400000D02*
X194000000Y-89400000D01*
X194000000Y-89400000D02*
X196400000Y-87000000D01*
X202500000Y-90100000D02*
X200600000Y-90100000D01*
X198000000Y-88600000D02*
X196400000Y-87000000D01*
X199100000Y-88600000D02*
X198000000Y-88600000D01*
X200600000Y-90100000D02*
X199100000Y-88600000D01*
X205600000Y-88900000D02*
X204300000Y-88900000D01*
X198900000Y-87000000D02*
X200500000Y-88600000D01*
X205600000Y-88900000D02*
X207300000Y-87200000D01*
X200700000Y-88800000D02*
X200500000Y-88600000D01*
X202000000Y-88800000D02*
X200700000Y-88800000D01*
X202500000Y-88300000D02*
X202000000Y-88800000D01*
X203700000Y-88300000D02*
X202500000Y-88300000D01*
X204300000Y-88900000D02*
X203700000Y-88300000D01*
X207400000Y-87200000D02*
X207300000Y-87200000D01*
X192900000Y-86900000D02*
X194000000Y-86900000D01*
X194000000Y-86900000D02*
X195500000Y-85400000D01*
X195500000Y-85400000D02*
X197300000Y-85400000D01*
X197300000Y-85400000D02*
X198900000Y-87000000D01*
X210900000Y-90700000D02*
X213630000Y-90700000D01*
X213630000Y-90700000D02*
X214030000Y-91100000D01*
X209900000Y-87200000D02*
X209900000Y-89700000D01*
X209900000Y-89700000D02*
X210900000Y-90700000D01*
X214700000Y-88400000D02*
X214700000Y-90430000D01*
X214700000Y-90430000D02*
X214030000Y-91100000D01*
X209300000Y-93400000D02*
X212170000Y-93400000D01*
X212170000Y-93400000D02*
X212300000Y-93530000D01*
X208400000Y-90700000D02*
X208400000Y-92500000D01*
X208400000Y-92500000D02*
X209300000Y-93400000D01*
X222000000Y-87600000D02*
X223871000Y-87600000D01*
X225806000Y-89535000D02*
X224071000Y-87800000D01*
X219000000Y-87600000D02*
X222000000Y-87600000D01*
X218100000Y-86700000D02*
X219000000Y-87600000D01*
X214000000Y-86700000D02*
X218100000Y-86700000D01*
X214000000Y-86700000D02*
X212300000Y-88400000D01*
X223871000Y-87600000D02*
X224071000Y-87800000D01*
X212200000Y-88400000D02*
X212300000Y-88400000D01*
X229108000Y-89662000D02*
X225933000Y-89662000D01*
X225933000Y-89662000D02*
X225806000Y-89535000D01*
X217200000Y-88400000D02*
X217200000Y-89100000D01*
X217200000Y-89100000D02*
X218300000Y-90200000D01*
X218300000Y-90200000D02*
X218300000Y-91700000D01*
X218300000Y-91700000D02*
X217300000Y-92700000D01*
X217300000Y-92700000D02*
X217300000Y-93530000D01*
X223000000Y-89530000D02*
X220100000Y-89530000D01*
X220100000Y-89530000D02*
X219900000Y-89330000D01*
X223000000Y-89530000D02*
X223301000Y-89530000D01*
X223301000Y-89530000D02*
X225806000Y-92035000D01*
X232664000Y-87884000D02*
X232029000Y-87884000D01*
X232029000Y-87884000D02*
X230886000Y-89027000D01*
X230886000Y-89027000D02*
X230886000Y-90424000D01*
X230886000Y-90424000D02*
X229275000Y-92035000D01*
X229275000Y-92035000D02*
X225806000Y-92035000D01*
X204000000Y-112600000D02*
X203800000Y-112600000D01*
X203800000Y-112600000D02*
X202400000Y-114000000D01*
X202400000Y-114000000D02*
X199000000Y-114000000D01*
X199600000Y-116500000D02*
X199600000Y-114600000D01*
X199600000Y-114600000D02*
X199000000Y-114000000D01*
X208100000Y-114100000D02*
X207200000Y-114100000D01*
X207200000Y-114100000D02*
X205700000Y-112600000D01*
X205700000Y-112600000D02*
X204000000Y-112600000D01*
X204000000Y-112600000D02*
X203900000Y-112600000D01*
X195600000Y-109200000D02*
X198800000Y-109200000D01*
X198800000Y-109200000D02*
X199000000Y-109000000D01*
X192300000Y-109300000D02*
X195500000Y-109300000D01*
X195500000Y-109300000D02*
X195600000Y-109200000D01*
X202650000Y-115050000D02*
X202650000Y-115850000D01*
X202650000Y-115850000D02*
X200300000Y-118200000D01*
X200300000Y-118200000D02*
X198900000Y-118200000D01*
X198900000Y-118200000D02*
X197300000Y-116600000D01*
X197300000Y-116600000D02*
X197300000Y-114900000D01*
X204100000Y-113600000D02*
X202650000Y-115050000D01*
X202650000Y-115050000D02*
X202600000Y-115100000D01*
X195600000Y-111700000D02*
X196100000Y-111700000D01*
X196100000Y-111700000D02*
X197300000Y-112900000D01*
X197300000Y-112900000D02*
X197300000Y-114900000D01*
X211600000Y-111700000D02*
X210700000Y-111700000D01*
X210700000Y-111700000D02*
X209800000Y-112600000D01*
X209800000Y-112600000D02*
X209800000Y-114800000D01*
X209800000Y-114800000D02*
X208800000Y-115800000D01*
X208800000Y-115800000D02*
X207400000Y-115800000D01*
X207400000Y-115800000D02*
X205900000Y-114300000D01*
X205900000Y-114300000D02*
X205900000Y-114200000D01*
X205900000Y-114200000D02*
X205300000Y-113600000D01*
X205300000Y-113600000D02*
X204100000Y-113600000D01*
X192300000Y-111800000D02*
X195500000Y-111800000D01*
X195500000Y-111800000D02*
X195600000Y-111700000D01*
X211600000Y-109200000D02*
X208200000Y-109200000D01*
X208200000Y-109200000D02*
X208100000Y-109100000D01*
X214400000Y-111970000D02*
X214370000Y-111970000D01*
X214370000Y-111970000D02*
X211600000Y-109200000D01*
X214400000Y-111970000D02*
X214400000Y-112100000D01*
X220600000Y-112100000D02*
X220500000Y-112100000D01*
X220500000Y-112100000D02*
X218800000Y-113800000D01*
X218800000Y-113800000D02*
X216230000Y-113800000D01*
X216230000Y-113800000D02*
X214400000Y-111970000D01*
X208100000Y-111600000D02*
X208100000Y-111500000D01*
X208100000Y-111500000D02*
X206300000Y-109700000D01*
X206300000Y-109700000D02*
X206300000Y-107870000D01*
X206300000Y-107870000D02*
X205400000Y-106970000D01*
X205400000Y-106970000D02*
X207430000Y-106970000D01*
X207430000Y-106970000D02*
X208000000Y-106400000D01*
X208000000Y-106400000D02*
X208400000Y-106400000D01*
X223100000Y-112100000D02*
X223100000Y-113030000D01*
X223100000Y-113030000D02*
X220630000Y-115500000D01*
X223100000Y-112100000D02*
X224900000Y-112100000D01*
X224900000Y-112100000D02*
X225900000Y-113100000D01*
X225600000Y-112800000D02*
X225900000Y-113100000D01*
X213900000Y-105970000D02*
X213970000Y-105970000D01*
X213970000Y-105970000D02*
X215500000Y-107500000D01*
X215500000Y-107500000D02*
X215500000Y-108200000D01*
X215500000Y-108200000D02*
X216000000Y-108700000D01*
X216000000Y-108700000D02*
X216000000Y-109500000D01*
X216000000Y-109500000D02*
X218100000Y-111600000D01*
X218100000Y-111600000D02*
X218100000Y-112100000D01*
X184300000Y-127650000D02*
X184300000Y-131550000D01*
X184300000Y-131550000D02*
X183650000Y-132200000D01*
X183650000Y-132200000D02*
X183650000Y-134000000D01*
X183650000Y-134000000D02*
X183850000Y-134000000D01*
X183850000Y-134000000D02*
X185600000Y-132250000D01*
X185600000Y-132250000D02*
X189500000Y-132250000D01*
X189500000Y-132250000D02*
X189950000Y-132700000D01*
X181150000Y-134000000D02*
X181250000Y-134000000D01*
X181250000Y-134000000D02*
X183150000Y-135900000D01*
X183150000Y-135900000D02*
X185650000Y-135900000D01*
X195350000Y-140820000D02*
X194870000Y-140820000D01*
X194870000Y-140820000D02*
X189950000Y-135900000D01*
X189950000Y-135900000D02*
X185650000Y-135900000D01*
X180400000Y-132200000D02*
X180850000Y-132200000D01*
X180850000Y-132200000D02*
X181700000Y-131350000D01*
X181700000Y-131350000D02*
X181700000Y-123800000D01*
X181700000Y-123800000D02*
X182600000Y-122900000D01*
X182600000Y-122900000D02*
X185700000Y-122900000D01*
X185700000Y-122900000D02*
X186600000Y-123800000D01*
X178650000Y-134000000D02*
X178650000Y-133950000D01*
X178650000Y-133950000D02*
X180400000Y-132200000D01*
X185700000Y-123800000D02*
X186600000Y-123800000D01*
X186600000Y-121300000D02*
X186600000Y-123800000D01*
X190050000Y-121400000D02*
X186700000Y-121400000D01*
X186700000Y-121400000D02*
X186600000Y-121300000D01*
X194600000Y-135580000D02*
X194600000Y-133050000D01*
X194600000Y-133050000D02*
X194950000Y-132700000D01*
X194050000Y-125050000D02*
X193750000Y-124750000D01*
X193750000Y-124750000D02*
X193600000Y-124600000D01*
X193600000Y-124600000D02*
X192300000Y-124600000D01*
X192300000Y-124600000D02*
X191300000Y-125600000D01*
X191300000Y-125600000D02*
X191300000Y-128150000D01*
X191300000Y-128150000D02*
X189000000Y-130450000D01*
X189000000Y-130450000D02*
X187250000Y-130450000D01*
X196100000Y-127150000D02*
X196100000Y-127100000D01*
X196100000Y-127100000D02*
X194050000Y-125050000D01*
X198500000Y-133400000D02*
X198500000Y-133300000D01*
X198500000Y-133300000D02*
X196100000Y-130900000D01*
X196100000Y-130900000D02*
X196100000Y-127150000D01*
X198600000Y-125850000D02*
X198600000Y-127200000D01*
X198600000Y-127200000D02*
X198050000Y-127750000D01*
X198050000Y-127750000D02*
X198050000Y-130450000D01*
X198050000Y-130450000D02*
X198500000Y-130900000D01*
X198600000Y-125850000D02*
X200950000Y-125850000D01*
X200950000Y-125850000D02*
X202750000Y-124050000D01*
X209550000Y-122850000D02*
X206950000Y-122850000D01*
X206950000Y-122850000D02*
X205550000Y-121450000D01*
X205550000Y-121450000D02*
X203900000Y-121450000D01*
X203900000Y-121450000D02*
X202750000Y-122600000D01*
X202750000Y-122600000D02*
X202750000Y-124050000D01*
X204550000Y-130250000D02*
X204550000Y-131880000D01*
X204550000Y-131880000D02*
X205400000Y-132730000D01*
X207900000Y-128650000D02*
X210550000Y-128650000D01*
X210550000Y-128650000D02*
X211950000Y-127250000D01*
X211950000Y-127250000D02*
X217450000Y-127250000D01*
X217450000Y-127250000D02*
X217650000Y-127050000D01*
X217650000Y-127050000D02*
X219850000Y-127050000D01*
X219850000Y-127050000D02*
X221150000Y-125750000D01*
X221150000Y-125750000D02*
X221150000Y-125100000D01*
X221150000Y-125100000D02*
X223400000Y-122850000D01*
D23*
X223400000Y-122850000D02*
X227300000Y-122850000D01*
D20*
X217650000Y-122050000D02*
X219630000Y-122050000D01*
X219630000Y-122050000D02*
X220450000Y-122870000D01*
D23*
X217050000Y-143000000D02*
X220450000Y-143000000D01*
X220450000Y-143000000D02*
X220550000Y-142900000D01*
D21*
X213600000Y-141230000D02*
X214380000Y-141230000D01*
X214380000Y-141230000D02*
X216150000Y-143000000D01*
X216150000Y-143000000D02*
X217050000Y-143000000D01*
X217150000Y-142900000D02*
X217050000Y-143000000D01*
D20*
X220450000Y-143000000D02*
X220550000Y-142900000D01*
X213600000Y-141230000D02*
X214380000Y-141230000D01*
X216150000Y-143000000D02*
X217050000Y-143000000D01*
D23*
X220600000Y-134340000D02*
X223940000Y-134340000D01*
X223940000Y-134340000D02*
X223950000Y-134350000D01*
X220550000Y-137900000D02*
X220550000Y-134390000D01*
X220550000Y-134390000D02*
X220600000Y-134340000D01*
X220550000Y-137900000D02*
X222900000Y-137900000D01*
X222900000Y-137900000D02*
X224150000Y-139150000D01*
X224150000Y-139150000D02*
X224150000Y-140850000D01*
X217050000Y-138000000D02*
X220450000Y-138000000D01*
X220450000Y-138000000D02*
X220550000Y-137900000D01*
D20*
X224150000Y-140850000D02*
X224050000Y-140750000D01*
X224050000Y-140750000D02*
X224050000Y-138200000D01*
X232000000Y-140860000D02*
X229460000Y-140860000D01*
X229460000Y-140860000D02*
X229450000Y-140850000D01*
D23*
X220600000Y-129260000D02*
X223860000Y-129260000D01*
X223860000Y-129260000D02*
X223950000Y-129350000D01*
X223400000Y-125350000D02*
X223400000Y-128800000D01*
X223400000Y-128800000D02*
X223950000Y-129350000D01*
X223400000Y-125350000D02*
X227300000Y-125350000D01*
D20*
X232000000Y-128460000D02*
X231440000Y-128460000D01*
X231440000Y-128460000D02*
X230300000Y-129600000D01*
X230300000Y-129600000D02*
X230300000Y-131100000D01*
X230300000Y-131100000D02*
X229850000Y-131550000D01*
X229850000Y-131550000D02*
X226950000Y-131550000D01*
X226950000Y-131550000D02*
X224750000Y-129350000D01*
X224750000Y-129350000D02*
X223950000Y-129350000D01*
X215520000Y-131800000D02*
X223900000Y-131800000D01*
X223900000Y-131800000D02*
X223950000Y-131850000D01*
X192680000Y-63250000D02*
X192680000Y-62820000D01*
X192680000Y-62820000D02*
X193950000Y-61550000D01*
X196790000Y-54700000D02*
X196790000Y-59710000D01*
X196790000Y-59710000D02*
X194950000Y-61550000D01*
X194950000Y-61550000D02*
X193950000Y-61550000D01*
X179950000Y-81100000D02*
X182000000Y-81100000D01*
X182000000Y-81100000D02*
X182200000Y-80900000D01*
X176800000Y-73130000D02*
X176800000Y-77950000D01*
X176800000Y-77950000D02*
X179950000Y-81100000D01*
X179850000Y-63300000D02*
X177450000Y-63300000D01*
X177450000Y-63300000D02*
X176800000Y-63950000D01*
X176800000Y-63950000D02*
X176800000Y-73130000D01*
X191710000Y-54700000D02*
X191710000Y-59090000D01*
X191710000Y-59090000D02*
X187500000Y-63300000D01*
X187500000Y-63300000D02*
X179850000Y-63300000D01*
X179850000Y-63300000D02*
X179800000Y-63300000D01*
X197890000Y-145900000D02*
X197890000Y-138810000D01*
X197890000Y-138810000D02*
X197330000Y-138250000D01*
X178550000Y-137380000D02*
X181220000Y-137380000D01*
X181220000Y-137380000D02*
X181700000Y-136900000D01*
X181700000Y-136900000D02*
X189250000Y-136900000D01*
X189250000Y-136900000D02*
X192810000Y-140460000D01*
X192810000Y-140460000D02*
X192810000Y-145900000D01*
M02*
